<svg xmlns="http://www.w3.org/2000/svg" xmlns:xlink="http://www.w3.org/1999/xlink" viewBox="0 0 628.62 613.84"><defs><style>.cls-1,.cls-19,.cls-2,.cls-8{fill:none;}.cls-2,.cls-8{stroke:#000;}.cls-14,.cls-15,.cls-19,.cls-2,.cls-20,.cls-21,.cls-8{stroke-miterlimit:10;}.cls-2,.cls-20{stroke-width:2px;}.cls-3{clip-path:url(#clip-path);}.cls-4{fill:#ff6d2d;}.cls-5,.cls-6,.cls-7,.cls-9{fill:#f6cd66;}.cls-5{opacity:0.3;}.cls-6{opacity:0.6;}.cls-7{opacity:0.72;}.cls-8{stroke-width:3px;}.cls-10{fill:#87bada;}.cls-11{fill:#047177;}.cls-12{fill:#d6be82;}.cls-13{fill:#cbaf68;opacity:0.64;}.cls-14{fill:#6a9b91;stroke:#648e84;}.cls-15{fill:#63a598;stroke:#6a9990;}.cls-16{fill:#99c2d6;}.cls-17,.cls-18{fill:#2a9191;}.cls-17{opacity:0.09;}.cls-18{opacity:0.13;}.cls-19{stroke:#027177;stroke-width:4px;}.cls-20{fill:#f1d5ac;stroke:#cdb270;}.cls-21{fill:#b74729;stroke:#b74729;}.cls-22{opacity:0.23;}</style><clipPath id="clip-path"><circle class="cls-1" cx="316.58" cy="304.8" r="290.85"/></clipPath></defs><title>adventurejunkies</title><g id="Layer_2" data-name="Layer 2"><path class="cls-1" d="M255.91,429.82c-2.67,2.93-4.21,4.68-4.21,4.68"/><path class="cls-1" d="M424.78,430.28a28.69,28.69,0,0,1-4.51,6.07"/></g><g id="earth"><circle class="cls-2" cx="316.58" cy="304.8" r="290.85"/><g class="cls-3"><path class="cls-4" d="M-.53,383.41C-.86,205.64,102.66,12.49,317.83,12.74,521.78,13,617.61,185.88,635,369.06a1.21,1.21,0,0,0-.2-.09,169.57,169.57,0,0,0-19.67-8.41c-.32-.11-.65-.25-1-.34-19.72-7-38.9-10.25-61.58-16.62-9-2.51-18.55-5.52-28.9-9.44-11.07-4.19-22.09-10.59-33.2-17.86-15.91-10.46-32-22.77-48.49-33.22l-.2-.13c-26.95-17-55.12-29-85.83-19.74a86.2,86.2,0,0,1-15.17,2.93.25.25,0,0,0-.12,0h0c-4.36.48-9,.78-13.84.95-4.46.16-9.07.18-13.73.1h-.3c-35.4-.57-74.4-6.7-78-6.7a407.32,407.32,0,0,0-48.41,2.64c-27.38,3.28-49.37,9.48-68.24,18.09-1.22.56-2.44,1.13-3.62,1.71l-.29.13a189.62,189.62,0,0,0-25.18,14.76,243.15,243.15,0,0,0-23.31,18.42c-1.64,1.44-3.25,2.91-4.87,4.38C42,338.1,23.82,358.45,1.51,380.61h0c-.22.22-1.7,1-1.92,1.2"/><path class="cls-5" d="M169.09,194.18a205.65,205.65,0,0,0-35,10.31c-1.12.44-2.24.9-3.33,1.36l-.26.11a182.34,182.34,0,0,0-23.13,11.82,221.89,221.89,0,0,0-21.4,14.75c-1.5,1.15-3,2.33-4.48,3.52-17.39,14-34.09,30.28-54.57,48h0c-.2.19-1.52.77-1.75,1a290.82,290.82,0,0,1,21.69-90.86Z"/><path class="cls-5" d="M637.08,378.71a1.43,1.43,0,0,1-.2-.14,2.31,2.31,0,0,0-.28-.19,144.31,144.31,0,0,0-19.18-11.93c-.32-.17-.65-.36-1-.5C597,355.87,578,351.17,555.53,342c-2.3-.94-4.61-1.9-7-2.92-6.82-3-14-6.5-21.61-10.69-10.95-6.05-21.86-15.28-32.85-25.78-2.11-2-4.23-4.11-6.36-6.21-13.66-13.59-27.47-28.65-41.61-41.71l-.2-.2c-8.76-8.06-17.63-15.36-26.68-21H614.72C627.29,271.4,638.8,319.74,637.08,378.71Z"/><polyline class="cls-1" points="81.58 236.03 83.54 236.03 105.19 235.97 119.75 235.94 124.62 235.93 222.44 235.7 330.51 235.42"/><path class="cls-6" d="M614.72,233.43H414c-19-7.86-38.82-11.14-59.78-5a91.41,91.41,0,0,1-15.42,2.86.25.25,0,0,0-.12,0h0c-4.42.46-9.14.76-14.06.93-4.53.15-9.21.17-13.94.09h-.3c-36-.56-75.58-6.53-79.19-6.53A429.94,429.94,0,0,0,182,228.34a283.61,283.61,0,0,0-30.56,5.09H16.21A364.5,364.5,0,0,1,67.35,141.2q7.86-10.3,16.43-19.93H547.15A361.88,361.88,0,0,1,614.72,233.43Z"/><path class="cls-7" d="M542.47,121.43H79.37C138.2,55.35,220.22,14.34,310.93,14.34S483.65,55.35,542.47,121.43Z"/><path class="cls-1" d="M27,284.06h0l-.63.53Z"/><path class="cls-1" d="M312.9,193.23a598.57,598.57,0,0,0-105.59,11c-2.55.51-5.06,1-7.58,1.57l-.51.1a498.19,498.19,0,0,0-65.93,18.74h0q-8.55,3.09-16.77,6.46c-3.84,1.56-7.59,3.17-11.3,4.83a367.12,367.12,0,0,0-33.94,17.16A287.29,287.29,0,0,0,27,284.06C47.5,266.31,64.19,250,81.58,236c1.49-1.18,3-2.36,4.48-3.51L102.22,210l5.25,7.76a180.28,180.28,0,0,1,23.12-11.83l.26-.1c1.09-.46,2.21-.92,3.33-1.37l32.45-55.8L196.85,190a429.21,429.21,0,0,1,44.45-2.11C244.57,187.87,280.39,192.77,312.9,193.23Z"/><path class="cls-1" d="M338.61,192.37s0,0,0,0c-.18.3-.37.59-.55.9-4.07-.11-8.14-.15-12.25-.15,4.44-.14,8.71-.39,12.71-.77h0A.22.22,0,0,1,338.61,192.37Z"/><line class="cls-1" x1="93.82" y1="118.65" x2="91.93" y2="118.08"/><polyline class="cls-1" points="338.96 192.53 338.58 192.41 338.5 192.39"/><line class="cls-1" x1="367.94" y1="159.33" x2="367.42" y2="158.98"/><line class="cls-8" x1="580.31" y1="9.78" x2="580.26" y2="9.67"/><line class="cls-1" x1="477.46" y1="123.68" x2="477.42" y2="123.37"/><line class="cls-1" x1="521.05" y1="94.78" x2="520.97" y2="95.1"/><line class="cls-1" x1="513.32" y1="129.86" x2="513.31" y2="129.91"/><path class="cls-1" d="M476.59,232.35l-.51.2"/><path class="cls-1" d="M534.43,253.47s-.48.33-1.32.95"/><circle class="cls-9" cx="452.35" cy="285.81" r="126.78"/><path class="cls-9" d="M123.7,158.39l90.65-6"/><path class="cls-10" d="M64.28,190.93s79.15-46.83,105.24-45.78,34,19.47,44.49,27.09c15.6,11.39,62.64,5.88,80.82,15.28,17.4,9,44.68,36.76,51.95,50.77s34.05,9.3,44.26,18.32,74.33,61.73,79.85,82.76c2.26,8.65-121.57,221.54-210,228.69-87.3,7.05-224.55-12.8-318.64-121.34C-76.69,424.84,32,184.64,64.28,190.93Z"/><path class="cls-11" d="M615.59,397.6c0,41.6-11.43,29.1-11.43,29.1a291.57,291.57,0,0,1-50.41,98.78,294.57,294.57,0,0,1-68.12,63.4c-1.15.78-2.31,1.54-3.49,2.31a291,291,0,0,1-119.06,44.39l-2,.28-3.57.44s-.11,1.57-.15,1.57c-11.35,1.32-22.9.47-34.61.47A293.06,293.06,0,0,1,40.83,425.2c-7.17-25.35-11-26-11-53.67,0-1.3,0-2.59,0-3.89,0-.86,0-1.71.05-2.56.06-3.16-5.95-6.31-5.78-9.43,0-.51,0-1,.09-1.54.09-1.53.18-3.06.31-4.6.19-.18.41-.35.61-.53h1.55c-1.46-10.62-31.58-56.34-14.19-70.33,1.48-1.18,76.34,19.94,77.84,18.79a220.11,220.11,0,0,1,21.4-14.75,181.07,181.07,0,0,1,23.13-11.83l.26-.1c1.09-.46,2.21-.92,3.33-1.37,17.32-6.9,37.52-11.87,62.67-14.49,13.32-1.39,57.47,16.59,90,17,0,0,25.71,3.74,27.24,3.74,5.2-.52,20,6.86,33.88,5.33,23.38-6.18,71.07,7.32,79.2,11.8.06,0,32.08,12.55,44.76,20.09,2,1.17,3.94,2.33,5.9,3.45,10.2,5.83,15.72,3.28,25.88,6.64,7.07,2.33,15.26-.34,21.59,1.33,2.21.57,9-.43,11.09.1,20.82,5.1,38.44,9.24,56.55,14.84l.89.27a165.81,165.81,0,0,1,17.8,6.63c.11,1,.19,2.07.27,3.11a1.15,1.15,0,0,1,0,.19c0,.35.06.69.08,1,.06.63.1,1.27.15,1.9.11,1.59-1.32,27.74-1.24,29.36.06,1,.11,2,.14,3,0,.31,0,.61,0,.92,0,1.42.13,3.6.14,4C615.56,392.77,615.59,397.13,615.59,397.6Z"/><path class="cls-12" d="M539.37,324c-4.51,2.28-23.37,14.89-23.37,14.89-7,3.7-12.57,13-15.6,14.94C494,356.6,487,364,482.59,368.75c-8.09,5.86-10.26,3.75-15.26,12.94C454.15,393.69,453,393,436.2,402.4c-7.05,5.29-10.49,14.94-17.67,23.85l-219.51-1c17.42-26.17,115.49-25.14,140.81-49.64,7.35-8.37,23.46-16.29,33.29-21.18,17.89-11.94,35.06-22.54,55.33-25.82,15.9-7.08,6.21-4.59,24.63-9.17,14.08-4.06,5.61-16.75,22.58-9.26C484.81,317.55,531.52,320.72,539.37,324Z"/><path class="cls-13" d="M442.23,332.4c-6.41,2.77-33,8.59-38,17.78-13.18,12-42.31,35.3-59.6,43.84-8,4-42.05,22.77-67.27,31.59L199,425.26c17.42-26.17,115.49-25.14,140.81-49.64,7.35-8.37,23.46-16.29,33.29-21.18,17.89-11.94,35.06-22.54,55.33-25.82,15.9-7.08,9.9-5.67,24.63-9.17,12.76-3,6.58-11.58,15.4-11.53C480.23,308,445.26,330.46,442.23,332.4Z"/><path class="cls-14" d="M260.75,375.13s-70.71,4.71-95.23-2.42c-.52-.16-2.39-8.07-2.39-8.07l-1.21-5.51-5.21-10.93-5-22.94-.56-2.49L149,313.26l-5.19-23.59-.12-.53,2.12-2.4h0l7.43-8.38h0l3.61-4.08-7-4.13,4.44-6.55,0-.08.71-1,28.65-42.17,21.53,34.22,7.45,11.83.82,1.3,0,.09,2.92,4.63-8.59,3.33,14,15.25,8.44,9.11-11.13,2.86,24,28.74,2.91,3.5-17.25,3.65Z"/><path class="cls-15" d="M94,387.18l20.57-26.65-14.53-4.84,12.64-17.82,4.32-7.62-10.9-3.63,9.46-13.18,9.7-13.51,2-2.77,12.77-17.78,4.14,6.13,7.14,10.56,2.56,3.79,1.06,2.05,16.59,24.71L164,328.51l-3.35.53,20.59,29.07-15.75,3.63L187.3,389.6s-22.6,3.76-40.14,4.52C115.31,395.51,94,387.18,94,387.18Z"/></g><path class="cls-16" d="M268.26,231.78c-2.15,5.36-12.86-4.87-18-7.46-4-2-12.29-10.62-14.51-14.51s-4.07-11.79-7.86-14.2c-21.66-13.76-20.19-29.21-20.19-29.21s4.71,4.67,6.32,5.84a64.05,64.05,0,0,0,7.11,3.51s.07,3.22,1.09,4c3.5,2.84,10,7.72,13.16,11,4.44,4.59,12.71,15.78,17.16,20.38C256.41,215.14,270.33,226.6,268.26,231.78Z"/><path class="cls-17" d="M321.87,339.64a.31.31,0,0,0,.23-.58c-8.84-4.52-41.15-19.4-74.58-14.65a108.18,108.18,0,0,0-20.94,4.94l8.51,5.18c17-5.57,24-4.78,33.08-2.38S288.91,331.22,321.87,339.64Z"/><path class="cls-18" d="M539.43,407.47a.18.18,0,0,0,0-.35c-5.48-1.34-25.27-5.31-42.91,1.88a60,60,0,0,0-10.77,5.61s17.83-4.17,23.17-4.06S520.19,407.22,539.43,407.47Z"/><path class="cls-18" d="M110.11,385.2a.18.18,0,0,0,0-.36c-5.48-1.33-25.27-5.3-42.91,1.89a59.35,59.35,0,0,0-10.77,5.61s17.83-4.18,23.17-4.06S90.87,384.94,110.11,385.2Z"/><circle class="cls-19" cx="316.58" cy="304.8" r="290.85"/><path class="cls-20" d="M622.64,453.87l-4,66c0,11.75-2,25.51-14.24,27.22l-45.18-.77L75.26,542.81l-41.45-.74c-13.69-2.35-15.12-17.53-16.8-35l-1.22-53.44c-1.36-14,3.16-28.42,14.19-28.42h1l218.69.75,168.88.59,175.77.59,10.36,0C615.74,427.18,624.23,439.79,622.64,453.87Z"/><path class="cls-21" d="M75.32,508.24a1.41,1.41,0,0,1-1-.45c-.09-.12-.18-.25-.26-.38l-.26-.39a7,7,0,0,1-.58-2.83L73,502.64c-.13-.6-.24-1.2-.32-1.8a8,8,0,0,0-.46-1.74L71.84,498a1.09,1.09,0,0,0,0-.26,2.77,2.77,0,0,0-.1-.26l-1-3.41a1.31,1.31,0,0,1-.09-.33.65.65,0,0,0-.16-.32,3.19,3.19,0,0,1-.29-.8c-.07-.28-.14-.57-.23-.87s-.09-.42-.13-.61a4.33,4.33,0,0,0-.19-.62,1.12,1.12,0,0,0-.26-.48c-.09-.06-.28-.05-.58,0a4.69,4.69,0,0,1-.67.1,2.5,2.5,0,0,0-.68.16,4.31,4.31,0,0,1-.61.1c-.24,0-.46.05-.68.09l-.9.2a6.61,6.61,0,0,0-.68.16,2.72,2.72,0,0,1-.67.1l-1.16.19-1.1.26-1.09.25a25.81,25.81,0,0,1-3.09.58c-.35.09-.54.24-.58.45a.06.06,0,0,0-.07.07,20,20,0,0,1-.87,2l-1,2a5.12,5.12,0,0,0-.23.48,5.12,5.12,0,0,1-.23.48c0,.09-.08.18-.12.29l-.13.29a1.63,1.63,0,0,0-.39,1.1,2.34,2.34,0,0,1-.26.74c-.13.23-.25.46-.38.67a.26.26,0,0,1-.26.2,2.18,2.18,0,0,0-.52.19c-.17.09-.36.17-.58.26a.62.62,0,0,1-.38,0l-.29-.16a.56.56,0,0,0-.29-.1,1.18,1.18,0,0,1-1-.84,7.53,7.53,0,0,1-.71-2.06.68.68,0,0,1,0-.45,2.14,2.14,0,0,0,.16-.39.92.92,0,0,0,.45-.57v-.07a3.59,3.59,0,0,1,.36-1.58c.23-.49.44-1,.61-1.45a5.48,5.48,0,0,1,.32-.77l.39-.77a6.86,6.86,0,0,0,.42-.87c.1-.28.2-.57.29-.87a1.35,1.35,0,0,0,0-1,2.18,2.18,0,0,1-.13-.74,4.91,4.91,0,0,1,.06-.74,1.64,1.64,0,0,1,.52-1.22,3.14,3.14,0,0,1,.54-.55,5.11,5.11,0,0,0,.55-.48,3.78,3.78,0,0,0,.9-1.55,16.22,16.22,0,0,0,.42-1.7q.16-.87.36-1.71c.08-.56.18-1.11.29-1.64s.22-1.07.35-1.58a4.92,4.92,0,0,1,.16-.61,5.35,5.35,0,0,0,.16-.55c.13-.34.26-.68.39-1a4.2,4.2,0,0,0,.26-1,.45.45,0,0,0,0-.45.94.94,0,0,1,0-.58,5,5,0,0,0,.16-.51,5.06,5.06,0,0,0,.29-.91,4.7,4.7,0,0,1,.29-.9c.21-.55.4-1,.55-1.38a9.34,9.34,0,0,0,.41-1.26c.09-.25.19-.5.29-.74a2.66,2.66,0,0,0,.23-.74,9,9,0,0,0,.32-1.19,5.49,5.49,0,0,0,.13-1.19A2.55,2.55,0,0,1,60,464a3.71,3.71,0,0,1,.8-1.09c.33-.3.64-.6.94-.91a3.62,3.62,0,0,1,.64-.29.8.8,0,0,1,.65.1,1,1,0,0,0,.32.13,1.21,1.21,0,0,1,1,.26A2.69,2.69,0,0,1,65,463a.85.85,0,0,1,.19.32,2.1,2.1,0,0,0,.13.32,2,2,0,0,1,.32,1,2.13,2.13,0,0,0,.07.55c0,.2.08.4.13.61a.61.61,0,0,0,.57.39.09.09,0,0,1,.13,0,.17.17,0,0,1,.07.13.88.88,0,0,1,.19.84,2.08,2.08,0,0,0,0,1c.06.33.14.66.22,1s.35.86.52,1.29l.51,1.29c.22.47.43.94.65,1.42s.41.94.58,1.41.44,1.21.67,1.81.51,1.2.81,1.8l.19.71c0,.17.1.34.16.51a3.84,3.84,0,0,1,.16.52,3.21,3.21,0,0,1,.23.38,1.14,1.14,0,0,0,.23.33,2.09,2.09,0,0,1,.38,1,3.61,3.61,0,0,0,.58,1.16.45.45,0,0,0,.39.2c.64-.09,1.29-.17,1.93-.23a11.87,11.87,0,0,0,1.93-.35,5.15,5.15,0,0,1,1.36-.2,3.5,3.5,0,0,1,2.25.84,3.21,3.21,0,0,1,1.29,2.45,1.78,1.78,0,0,0,.06.51,1,1,0,0,1-.26.71,1.29,1.29,0,0,1-.22.39,3.2,3.2,0,0,0-.29.38,1.64,1.64,0,0,1-.26.39l-.39.32a1.29,1.29,0,0,1-.19.29.73.73,0,0,1-.32.23,3.84,3.84,0,0,0-.52.16,1.72,1.72,0,0,1-.58.09,6.32,6.32,0,0,1-2.06-.06h-1a.93.93,0,0,0-.38.13c-.18.09-.26.19-.26.32v.26a7.66,7.66,0,0,1,.29,1.19,3.82,3.82,0,0,0,.35,1.13,1.2,1.2,0,0,0,.13.51,6.52,6.52,0,0,1,.52,1.19,12.9,12.9,0,0,1,.32,1.26,1.82,1.82,0,0,0,.13.51,8,8,0,0,1,.32.94,6.32,6.32,0,0,1,.19,1,1.39,1.39,0,0,0,.2.71,5.74,5.74,0,0,1,.38,1.15,11.28,11.28,0,0,1,.2,1.23.32.32,0,0,1,.06.22.54.54,0,0,0,.07.29,6.37,6.37,0,0,1,.45,1.52c.08.53.19,1.06.32,1.57a3.63,3.63,0,0,1,.16.81q0,.42,0,.87a1.61,1.61,0,0,1-.19.71l-.2.19a.51.51,0,0,0-.45.45l-.19.39a.59.59,0,0,1-.39.32.61.61,0,0,0-.45.19,1,1,0,0,1-.71.26H76A3.63,3.63,0,0,0,75.32,508.24ZM59.8,484.87l.8-.13.93-.13c.22,0,.5-.09.84-.13l1-.13a4.73,4.73,0,0,1,.9-.16c.3,0,.6-.05.9-.1a4.4,4.4,0,0,1,.77-.16q.39,0,.78-.09c.38-.09.53-.3.45-.65a7.22,7.22,0,0,0-.23-1.06,1.92,1.92,0,0,0-.61-.93.53.53,0,0,1-.13-.39v-.19a9.73,9.73,0,0,0-.29-1c-.11-.32-.22-.63-.35-.94s-.19-.65-.29-.93-.23-.57-.36-.87l-.77-2.32c-.13-.3-.25-.6-.35-.9s-.21-.6-.29-.9l-.2-.26h-.19l-.13.2c-.21.64-.46,1.28-.74,1.93a16.59,16.59,0,0,0-.74,2.06,1.16,1.16,0,0,1-.06.32c0,.13-.09.26-.13.39a13.6,13.6,0,0,0-.49,1.41,12.34,12.34,0,0,0-.35,1.55c0,.3-.09.59-.13.87a7.6,7.6,0,0,1-.19.87l-.58,2.51s0,.1.06.16A.45.45,0,0,0,59.8,484.87Z"/><path class="cls-21" d="M93.86,504.45a2.5,2.5,0,0,1-1.09-.33,1.49,1.49,0,0,1-.52-.51c0-.13-.15-.13-.32,0a.24.24,0,0,1-.32,0,1,1,0,0,0-.39-.26c-.17,0-.25-.06-.25-.19a.72.72,0,0,0-.07-.32.44.44,0,0,0-.13-.33.79.79,0,0,1-.51-.64l-.13-.35a2.12,2.12,0,0,0-.19-.36,1,1,0,0,1-.13-.45,2.13,2.13,0,0,1-.1-.35,1.11,1.11,0,0,0-.16-.36,2.65,2.65,0,0,0-.26-.84,4.09,4.09,0,0,1-.32-.83,1.55,1.55,0,0,1-.13-.71,5.68,5.68,0,0,1,.39-2.13,1.6,1.6,0,0,0,.19-1.16.89.89,0,0,1,0-.51.77.77,0,0,0,0-.52q-.06-.26-.09-.45a3,3,0,0,1,0-.45.61.61,0,0,1-.07-.32v-.8a3,3,0,0,0-.13-.87,2.14,2.14,0,0,1-.06-.58v-2.39c0-.55-.11-1.11-.19-1.67s-.2-1.12-.33-1.68a2.53,2.53,0,0,0,0-.38,2.56,2.56,0,0,1,0-.39,8.73,8.73,0,0,0-.45-2.77V480a1.5,1.5,0,0,0-.13-1.09,3.18,3.18,0,0,1-.07-.71v-.06q0-.64,0-1.29a9.26,9.26,0,0,1,0-1.29,11.14,11.14,0,0,0,0-2.45v-1a7.54,7.54,0,0,0-.06-1v-.38a1.53,1.53,0,0,0,.13-.58v-.52c0-.51,0-1,0-1.51a13.68,13.68,0,0,0-.16-1.45v-.42a1.42,1.42,0,0,0-.07-.42,1.07,1.07,0,0,0-.32-.77l-.45-.39a1.81,1.81,0,0,1-.84-1.22.52.52,0,0,1-.06-.22.59.59,0,0,0-.07-.23.51.51,0,0,1,.13-.58,1.37,1.37,0,0,0,.26-.51.81.81,0,0,1,.06-.33,1.74,1.74,0,0,0,.2-.38l.13-.45c.08-.13.15-.18.19-.13a1.25,1.25,0,0,0,.64-.13,1,1,0,0,1,1-.13.5.5,0,0,0,.39-.06s.06,0,.06-.07a1.12,1.12,0,0,1,.71-.35,3.93,3.93,0,0,1,.83,0,.28.28,0,0,1,.13,0l.13,0,1,.23a2.92,2.92,0,0,0,.93,0,3.27,3.27,0,0,1,.68.07,4.08,4.08,0,0,0,.68.06,1.86,1.86,0,0,1,.48.06l.42.13a3.33,3.33,0,0,1,.45.16.93.93,0,0,0,.45.1l.55.13a3,3,0,0,1,.48.19q.84.45,1.68.84a2.85,2.85,0,0,1,.7.51,2,2,0,0,0,.78.39l.13,0a.19.19,0,0,0,.12,0,.22.22,0,0,0,.13.06.18.18,0,0,1,.13.06,2.07,2.07,0,0,0,.81.49,2.06,2.06,0,0,1,.8.48,1.64,1.64,0,0,0,.39.26,2.53,2.53,0,0,1,.9.58c.09.08.15.13.19.13a.86.86,0,0,1,.58.32l1.36,1.42a3.25,3.25,0,0,1,.38.45,6.33,6.33,0,0,0,.71.83l.77.78.29.29a.79.79,0,0,1,.23.35.59.59,0,0,0,.19.23.56.56,0,0,1,.19.22c.48.52.94,1.05,1.39,1.61a21.36,21.36,0,0,1,1.26,1.74,7.06,7.06,0,0,1,.57,1,8.54,8.54,0,0,1,.46,1c.12.3.26.6.41.9s.29.6.42.9a9.7,9.7,0,0,0,.45,1.29c.17.56.35,1.09.52,1.61a16.07,16.07,0,0,1,.45,1.67l.19.84c0,.34,0,.7,0,1.06s0,.74,0,1.13a3,3,0,0,1,0,.45,1.83,1.83,0,0,1-.17.45,2.45,2.45,0,0,0-.12.71,4.83,4.83,0,0,1-.29,1.22c-.16.39-.32.76-.49,1.1-.38.69-.73,1.37-1,2.06-.08.17-.16.33-.22.48s-.14.31-.23.49l-.39.77a13.58,13.58,0,0,1-1.06,1.77,16.32,16.32,0,0,1-1.32,1.64,3.52,3.52,0,0,1-.61.61c-.24.2-.46.4-.68.62l-1.28,1.12c-.43.37-.88.72-1.36,1.06a15.43,15.43,0,0,1-1.32.84,8.3,8.3,0,0,1-1.45.65,1.68,1.68,0,0,0-.77.38l-.8.52c-.28.17-.57.36-.87.58a2.14,2.14,0,0,0-.39.16,2.36,2.36,0,0,1-.45.16l-.42.13-.42.13a1.66,1.66,0,0,0-.48.19,2.12,2.12,0,0,0-.42.32,4.86,4.86,0,0,1-1,.55,8,8,0,0,0-1,.55,1.14,1.14,0,0,1-.45.06.82.82,0,0,1-.38,0,2.56,2.56,0,0,0-.39,0v.07Zm2.58-7.22a2.24,2.24,0,0,0,1.1-.25,6.07,6.07,0,0,0,1-.46,5.45,5.45,0,0,0,.84-.58l.77-.77a11.32,11.32,0,0,0,1.19-1.09,7.71,7.71,0,0,1,1.19-1l.13-.13.49-.49a3.72,3.72,0,0,0,.41-.48l.33-.32a1.66,1.66,0,0,0,.25-.32,2.63,2.63,0,0,1,.71-.78.75.75,0,0,0,.39-.38,3,3,0,0,1,.35-.65,4.55,4.55,0,0,1,.49-.58,4.51,4.51,0,0,0,.64-1.15l.26-.65a4.21,4.21,0,0,0,.38-1.67,1.75,1.75,0,0,0,.07-.58,8.65,8.65,0,0,0-.13-2.06c0-.22-.09-.43-.13-.65a5.25,5.25,0,0,0-.16-1.06,1.08,1.08,0,0,0-.16-.42,2.11,2.11,0,0,1-.19-.51c-.05-.18-.09-.35-.13-.52a2.44,2.44,0,0,0-.13-.8c-.09-.24-.17-.49-.26-.74l-.39-.81a8.18,8.18,0,0,1-.32-.87l-.06-.26a1.77,1.77,0,0,1-.29-.54,4,4,0,0,0-.23-.55c-.17-.39-.33-.77-.48-1.16a6.28,6.28,0,0,0-.55-1.1c-.21-.38-.44-.77-.67-1.16a5,5,0,0,0-.87-1,18.94,18.94,0,0,0-3.42-2.89,6.21,6.21,0,0,0-2.32-1.1,9.61,9.61,0,0,0-1-.22c-.38-.07-.75-.12-1.09-.17a.44.44,0,0,0-.32.13.8.8,0,0,0-.32.65c0,.3,0,.61,0,.93s0,.66,0,1a3.21,3.21,0,0,1-.06,1.48,3,3,0,0,0-.1.52,2,2,0,0,0,0,.58.78.78,0,0,1-.06.7,1,1,0,0,0,0,.84,2.14,2.14,0,0,1,.13,1.29,3.09,3.09,0,0,0,0,1.54,5.16,5.16,0,0,1,.09.52,2,2,0,0,1,0,.58,9.78,9.78,0,0,0,.1,1.42c.06.47.11.94.16,1.41a.92.92,0,0,0,.13.39v1a1.06,1.06,0,0,1,0,.29.41.41,0,0,0,0,.29c.08.34.16.7.22,1.06s.14.72.23,1.07a.88.88,0,0,0,.06.29,1,1,0,0,1,.07.35,6.8,6.8,0,0,0,.06.9c0,.3.09.62.13,1,.13,1.2.32,2.42.58,3.67a6.51,6.51,0,0,1,.19,1.61v.42a1.16,1.16,0,0,0,.07.42,3.5,3.5,0,0,1,.13.9v.9a1.39,1.39,0,0,1,0,.32.47.47,0,0,0,0,.32,1.81,1.81,0,0,1,.13.61v.62a2.26,2.26,0,0,0,.12.64C96.05,497.13,96.18,497.23,96.44,497.23Z"/><path class="cls-21" d="M135.47,505.48a3.21,3.21,0,0,1-2-.91,5.36,5.36,0,0,1-1.42-2.51,13.22,13.22,0,0,0-.77-2.51l-1-2.57c-.26-.69-.52-1.36-.78-2s-.51-1.29-.77-1.93l-.39-1.1c-.08-.17-.16-.33-.22-.48s-.14-.31-.23-.48-.18-.44-.29-.68a7.24,7.24,0,0,0-.35-.68l-.52-1.41c-.17-.48-.36-1-.58-1.42l-.13-.29a1.58,1.58,0,0,0-.19-.36l-.8-1.83c-.28-.62-.57-1.26-.87-1.9L122.26,478q-.45-1.1-.93-2.19t-.93-2.19l-.39-1.1-.13-.39a1.92,1.92,0,0,0-.19-.38.51.51,0,0,0-.07-.26.49.49,0,0,1-.06-.19,5.93,5.93,0,0,0-.35-1c-.16-.32-.32-.63-.49-.93l-.32-.71a3.2,3.2,0,0,0-.16-.39,2.65,2.65,0,0,0-.23-.39,2.73,2.73,0,0,0,.07-.64,2.58,2.58,0,0,1,.06-.58,6.54,6.54,0,0,1,.26-1,6.58,6.58,0,0,1,.84-.67,1.27,1.27,0,0,1,.32-.2,1.11,1.11,0,0,1,.84-.25,1.29,1.29,0,0,0,.48-.1.71.71,0,0,1,.48,0,1.47,1.47,0,0,1,.52.06,2.47,2.47,0,0,0,.45.13,1,1,0,0,1,.77.52l.13.12.13.13a2.3,2.3,0,0,1,.84,1.48c.08.31.18.62.29.94a9.38,9.38,0,0,0,.35.93c.21.48.43,1,.64,1.48s.41,1,.58,1.48.51,1.12.74,1.68l.75,1.74.64,1.45c.21.49.41,1,.58,1.45s.33.69.48,1.06.29.74.42,1.13l.07.25q.51,1,.93,2.1c.28.71.57,1.42.87,2.15a1.75,1.75,0,0,1,.19.39l.13.39a2,2,0,0,1,.42.64l.29.71c.13.34.26.68.39,1a9.45,9.45,0,0,0,.45,1,2.9,2.9,0,0,0,.35.8l.48.74a.22.22,0,0,0,.26-.06l.48-1c.15-.32.29-.66.42-1s.27-.76.42-1.13.29-.74.42-1.12c0,0,0-.07,0-.07s0,0,0-.06c.22-.65.43-1.29.65-1.93s.41-1.29.58-1.94l1-3.6.78-3c.25-1,.53-1.95.83-2.89a3.66,3.66,0,0,1,.17-.58c.06-.17.11-.35.16-.52l1.35-3.35a4.05,4.05,0,0,1,.26-.55,1.85,1.85,0,0,0,.19-.48,5.45,5.45,0,0,0,.52-1.09c.12-.39.25-.78.38-1.16,0-.17.09-.33.13-.48a1,1,0,0,0,0-.49,1.06,1.06,0,0,1,.06-.58l.39-.9a2.34,2.34,0,0,1,1.35-1.42,6.5,6.5,0,0,1,.65-.32.62.62,0,0,1,.64-.13l.87.13a5.33,5.33,0,0,1,.81.2,1.4,1.4,0,0,1,.77.64,1.07,1.07,0,0,1,.19.26l.13.25.19.52.23.22a.44.44,0,0,1,.1.29,3.68,3.68,0,0,0,0,.49,4.22,4.22,0,0,1,0,.55,17.12,17.12,0,0,1-.77,2.44,3.71,3.71,0,0,1-.2.55c-.08.19-.17.4-.25.61a.24.24,0,0,0-.07.19,10.65,10.65,0,0,0-.74,1.71c-.19.58-.42,1.17-.67,1.77-.18.43-.34.85-.49,1.26s-.31.83-.48,1.25a10.76,10.76,0,0,0-.42,1.29c-.11.43-.2.86-.29,1.29,0,.17-.09.33-.13.48a4.17,4.17,0,0,1-.13.42c-.13.56-.25,1.12-.38,1.68s-.28,1.11-.45,1.67a10.31,10.31,0,0,1-.33,1.22c-.12.39-.23.78-.32,1.16a.28.28,0,0,1,0,.13.35.35,0,0,0,0,.13,2.8,2.8,0,0,0-.36.77c-.06.26-.14.52-.22.78s-.18.52-.29.8-.23.55-.36.81a4.21,4.21,0,0,0-.51,1.74,1.1,1.1,0,0,0-.1.32.84.84,0,0,1-.16.38l-.77,1.94a4,4,0,0,0-.2.45c-.17.64-.34,1.3-.51,2s-.36,1.32-.58,2a13.93,13.93,0,0,0-.39,1.86c-.08.65-.17,1.27-.25,1.87a5.53,5.53,0,0,0,.06,1.93,3.88,3.88,0,0,1,.07.71v.71a1.61,1.61,0,0,1-.33,1.16,1.49,1.49,0,0,0-.25.51,2.6,2.6,0,0,1-2.07,1.42l-.38,0A2.89,2.89,0,0,1,135.47,505.48Z"/><path class="cls-21" d="M162.58,504a1.47,1.47,0,0,1-.52-.06,1.21,1.21,0,0,0-.61-.1,3.91,3.91,0,0,1-.61,0l-.13,0a.28.28,0,0,1-.13,0,6.58,6.58,0,0,1-.87.06,2.67,2.67,0,0,1-.8-.12.17.17,0,0,0-.13-.07.85.85,0,0,1-.77-.26c-.22-.21-.43-.4-.65-.58a1,1,0,0,1-.32-.7l-.19-.52a1.51,1.51,0,0,1-.13-.84.37.37,0,0,0,0-.25,1.22,1.22,0,0,1,0-.26.68.68,0,0,1-.06-.29.69.69,0,0,0-.07-.29,6.68,6.68,0,0,1-.16-1.19,7.79,7.79,0,0,1,0-1.19,7.49,7.49,0,0,1,.45-1.32c.26-.63.41-1,.45-1.13a1.14,1.14,0,0,0,.2-.52,9.92,9.92,0,0,1,0-1.45c0-.49,0-1,0-1.44a1.15,1.15,0,0,1,.19-.71,1.1,1.1,0,0,0,.06-1l-.19-.71a1,1,0,0,1,.07-1.22.15.15,0,0,1,0-.1.12.12,0,0,0,0-.09.33.33,0,0,0,.06-.36,1.49,1.49,0,0,1-.06-.35,1.6,1.6,0,0,1,.1-.55,1,1,0,0,0,0-.55l-.13-.13a1.17,1.17,0,0,1,0-.51q0-.39,0-.45v-1.81a3.23,3.23,0,0,0,.06-.61,3.46,3.46,0,0,1,.07-.61,3.6,3.6,0,0,0,0-.81c0-.27,0-.56,0-.86a7.14,7.14,0,0,1-.1-.71q0-.39,0-.78a.73.73,0,0,1-.06-.32V478a4.72,4.72,0,0,1-.1-.64c0-.22,0-.43,0-.65a5.56,5.56,0,0,0-.26-.87,2.74,2.74,0,0,1-.19-1.25.79.79,0,0,0,.06-.32A.44.44,0,0,0,157,474a.26.26,0,0,1-.13-.25v-.2a2.15,2.15,0,0,0-.19-1.54,1,1,0,0,1-.19-.78.83.83,0,0,0-.45-.77,3.31,3.31,0,0,1-.58-.77,2.53,2.53,0,0,1-.33-.9,3.57,3.57,0,0,1-.06-.65v-.58a.53.53,0,0,1,.06-.32.83.83,0,0,0,.26-.61,1.6,1.6,0,0,1,.07-.55.18.18,0,0,1,.13-.06.15.15,0,0,0,.12-.07c.18,0,.26-.19.26-.45a1.11,1.11,0,0,1-.13-.45.41.41,0,0,1,.2-.45c.08-.17.19-.21.32-.13a1.12,1.12,0,0,0,1-.13,1.42,1.42,0,0,1,.32-.13h.19a.73.73,0,0,1,.39-.06.79.79,0,0,0,.71-.26,1.48,1.48,0,0,1,1.09-.45h4c1,0,2,0,3,0s1.95-.06,2.9-.06a2.83,2.83,0,0,0,.54,0l.49-.09a1.93,1.93,0,0,1,.9-.2h1.48q.51,0,.93,0l.87-.09a1.76,1.76,0,0,1,.49-.07h1a2.24,2.24,0,0,0,.52-.06c.34,0,.71-.08,1.09-.1l1.1,0a3.64,3.64,0,0,0,.48,0l.49-.1a5.1,5.1,0,0,1,1-.16,9,9,0,0,0,.94-.1l1-.13.93-.13a2.12,2.12,0,0,1,.84.13,6.66,6.66,0,0,0,.74.45,2.89,2.89,0,0,1,.67.52,1.41,1.41,0,0,1,.33.45l.12.52c.05.17.09.36.13.57v.46c0,.21-.07.44-.09.67s-.06.48-.1.74a1.83,1.83,0,0,1-.32.45l-1.16,1.16a6.24,6.24,0,0,1-2.51.26h-.45a3.57,3.57,0,0,1-.65.06,3.47,3.47,0,0,1-.64-.06,3.33,3.33,0,0,0-.77,0l-.78,0a3.64,3.64,0,0,0-.48,0,1.32,1.32,0,0,1-.48,0,2.13,2.13,0,0,0-.61,0l-.62.09c-.17,0-.35,0-.55,0a5.79,5.79,0,0,1-.61,0,11.08,11.08,0,0,1-1.77.13,12.32,12.32,0,0,0-1.83.13,3.36,3.36,0,0,0-1.1,0c-.34.06-.71.12-1.09.16a9.61,9.61,0,0,1-1.1.06,4.79,4.79,0,0,0-1.09.13,5.31,5.31,0,0,0-1.26.16,7.63,7.63,0,0,1-1.25.23l-.45.06a3.65,3.65,0,0,0-.84.1c-.26.06-.54.14-.84.23a4.54,4.54,0,0,1-.51.09c-.18,0-.37.06-.58.1a1,1,0,0,0-.46.13c-.12,0-.19.17-.19.38l.19.58a1.21,1.21,0,0,1,0,.65c-.06.34-.12.6-.16.77a1.07,1.07,0,0,0,.07.39l.12.38a3.19,3.19,0,0,1,.2,1.13,4.49,4.49,0,0,0,.13,1.13,2.35,2.35,0,0,1,.06.54,2.74,2.74,0,0,0,.07.62,1.68,1.68,0,0,0,0,.29,1.83,1.83,0,0,1,0,.35.39.39,0,0,1-.06.26.93.93,0,0,0-.2.58v.64a2.8,2.8,0,0,1,.32,1.29v1.29c0,.13.11.17.33.13H163a1.64,1.64,0,0,1,.26-.39,1,1,0,0,0,.45-.13,1,1,0,0,1,.52-.13,2.78,2.78,0,0,0,1,0c.3-.06.6-.14.9-.22a32.68,32.68,0,0,0,5.67-2,10.46,10.46,0,0,1,1.48-.55,7.69,7.69,0,0,1,1.55-.29H175l1.16-.13a11.27,11.27,0,0,1,1.16-.06c.51,0,1-.11,1.51-.19s1-.15,1.52-.2l.83-.22a6,6,0,0,0,.84-.29,4.24,4.24,0,0,1,1.55-.33,4.81,4.81,0,0,1,1,.23,6.06,6.06,0,0,1,.9.42,2.15,2.15,0,0,1,1,1.93,5.14,5.14,0,0,1-.1,1,6.06,6.06,0,0,0-.09,1,.4.4,0,0,1-.13.26l-.2.32c0,.17-.08.35-.13.52a.55.55,0,0,1-.32.38l-.8.68a2.16,2.16,0,0,1-.94.48l-.48.13a1.85,1.85,0,0,1-.48.07,18.75,18.75,0,0,0-2.1.12l-2.15.26c-.56,0-1.11.11-1.65.2a11,11,0,0,1-1.64.12,5.51,5.51,0,0,0-1.74.33l-1.35.25c-.47.09-.94.15-1.42.2s-.69.09-1.06.16-.72.12-1.06.16l-1.1.19a.75.75,0,0,1-.38.07,7.21,7.21,0,0,1-.9.19,7.21,7.21,0,0,0-.9.19,5.55,5.55,0,0,0-.87.2l-.87.25a1.19,1.19,0,0,0-.52.23,1.23,1.23,0,0,0-.32.42.62.62,0,0,0,0,.38.73.73,0,0,1-.07.52c.05.43.08.86.1,1.29a9.26,9.26,0,0,1,0,1.29,3.57,3.57,0,0,1,.1,1c0,.34-.06.68-.1,1a2.43,2.43,0,0,0,.06,1.28,3,3,0,0,1-.13,1.74c-.08.26-.08.43,0,.52a.41.41,0,0,1,0,.45v.39c0,.34.11.51.46.51h.12a1.6,1.6,0,0,1,.91.32.73.73,0,0,0,.77.2l1.8-.2.77-.09c.26,0,.52,0,.78,0a.45.45,0,0,1,.38.07.57.57,0,0,0,.58.06.88.88,0,0,1,.36-.19.78.78,0,0,0,.35-.19,1,1,0,0,1,1-.26,1.07,1.07,0,0,0,.84-.07,2.46,2.46,0,0,1,1.09-.12,1.09,1.09,0,0,0,.64-.07,1.88,1.88,0,0,1,.65-.13.47.47,0,0,1,.19,0,.09.09,0,0,0,.13,0,.62.62,0,0,0,.26-.06.56.56,0,0,1,.19-.07,1.5,1.5,0,0,1,.84-.12H176a.79.79,0,0,1,.48,0,1.33,1.33,0,0,1,.42.19,1.86,1.86,0,0,1,.55.19,1.66,1.66,0,0,0,.48.19.3.3,0,0,1,.2.07,3.17,3.17,0,0,0,.8.45c.32.13.5.28.55.45a2.57,2.57,0,0,1,.13.74,4.81,4.81,0,0,0,.06.74,2.56,2.56,0,0,1,0,.39,1.64,1.64,0,0,1-.1.38c-.08.18-.18.37-.29.58a2,2,0,0,1-.42.58l-.22.26a2.68,2.68,0,0,1-.23.26,2.9,2.9,0,0,1-.58.45,1.33,1.33,0,0,1-.71.19.75.75,0,0,0-.38.07,1.25,1.25,0,0,1-.52.13h-.58l-.87.09a4.2,4.2,0,0,1-.86,0,.89.89,0,0,0-.46,0,2.54,2.54,0,0,1-1.28.06c-.43,0-.85,0-1.26,0l-1.19,0h-.84a.76.76,0,0,0-.32.06,1.31,1.31,0,0,1-.61.13,3.74,3.74,0,0,1-.68-.06h-.64l-.2,0a.37.37,0,0,1-.25,0,.65.65,0,0,0-.36,0l-.35.09a.8.8,0,0,0-.23,0,.51.51,0,0,1-.22,0,4.19,4.19,0,0,0-1.23,0Z"/><path class="cls-21" d="M215.84,504.12l-.42-.13-.42-.12a5.86,5.86,0,0,1-1-.52.76.76,0,0,1-.38-.39c-.31-.47-.58-.91-.84-1.32s-.54-.82-.84-1.25l-.58-1-.9-1.77-.9-1.71a3.49,3.49,0,0,0-.29-.55,2.92,2.92,0,0,1-.29-.48c-.3-.47-.58-1-.84-1.45s-.51-1-.77-1.45l-1.61-3.15q-.64-1.29-1.29-2.55c-.43-.84-.86-1.68-1.29-2.54a2,2,0,0,1-.26-.39,9.13,9.13,0,0,0-.61-1.35c-.23-.43-.46-.86-.67-1.29a5.68,5.68,0,0,1-.45-.93,8.1,8.1,0,0,0-.45-.94l-.71-1.28a.3.3,0,0,1-.2-.07.19.19,0,0,0-.06.13c0,.56-.09,1.14-.13,1.74a13.52,13.52,0,0,0,0,1.8,1.34,1.34,0,0,1,0,.84,6.3,6.3,0,0,0,.07,2.06,1.51,1.51,0,0,1,0,.52c0,.17-.06.36-.1.57a6.5,6.5,0,0,0-.06.84,6.48,6.48,0,0,1-.07.84,1.14,1.14,0,0,1,.13.55,2.35,2.35,0,0,1-.06.54,2.42,2.42,0,0,0,0,1.36.33.33,0,0,1,0,.38,2.42,2.42,0,0,0-.13,1.42,5.75,5.75,0,0,1-.13,2.38,1.16,1.16,0,0,0-.07.45.44.44,0,0,0,.13.45c.17.09.22.2.13.33a12.62,12.62,0,0,0,0,1.74.05.05,0,0,1-.06.06s-.07,0-.07-.06a.22.22,0,0,1-.06-.13c-.09-.09-.13-.07-.13.06a.73.73,0,0,0,.06.39,1.63,1.63,0,0,1,.13.64V500a2.56,2.56,0,0,1,0,.39.48.48,0,0,1-.23.32c-.17,0-.25.19-.25.45a2.25,2.25,0,0,1-.49,1.22,5.33,5.33,0,0,1-.93.91,1.25,1.25,0,0,1-.61.22,2.55,2.55,0,0,1-.68,0l-1.16-.39c-.08,0-.17-.06-.25-.19l-.39-.42a3,3,0,0,0-.45-.42,1,1,0,0,1-.45-.71,6.42,6.42,0,0,0-.2-.7,2.64,2.64,0,0,1-.12-.78c0-.3,0-.58,0-.83s0-.54,0-.84a3.4,3.4,0,0,0,.06-.61,3.26,3.26,0,0,1,.07-.61V473.4c0-.21,0-.43,0-.64a3,3,0,0,1,.1-.58c0-.21,0-.43,0-.64s0-.43,0-.65,0-.51,0-.77.06-.49.1-.71a2,2,0,0,0,.06-.45v-2.45a3.18,3.18,0,0,1,.1-.8,6.08,6.08,0,0,0,.16-.74l.2-.33a1.58,1.58,0,0,0,.32-.57c.08-.26.21-.39.38-.39a4,4,0,0,1,.39-.23.48.48,0,0,0,.26-.35l.06-.07a.31.31,0,0,0,.13,0,.31.31,0,0,1,.13,0,.64.64,0,0,0,.42-.13.49.49,0,0,1,.42-.06,2.22,2.22,0,0,0,.51.06,1.86,1.86,0,0,1,.52.07,2.57,2.57,0,0,1,2,1.67l.38,1.29a2.13,2.13,0,0,0,.58,1.22c.26.3.52.62.77,1s.54.69.84,1a32,32,0,0,1,3.09,4.76l.26.52c.08.17.17.34.26.51l3.35,6.77c.25.47.5,1,.74,1.45a13.84,13.84,0,0,0,.8,1.45c.09.17.17.33.26.48a2,2,0,0,1,.19.48,14.05,14.05,0,0,0,.78,1.55s.06,0,.06,0a.17.17,0,0,0,.13-.07l.19-2.25v-.65a6.73,6.73,0,0,0,.1-.67c0-.24,0-.46.09-.68a.94.94,0,0,0,0-.45,1.46,1.46,0,0,1,0-.51q0-.39,0-.81c0-.28.06-.55.1-.8a1.42,1.42,0,0,0,.06-.42v-2.16h-.06v-2.38a1.68,1.68,0,0,0-.13-.65,2,2,0,0,1-.07-.58l.07-.45a1.9,1.9,0,0,0,0-.35,2,2,0,0,1,0-.36.66.66,0,0,0-.06-.51,1.08,1.08,0,0,1-.13-.52,2.24,2.24,0,0,0,.07-.51v-.52c0-.17-.09-.25-.26-.25s-.07-.05-.07-.13a.47.47,0,0,1,0-.33,1.78,1.78,0,0,0,.13-.7v-2.64a1.6,1.6,0,0,1,.07-.78,3.5,3.5,0,0,1,.32-.71l.26-.38a9.15,9.15,0,0,1,.71-.65l.77-.64.26-.13.61-.13a1.56,1.56,0,0,1,.61,0,.82.82,0,0,1,.39.07,4.4,4.4,0,0,1,.51.29c.17.1.34.22.52.35a.37.37,0,0,1,.16.13.51.51,0,0,0,.09.13,1.09,1.09,0,0,1,.23.29c.06.11.12.2.16.29a1.1,1.1,0,0,1,.42.61c.06.24.12.46.16.68v2.7q0,.45,0,.87c0,.28.06.57.1.87a2.1,2.1,0,0,1,.06.48v.49c0,.34,0,.69,0,1.06s0,.72,0,1.06v.45q0,.45,0,.87a8.19,8.19,0,0,0,0,.87v2.83q0,.65,0,1.32a10.79,10.79,0,0,0,0,1.39,1,1,0,0,1-.06.39c0,.43-.07.84-.07,1.25s0,.83-.06,1.26v.58a3.47,3.47,0,0,1-.06.64,1.31,1.31,0,0,0,0,.52,4.38,4.38,0,0,1,0,.51,4.54,4.54,0,0,1,.09,1.16c0,.39,0,.77-.09,1.16,0,.69-.08,1.38-.1,2.09a14.32,14.32,0,0,0,.1,2.16c0,.17,0,.37,0,.58s0,.43,0,.64a7.69,7.69,0,0,0,.1,1.87c.1.6.22,1.2.35,1.81.09.43.17.84.26,1.25a12.31,12.31,0,0,1,.19,1.32.53.53,0,0,1-.06.32,2.55,2.55,0,0,0-.13.29.93.93,0,0,0-.07.29,2.27,2.27,0,0,1-.35,1c-.19.3-.4.6-.61.9A2.11,2.11,0,0,1,215.84,504.12Z"/><path class="cls-21" d="M239,503.48a1,1,0,0,0-.39-.07c-.08,0-.17-.06-.26-.19s-.17-.24-.25-.35a2,2,0,0,1-.26-.42c-.13-.17-.24-.17-.32,0h-.13a.17.17,0,0,0-.07-.13,6.47,6.47,0,0,0-.58-1.67c-.12-.35-.24-.7-.35-1.07a7,7,0,0,1-.23-1.12l-.38-2.84-.19-2.32v-.12a9.27,9.27,0,0,1-.13-1.58V490a5.24,5.24,0,0,1-.07-.86,6.58,6.58,0,0,0-.06-.87c0-.35-.08-.69-.1-1s0-.67,0-1l.06-5.09v-6.89c-.08-.26-.21-.39-.38-.39a1,1,0,0,0-.29,0l-.29,0-2.9.77c-.39.13-.77.25-1.16.36s-.77.22-1.16.35-.59.08-.87.1-.57,0-.87,0a1.35,1.35,0,0,1-.71-.26,2.46,2.46,0,0,1-.77-.51,8.91,8.91,0,0,1-.64-.71l-.13-.2c-.09-.3-.16-.59-.23-.86a2.58,2.58,0,0,1,0-.88,3.66,3.66,0,0,1,.29-1.09,2.56,2.56,0,0,1,.68-.9,2.07,2.07,0,0,0,.35-.32l.35-.39a1,1,0,0,1,.33-.13,1.5,1.5,0,0,0,.7-.16,2.38,2.38,0,0,1,.65-.22l.64-.13.65-.13,1.8-.49c.6-.15,1.2-.26,1.8-.35l3.48-.58a.56.56,0,0,1,.23-.06.21.21,0,0,0,.16-.07,5.41,5.41,0,0,1,.77-.19,1.67,1.67,0,0,1,.77.06.29.29,0,0,0,.23,0,.37.37,0,0,1,.16,0l2.19-.25c.73-.09,1.44-.2,2.12-.33l1.68-.25c.56-.09,1.11-.15,1.67-.2s.86-.15,1.29-.19l1.29-.13,1.06-.13,1.06-.13a5.66,5.66,0,0,1,1,0c.32,0,.66,0,1,0a1.06,1.06,0,0,1,.61.2c.2.13.38.23.55.32a7.56,7.56,0,0,1,.71.64,1.68,1.68,0,0,1,.26.58c0,.13.08.27.13.42s.08.31.12.48a1.6,1.6,0,0,1-.12,1.1l-.39.9a1.61,1.61,0,0,1-.16.35,1.34,1.34,0,0,1-.23.29l-.13.13-.54.39a1.85,1.85,0,0,1-.68.26l-2.77.19c-.26,0-.51,0-.77,0s-.54.06-.84.1h-.32c-.69,0-1.35.11-2,.19l-1.93.26-2.58.39a.38.38,0,0,0-.25.06c-.18,0-.3.13-.39.39v1.45c0,.4,0,.82.06,1.25a4.25,4.25,0,0,1,0,1.81,2.58,2.58,0,0,0-.09.35,1.59,1.59,0,0,0,0,.29,5.77,5.77,0,0,1-.13,1.67v.39a1.32,1.32,0,0,0,.06.39,2.49,2.49,0,0,1,.07.58v4c0,.17,0,.38,0,.61s0,.46,0,.68,0,.36,0,.58,0,.43,0,.64,0,.6,0,.9a5.35,5.35,0,0,1,0,1v2a.28.28,0,0,1,0,.12.23.23,0,0,0,0,.2,11.42,11.42,0,0,1,.06,1.19,5.23,5.23,0,0,0,.13,1.19,2.56,2.56,0,0,0,0,.39.83.83,0,0,1,0,.38,5.42,5.42,0,0,0,.13,1.19c.08.41.15.81.19,1.2s.18.94.29,1.41.2,1,.29,1.42l.19.9a.36.36,0,0,1-.19.32.21.21,0,0,0-.13.07c-.21.08-.3.21-.26.38v.33q-.06.12-.12.12a.62.62,0,0,0-.52.26,2.09,2.09,0,0,1-.42.42,2.18,2.18,0,0,1-.55.29A2.39,2.39,0,0,1,239,503.48Z"/><path class="cls-21" d="M272.45,504.19a.26.26,0,0,0-.2-.07l-1.25-.74a6.57,6.57,0,0,1-1.13-.8.68.68,0,0,1-.32-.26,4,4,0,0,1-1-.8,9,9,0,0,1-.84-1.07,1.79,1.79,0,0,1-.26-.32,2.2,2.2,0,0,0-.32-.39,4.78,4.78,0,0,1-1-1.54,1.75,1.75,0,0,0-.19-.39c-.09-.13-.17-.26-.26-.38a5,5,0,0,1-.58-1,4.71,4.71,0,0,0-.39-1q-.25-.48-.51-.93a2.78,2.78,0,0,0-.2-.52,2.64,2.64,0,0,1-.19-.51,1.58,1.58,0,0,0-.19-.71c-.17-.47-.33-1-.48-1.45s-.29-1-.42-1.51a1,1,0,0,1-.13-.39,8.27,8.27,0,0,1-.58-1.74q-.19-.9-.39-1.74l-.38-2.9a.61.61,0,0,1-.07-.32v-1.06a2.22,2.22,0,0,0-.13-.74,3.8,3.8,0,0,1,.07-1.55,3.64,3.64,0,0,1,0-.48,3.64,3.64,0,0,0,0-.48c0-.22,0-.44,0-.68a4.31,4.31,0,0,1,.1-.61,1.81,1.81,0,0,0,.06-.52,7.6,7.6,0,0,0,.17-1.12c0-.37,0-.72.09-1.07a8.21,8.21,0,0,0,.2-1.73,3.68,3.68,0,0,1,0-.49q0-.22.09-.48a4.11,4.11,0,0,0-.06-.84.77.77,0,0,1-.06-.71,1,1,0,0,0,.12-.38.59.59,0,0,0,.07-.29.23.23,0,0,1,.19-.23h.45c.17,0,.28-.06.32-.19a.64.64,0,0,1,.46-.39l.57-.22a2.07,2.07,0,0,0,.52-.29.77.77,0,0,1,.45-.13,2.37,2.37,0,0,1,.52.06l1.16.39s.07.06.09.06a.22.22,0,0,1,.1.07,5.26,5.26,0,0,1,.87,1.16,3.73,3.73,0,0,1,.42,1.41v.49a1.15,1.15,0,0,1-.13.48l-.13.77c0,.26-.09.54-.13.84a8,8,0,0,0-.16,1.26c0,.4,0,.82,0,1.25a1.69,1.69,0,0,0-.07.48,2.12,2.12,0,0,1-.06.49c-.05.51-.07,1-.07,1.54a8.76,8.76,0,0,0,.13,1.48.63.63,0,0,0,0,.2.35.35,0,0,1,0,.26,8.1,8.1,0,0,0,.13,1.35,13.63,13.63,0,0,1,.19,1.41c.05.43.09.84.13,1.23s.11.77.2,1.16a1.67,1.67,0,0,1,.16.51,4.71,4.71,0,0,0,.09.52c.18.81.37,1.61.58,2.38a18,18,0,0,0,.84,2.32,12.23,12.23,0,0,0,.64,1.22,17,17,0,0,1,.91,1.81q.25.45.51.87c.17.28.35.57.52.87s.34.4.51.58a7.36,7.36,0,0,1,.52.57.81.81,0,0,0,.83.2,1.43,1.43,0,0,0,.46-.26l.61-.39a3.74,3.74,0,0,0,.55-.45q.7-.7,1.32-1.41a9.23,9.23,0,0,0,1.06-1.55c.26-.47.51-1,.77-1.48s.49-1,.71-1.55.5-1.2.74-1.8.46-1.22.68-1.87a8.76,8.76,0,0,0,.41-1.32,9.14,9.14,0,0,0,.23-1.32c.09-.47.16-1,.23-1.45a7,7,0,0,0,0-1.45,2.43,2.43,0,0,1,0-.38,2.56,2.56,0,0,0,0-.39,2.3,2.3,0,0,0,.1-.84c0-.25-.06-.51-.1-.77,0-.73-.09-1.43-.16-2.09s-.12-1.34-.16-2a2.81,2.81,0,0,0-.06-.71c-.05-.39-.08-.77-.1-1.16a7.88,7.88,0,0,0-.16-1.16v-.51q0-.65,0-1.26c0-.41,0-.83,0-1.25s0-.66,0-.94,0-.57,0-.87a2.11,2.11,0,0,1,.19-1,.68.68,0,0,0,.13-.52.38.38,0,0,1,.19-.58,2.88,2.88,0,0,1,.68-.51,2.34,2.34,0,0,1,.81-.26.55.55,0,0,1,.22-.07.21.21,0,0,0,.16-.06,1.15,1.15,0,0,1,1-.19,1,1,0,0,0,.39.06,1.5,1.5,0,0,1,.84.45,3.68,3.68,0,0,0,.58.45,1.44,1.44,0,0,1,.7.65,2.52,2.52,0,0,1,.26.83c.09.43.16.84.23,1.23a4.92,4.92,0,0,1,0,1.22v.58q0,.64,0,1.26c0,.4.06.82.1,1.25a1.42,1.42,0,0,1,.06.42v.42c0,.26,0,.5,0,.74s.06.48.1.74a1,1,0,0,1,.07.39,4.34,4.34,0,0,0,0,1.25c.06.41.12.83.16,1.26s.07.88.1,1.35,0,.95,0,1.42a.2.2,0,0,1,0,.19,1.15,1.15,0,0,0,0,.26,2.85,2.85,0,0,0-.07,1.35,3.94,3.94,0,0,1-.06,1.61c0,.39-.09.77-.13,1.16s-.11.8-.19,1.22a12.78,12.78,0,0,1-.45,2.07c-.22.68-.43,1.37-.65,2.06a1.14,1.14,0,0,1-.19.45,8,8,0,0,0-.45.93,6.85,6.85,0,0,0-.32,1l-.2.45a13.25,13.25,0,0,0-.54,1.26c-.16.4-.34.82-.55,1.25l-.39.77a3.9,3.9,0,0,1-.45.71,1.07,1.07,0,0,1-.19.26,3.21,3.21,0,0,1-.39.84l-.51.77a13.43,13.43,0,0,1-1.65,2.06,16.63,16.63,0,0,1-2,1.8l-.77.46a14,14,0,0,1-1.9.77,11.68,11.68,0,0,1-2,.45,2.05,2.05,0,0,1-.7,0h-.39a.67.67,0,0,0-.39.13Z"/><path class="cls-21" d="M301.17,504.83a2.18,2.18,0,0,1-2-.77,7.16,7.16,0,0,1-.71-.84,4.42,4.42,0,0,1-.51-1c-.22-.61-.41-1.22-.58-1.84s-.32-1.23-.45-1.84a5.08,5.08,0,0,1-.2-1.35c0-.47-.09-.93-.16-1.38a10.47,10.47,0,0,1-.09-1.39v-.8a4.28,4.28,0,0,0-.07-.81,2,2,0,0,1-.06-.45v-2.28c0-.63,0-1.24-.07-1.84a6.61,6.61,0,0,0-.06-.93,3.42,3.42,0,0,0-.26-.87,2.7,2.7,0,0,1-.06-1.55.41.41,0,0,1,.06-.26,4.05,4.05,0,0,0,.16-.9,4.52,4.52,0,0,0,0-.9,3.47,3.47,0,0,1-.06-.64v-.58a10,10,0,0,1,0-1.45c0-.5.06-1,.1-1.45a1.34,1.34,0,0,0,.07-.39V478a5.11,5.11,0,0,1,0-1.36c.06-.42.12-.85.16-1.28s.17-1,.26-1.52.19-1,.32-1.51a2,2,0,0,0,.13-.71v-.77a4.73,4.73,0,0,0,0-.65c0-.21,0-.4,0-.58v-.38a1.07,1.07,0,0,1,.07-.39,1.32,1.32,0,0,0,.06-.39.33.33,0,0,1,.07-.25,5.81,5.81,0,0,0,.32-.49,1.34,1.34,0,0,1,.38-.42c.22-.12.42-.25.62-.38a4,4,0,0,1,.54-.32,1.55,1.55,0,0,0,.52-.33,7.76,7.76,0,0,1,.55-.61,2.72,2.72,0,0,0,.48-.67c.21-.22.44-.46.68-.74a2.87,2.87,0,0,1,.8-.68,1.86,1.86,0,0,0,.39-.32,3.5,3.5,0,0,1,1.8-.9,2.13,2.13,0,0,1,.35-.1,2,2,0,0,1,.36,0l.45-.2a.8.8,0,0,1,.9.2,1.21,1.21,0,0,0,.36.35l.41.29a11.4,11.4,0,0,1,1,1A6.89,6.89,0,0,1,309,465a18.19,18.19,0,0,1,1.13,2.06c.32.68.63,1.39.93,2.12l1.16,2.77a1.48,1.48,0,0,0,.32.71,9.07,9.07,0,0,1,.78,2c.17.66.34,1.34.51,2a1.72,1.72,0,0,1,.1.26,1.15,1.15,0,0,1,0,.26c.09.34.16.7.23,1.06a3.8,3.8,0,0,1,0,1.06,4.24,4.24,0,0,1,0,1.13c-.07.37-.14.72-.23,1.06a9.36,9.36,0,0,1-.45,1.2c-.17.36-.37.74-.58,1.12a1.86,1.86,0,0,1-.45.71,8.19,8.19,0,0,1-.64.58,4.1,4.1,0,0,0-1,.77.84.84,0,0,1-.29.2.85.85,0,0,0-.29.19l-1,.42c-.34.15-.69.29-1,.42,0,0-.07,0-.07.09a.22.22,0,0,0,.07.16l1.74,1.23.58.35.51.36.39.19c.51.3,1,.62,1.54,1s1,.68,1.49,1c.9.55,1.8,1.12,2.7,1.7a26.77,26.77,0,0,1,2.58,1.9,10.13,10.13,0,0,1,1.93,1.94,5.16,5.16,0,0,1,.39.41,1.33,1.33,0,0,0,.45.36l.19.19a3.5,3.5,0,0,1,1.16,2.45,2.34,2.34,0,0,1,0,.38,1.72,1.72,0,0,0,0,.39.9.9,0,0,1-.25.65c-.18.08-.26.19-.26.32a1.11,1.11,0,0,1-.55.61,3.13,3.13,0,0,0-.67.42,1.23,1.23,0,0,1-.46.06l-.8-.13A5.73,5.73,0,0,0,320,503a1.83,1.83,0,0,1-1.09-.45l-.71-.61a4.87,4.87,0,0,1-.64-.74,9.27,9.27,0,0,0-2.19-2.13l-1.23-1a8.54,8.54,0,0,0-1.28-.83,9.23,9.23,0,0,1-.87-.55,7.52,7.52,0,0,0-.94-.55c-1.07-.73-2.17-1.45-3.28-2.16s-2.23-1.42-3.35-2.15c-.17-.13-.37-.26-.58-.39l-.64-.39a1.65,1.65,0,0,0-.39-.25c-.17,0-.26.06-.26.19a.15.15,0,0,1,0,.1.12.12,0,0,0,0,.09v.39a1.32,1.32,0,0,0,.06.39,8.54,8.54,0,0,1,.07,1v1c0,.26,0,.51,0,.74s.05.49.09.74a2.12,2.12,0,0,0,0,.42,3.19,3.19,0,0,1,0,.42,3.78,3.78,0,0,0,.06,1.16,11.72,11.72,0,0,1,.2,1.16l.38,1.67c.05.18.09.36.13.55s.09.4.13.61a1.38,1.38,0,0,1,0,.49q0,.22-.09.48a.39.39,0,0,1-.13.19.61.61,0,0,0-.45.45,2.77,2.77,0,0,1-.55.81c-.24.23-.48.46-.74.67a.56.56,0,0,1-.26.13Zm2.51-22.54h.13c.47-.08.95-.18,1.45-.29a12.59,12.59,0,0,0,1.45-.42,2.65,2.65,0,0,0,1.22-.71,1.41,1.41,0,0,0,.45-1,4.27,4.27,0,0,0,0-.87,4,4,0,0,0-.16-.86c-.17-.78-.36-1.54-.58-2.29a16.72,16.72,0,0,0-.77-2.16l-.58-1.55c-.13-.42-.28-.84-.45-1.25a10.07,10.07,0,0,0-.58-1.19c0-.09-.09-.18-.13-.29a2,2,0,0,0-.13-.29l-.25-.26c-.13-.17-.28-.17-.46,0,0,0-.1,0-.19.13a8.83,8.83,0,0,0-.8,1.22,3.4,3.4,0,0,0-.42,1.42,3.06,3.06,0,0,0-.1.51,5.28,5.28,0,0,0,0,.59v2.76a16.56,16.56,0,0,0,0,1.87,10.41,10.41,0,0,1-.1,1.87.86.86,0,0,0,0,.39,2.34,2.34,0,0,1,0,.38,4.91,4.91,0,0,1,.06.74v.74c0,.43.06.69.17.78A1.39,1.39,0,0,0,303.68,482.29Z"/><path class="cls-21" d="M336.72,504a1.47,1.47,0,0,1-.52-.06,1.23,1.23,0,0,0-.61-.1,4,4,0,0,1-.61,0,.31.31,0,0,0-.13,0,.31.31,0,0,1-.13,0,6.58,6.58,0,0,1-.87.06,2.63,2.63,0,0,1-.8-.12.19.19,0,0,0-.13-.07.85.85,0,0,1-.77-.26c-.22-.21-.43-.4-.65-.58a1,1,0,0,1-.32-.7l-.19-.52a1.43,1.43,0,0,1-.13-.84.37.37,0,0,0,0-.25,1.22,1.22,0,0,1,0-.26.57.57,0,0,1-.07-.29.68.68,0,0,0-.06-.29,6.68,6.68,0,0,1-.16-1.19,7.79,7.79,0,0,1,0-1.19,6.72,6.72,0,0,1,.45-1.32c.26-.63.41-1,.45-1.13a1.1,1.1,0,0,0,.19-.52,11.58,11.58,0,0,1,0-1.45q0-.74,0-1.44a1.15,1.15,0,0,1,.2-.71,1.1,1.1,0,0,0,.06-1l-.19-.71a1,1,0,0,1,.06-1.22.12.12,0,0,1,0-.1.12.12,0,0,0,0-.09.37.37,0,0,0,.06-.36,1.49,1.49,0,0,1-.06-.35,1.86,1.86,0,0,1,.09-.55,1,1,0,0,0,0-.55l-.13-.13a.92.92,0,0,1,0-.51q0-.39,0-.45v-1.81a3.23,3.23,0,0,0,.06-.61,2.72,2.72,0,0,1,.07-.61,3.6,3.6,0,0,0,0-.81c0-.27,0-.56,0-.86a5.06,5.06,0,0,1-.1-.71q0-.39,0-.78a.61.61,0,0,1-.07-.32V478c0-.21-.07-.43-.09-.64a4.73,4.73,0,0,1,0-.65,5,5,0,0,0-.25-.87,2.76,2.76,0,0,1-.2-1.25.66.66,0,0,0,.07-.32.49.49,0,0,0-.13-.33.25.25,0,0,1-.13-.25v-.2a2.2,2.2,0,0,0-.19-1.54,1.05,1.05,0,0,1-.2-.78.83.83,0,0,0-.45-.77,3.61,3.61,0,0,1-.58-.77,2.5,2.5,0,0,1-.32-.9,3.57,3.57,0,0,1-.06-.65v-.58a.53.53,0,0,1,.06-.32.83.83,0,0,0,.26-.61,1.94,1.94,0,0,1,.06-.55.22.22,0,0,1,.13-.06.17.17,0,0,0,.13-.07c.17,0,.26-.19.26-.45A1,1,0,0,1,330,465a.42.42,0,0,1,.19-.45c.09-.17.2-.21.33-.13a1.12,1.12,0,0,0,1-.13,1.25,1.25,0,0,1,.32-.13h.19a.71.71,0,0,1,.39-.06.79.79,0,0,0,.71-.26,1.48,1.48,0,0,1,1.09-.45h4q1.49.06,3,0c1,0,1.95-.06,2.89-.06a2.88,2.88,0,0,0,.55,0l.48-.09a2,2,0,0,1,.91-.2h1.48q.51,0,.93,0l.87-.09a1.69,1.69,0,0,1,.48-.07h1a2.31,2.31,0,0,0,.52-.06c.34,0,.71-.08,1.09-.1l1.1,0a3.64,3.64,0,0,0,.48,0l.48-.1a5.32,5.32,0,0,1,1-.16c.32,0,.63-.05.94-.1l1-.13.94-.13a2.07,2.07,0,0,1,.83.13c.26.18.51.32.74.45a2.74,2.74,0,0,1,.68.52,1.22,1.22,0,0,1,.32.45c.05.17.09.34.13.52s.09.36.13.57v.46c0,.21-.07.44-.1.67s0,.48-.09.74a2.14,2.14,0,0,1-.32.45l-1.16,1.16a6.24,6.24,0,0,1-2.51.26h-.46a3.47,3.47,0,0,1-.64.06,3.39,3.39,0,0,1-.64-.06,3.4,3.4,0,0,0-.78,0c-.25,0-.51,0-.77,0a3.64,3.64,0,0,0-.48,0,1.39,1.39,0,0,1-.49,0,2.1,2.1,0,0,0-.61,0l-.61.09c-.17,0-.35,0-.55,0a5.79,5.79,0,0,1-.61,0,11.16,11.16,0,0,1-1.77.13,12.55,12.55,0,0,0-1.84.13,3.29,3.29,0,0,0-1.09,0c-.34.06-.71.12-1.09.16a9.61,9.61,0,0,1-1.1.06,4.87,4.87,0,0,0-1.1.13,5.29,5.29,0,0,0-1.25.16,7.56,7.56,0,0,1-1.26.23l-.45.06a3.56,3.56,0,0,0-.83.1c-.26.06-.54.14-.84.23a4.71,4.71,0,0,1-.52.09l-.58.1a1,1,0,0,0-.45.13c-.13,0-.19.17-.19.38l.19.58a1.33,1.33,0,0,1,0,.65c-.06.34-.12.6-.16.77a1.32,1.32,0,0,0,.06.39c.05.13.09.26.13.38a3.19,3.19,0,0,1,.2,1.13,5,5,0,0,0,.12,1.13,1.9,1.9,0,0,1,.07.54,3.42,3.42,0,0,0,.06.62,1.11,1.11,0,0,0,0,.29,1.83,1.83,0,0,1,0,.35c0,.13,0,.22-.07.26a.92.92,0,0,0-.19.58v.64a2.8,2.8,0,0,1,.32,1.29v1.29c0,.13.11.17.32.13h.07a1.39,1.39,0,0,1,.26-.39,1,1,0,0,0,.45-.13,1,1,0,0,1,.51-.13,2.83,2.83,0,0,0,1,0c.3-.06.6-.14.9-.22a32.68,32.68,0,0,0,5.67-2,10,10,0,0,1,1.48-.55,7.59,7.59,0,0,1,1.54-.29h.2l1.16-.13a11.12,11.12,0,0,1,1.16-.06c.51,0,1-.11,1.51-.19s1-.15,1.51-.2l.84-.22a6,6,0,0,0,.84-.29,4.19,4.19,0,0,1,1.54-.33,4.75,4.75,0,0,1,1,.23,6.06,6.06,0,0,1,.9.42,2.17,2.17,0,0,1,1,1.93,6,6,0,0,1-.1,1,6.09,6.09,0,0,0-.1,1,.36.36,0,0,1-.13.26l-.19.32c0,.17-.08.35-.13.52a.55.55,0,0,1-.32.38c-.26.22-.53.44-.8.68a2.22,2.22,0,0,1-.94.48l-.48.13a1.85,1.85,0,0,1-.48.07,18.75,18.75,0,0,0-2.1.12l-2.15.26c-.56,0-1.11.11-1.65.2a11,11,0,0,1-1.64.12,5.51,5.51,0,0,0-1.74.33l-1.35.25c-.47.09-.95.15-1.42.2s-.7.09-1.06.16-.72.12-1.06.16l-1.1.19a.75.75,0,0,1-.38.07,7.36,7.36,0,0,1-.91.19,7.21,7.21,0,0,0-.9.19,6.12,6.12,0,0,0-.87.2l-.87.25a1.2,1.2,0,0,0-.51.23,1.23,1.23,0,0,0-.32.42.5.5,0,0,0,0,.38.73.73,0,0,1-.07.52c0,.43.08.86.1,1.29a9.26,9.26,0,0,1,0,1.29,3.56,3.56,0,0,1,.09,1c0,.34-.05.68-.09,1a2.43,2.43,0,0,0,.06,1.28,3,3,0,0,1-.13,1.74c-.08.26-.08.43,0,.52a.41.41,0,0,1,0,.45v.39q-.06.51.45.51h.13a1.57,1.57,0,0,1,.9.32.75.75,0,0,0,.78.2l1.8-.2c.26,0,.51-.07.77-.09s.52,0,.77,0a.47.47,0,0,1,.39.07.57.57,0,0,0,.58.06.82.82,0,0,1,.36-.19.84.84,0,0,0,.35-.19,1,1,0,0,1,1-.26,1,1,0,0,0,.83-.07,2.51,2.51,0,0,1,1.1-.12,1.09,1.09,0,0,0,.64-.07,1.88,1.88,0,0,1,.65-.13.47.47,0,0,1,.19,0s.08,0,.13,0a.65.65,0,0,0,.26-.06.56.56,0,0,1,.19-.07,1.5,1.5,0,0,1,.84-.12h.32a.79.79,0,0,1,.48,0,1.33,1.33,0,0,1,.42.19,2,2,0,0,1,.55.19,1.66,1.66,0,0,0,.48.19.26.26,0,0,1,.19.07,3.43,3.43,0,0,0,.81.45c.32.13.5.28.55.45a2.54,2.54,0,0,1,.12.74,4.86,4.86,0,0,0,.07.74,2.56,2.56,0,0,1,0,.39,2.36,2.36,0,0,1-.1.38l-.29.58a2.21,2.21,0,0,1-.42.58l-.22.26a2.68,2.68,0,0,1-.23.26,2.9,2.9,0,0,1-.58.45,1.33,1.33,0,0,1-.71.19.75.75,0,0,0-.38.07,1.29,1.29,0,0,1-.52.13h-.58l-.87.09a4.27,4.27,0,0,1-.87,0,.86.86,0,0,0-.45,0,2.57,2.57,0,0,1-1.29.06c-.43,0-.84,0-1.25,0l-1.19,0H343a.73.73,0,0,0-.32.06,1.31,1.31,0,0,1-.61.13,3.66,3.66,0,0,1-.68-.06h-.64l-.2,0a.4.4,0,0,1-.26,0,.61.61,0,0,0-.35,0l-.35.09a.8.8,0,0,0-.23,0,.51.51,0,0,1-.22,0,4.19,4.19,0,0,0-1.23,0C337.55,503.83,337.15,503.91,336.72,504Z"/><path class="cls-21" d="M418.25,508.24a1.41,1.41,0,0,1-1-.45c-.09-.12-.17-.25-.26-.38s-.17-.26-.26-.39a7.19,7.19,0,0,1-.57-2.83l-.2-1.55c-.13-.6-.23-1.2-.32-1.8a8.56,8.56,0,0,0-.45-1.74l-.39-1.09a1.09,1.09,0,0,0,0-.26.93.93,0,0,0-.1-.26l-1-3.41a1,1,0,0,1-.1-.33.58.58,0,0,0-.16-.32,3.19,3.19,0,0,1-.29-.8c-.06-.28-.14-.57-.23-.87s-.08-.42-.12-.61a4.43,4.43,0,0,0-.2-.62,1.13,1.13,0,0,0-.25-.48c-.09-.06-.28-.05-.58,0a5.06,5.06,0,0,1-.68.1,2.59,2.59,0,0,0-.68.16,4.08,4.08,0,0,1-.61.1c-.23,0-.46.05-.68.09l-.9.2a6.45,6.45,0,0,0-.67.16,2.8,2.8,0,0,1-.68.1l-1.16.19-1.09.26-1.1.25a25.81,25.81,0,0,1-3.09.58c-.34.09-.54.24-.58.45,0,0-.06,0-.06.07-.26.69-.55,1.36-.87,2s-.66,1.34-1,2c-.09.17-.16.33-.23.48s-.14.31-.22.48a2,2,0,0,0-.13.29,2.73,2.73,0,0,1-.13.29,1.63,1.63,0,0,0-.39,1.1,2.31,2.31,0,0,1-.25.74c-.13.23-.26.46-.39.67a.26.26,0,0,1-.26.2,2.11,2.11,0,0,0-.51.19c-.17.09-.37.17-.58.26a.65.65,0,0,1-.39,0l-.29-.16a.53.53,0,0,0-.29-.1,1.21,1.21,0,0,1-1-.84,7.88,7.88,0,0,1-.71-2.06.68.68,0,0,1,0-.45,3.29,3.29,0,0,0,.17-.39,1,1,0,0,0,.45-.57v-.07a3.58,3.58,0,0,1,.35-1.58,13.61,13.61,0,0,0,.61-1.45c.09-.25.2-.51.32-.77l.39-.77a6.86,6.86,0,0,0,.42-.87c.11-.28.2-.57.29-.87a1.25,1.25,0,0,0,0-1,2.18,2.18,0,0,1-.13-.74,3.93,3.93,0,0,1,.07-.74,1.67,1.67,0,0,1,.51-1.22,2.86,2.86,0,0,1,.55-.55c.19-.15.37-.31.55-.48a4,4,0,0,0,.9-1.55,16.22,16.22,0,0,0,.42-1.7c.1-.58.22-1.15.35-1.71s.18-1.11.29-1.64.22-1.07.35-1.58c.05-.22.1-.42.16-.61s.12-.38.17-.55c.12-.34.25-.68.38-1a3.78,3.78,0,0,0,.26-1,.41.41,0,0,0,0-.45,1.12,1.12,0,0,1,0-.58,3.33,3.33,0,0,0,.16-.51,4.37,4.37,0,0,0,.29-.91,5.52,5.52,0,0,1,.29-.9c.22-.55.4-1,.55-1.38a10.91,10.91,0,0,0,.42-1.26,6.67,6.67,0,0,1,.29-.74,3,3,0,0,0,.22-.74,10.92,10.92,0,0,0,.33-1.19,6.16,6.16,0,0,0,.12-1.19,2.93,2.93,0,0,1,.26-.71,3.92,3.92,0,0,1,.81-1.09c.32-.3.63-.6.93-.91a4,4,0,0,1,.64-.29.8.8,0,0,1,.65.1,1,1,0,0,0,.32.13,1.23,1.23,0,0,1,1,.26,2.66,2.66,0,0,1,.64.77.74.74,0,0,1,.19.32c.05.13.09.24.13.32a1.92,1.92,0,0,1,.33,1,2.64,2.64,0,0,0,.06.55c0,.2.09.4.13.61a.62.62,0,0,0,.58.39.09.09,0,0,1,.13,0,.19.19,0,0,1,.06.13.85.85,0,0,1,.19.84,2.37,2.37,0,0,0,0,1c.07.33.14.66.23,1l.51,1.29.52,1.29c.21.47.43.94.64,1.42s.41.94.58,1.41.44,1.21.68,1.81.5,1.2.8,1.8l.2.71a3.33,3.33,0,0,0,.16.51c.06.18.12.35.16.52s.16.26.22.38a1.38,1.38,0,0,0,.23.33,2.22,2.22,0,0,1,.39,1,3.42,3.42,0,0,0,.58,1.16.42.42,0,0,0,.38.2c.65-.09,1.29-.17,1.93-.23a12,12,0,0,0,1.94-.35,5.08,5.08,0,0,1,1.35-.2,3.48,3.48,0,0,1,2.25.84,3.15,3.15,0,0,1,1.29,2.45,1.46,1.46,0,0,0,.07.51,1,1,0,0,1-.26.71,1.33,1.33,0,0,1-.23.39c-.11.13-.2.25-.29.38a1.39,1.39,0,0,1-.26.39l-.38.32a1.38,1.38,0,0,1-.2.29.68.68,0,0,1-.32.23,3.33,3.33,0,0,0-.51.16,1.81,1.81,0,0,1-.58.09,6.32,6.32,0,0,1-2.06-.06h-1a.92.92,0,0,0-.39.13c-.17.09-.26.19-.26.32v.26a6.67,6.67,0,0,1,.29,1.19,3.83,3.83,0,0,0,.36,1.13,1.07,1.07,0,0,0,.13.51,7.23,7.23,0,0,1,.51,1.19,10.56,10.56,0,0,1,.32,1.26,1.82,1.82,0,0,0,.13.51,6.51,6.51,0,0,1,.32.94,7.69,7.69,0,0,1,.2,1,1.38,1.38,0,0,0,.19.71,6.5,6.5,0,0,1,.39,1.15,11.32,11.32,0,0,1,.19,1.23.32.32,0,0,1,.06.22.54.54,0,0,0,.07.29,6.37,6.37,0,0,1,.45,1.52c.08.53.19,1.06.32,1.57a3.15,3.15,0,0,1,.16.81q0,.42,0,.87a1.61,1.61,0,0,1-.19.71l-.19.19a.49.49,0,0,0-.45.45l-.2.39a.55.55,0,0,1-.38.32.61.61,0,0,0-.45.19,1,1,0,0,1-.71.26h-.61A3.66,3.66,0,0,0,418.25,508.24Zm-15.52-23.37.8-.13.94-.13c.21,0,.49-.09.83-.13l1-.13a4.73,4.73,0,0,1,.9-.16c.3,0,.6-.05.9-.1a4.32,4.32,0,0,1,.78-.16l.77-.09c.39-.09.54-.3.45-.65a7.15,7.15,0,0,0-.22-1.06,1.94,1.94,0,0,0-.62-.93.57.57,0,0,1-.13-.39v-.19c-.08-.35-.18-.68-.28-1s-.23-.63-.36-.94a8.55,8.55,0,0,0-.29-.93c-.11-.28-.22-.57-.35-.87l-.78-2.32c-.12-.3-.24-.6-.35-.9s-.2-.6-.29-.9l-.19-.26H406l-.13.2c-.21.64-.46,1.28-.74,1.93a18.39,18.39,0,0,0-.74,2.06,1.16,1.16,0,0,1-.06.32c0,.13-.09.26-.13.39q-.25.64-.48,1.41a14.45,14.45,0,0,0-.36,1.55c0,.3-.08.59-.13.87a5.93,5.93,0,0,1-.19.87l-.58,2.51s0,.1.07.16A.43.43,0,0,0,402.73,484.87Z"/><path class="cls-21" d="M464.17,504.19a4.08,4.08,0,0,0-.77-.07,1.33,1.33,0,0,1-.71-.19,3.13,3.13,0,0,1-.84-.45,7.63,7.63,0,0,1-1.16-1.35l-.13-.32a.78.78,0,0,0-.19-.33c-.17-.38-.34-.77-.52-1.16s-.36-.77-.57-1.16l-.65-1.15-.64-1.16c-.22-.39-.43-.78-.65-1.16a11.59,11.59,0,0,1-.58-1.23l-.38-.64-.52-.9a3.85,3.85,0,0,1-.38-.9,3.2,3.2,0,0,0-.33-.58l-.58-1c-.12-.3-.27-.6-.41-.9a5.28,5.28,0,0,0-.55-.84l-.39-.58c-.69-1.11-1.33-2.27-1.93-3.48-.13-.25-.27-.51-.42-.77s-.31-.51-.48-.77a1.2,1.2,0,0,0-.23-.45c-.11-.13-.2-.26-.29-.39s-.19-.13-.32,0-.09.25-.13.36l-.13.35c-.17.47-.32.94-.45,1.42s-.26.94-.38,1.41a11,11,0,0,1-.33,1.23c-.12.38-.23.77-.32,1.16s-.09.59-.13.87a4.43,4.43,0,0,1-.19.8,1.83,1.83,0,0,1,0,.35,3.34,3.34,0,0,1-.1.36,11.84,11.84,0,0,0-.35,2c-.07.67-.14,1.35-.23,2V495a1.19,1.19,0,0,1,0,.45,2.74,2.74,0,0,1-.09.39,2.13,2.13,0,0,0-.07,1.16,4.59,4.59,0,0,1,.1.51,1.53,1.53,0,0,1,0,.52c-.05.43-.08.84-.1,1.25s0,.81,0,1.19a3.58,3.58,0,0,1-.2,1.16.56.56,0,0,1-.32.32,1.4,1.4,0,0,0-.32.45.56.56,0,0,1-.29.39,1.51,1.51,0,0,0-.35.26.3.3,0,0,1-.2.06c-.13,0-.21,0-.25.07a3,3,0,0,0-.36.13l-.29.12-.42,0-.41,0a4.21,4.21,0,0,1-1-.19,3.11,3.11,0,0,1-.9-.84,1.08,1.08,0,0,0-.19-.35c-.09-.11-.17-.23-.26-.36a2.91,2.91,0,0,1-.58-1.29,7.64,7.64,0,0,0-.35-1.8,16.53,16.53,0,0,0-.68-1.74,3.33,3.33,0,0,0-.16-.51,2.1,2.1,0,0,0-.22-.45c-.31-.69-.6-1.37-.87-2s-.57-1.34-.87-2a.17.17,0,0,1-.07-.13.19.19,0,0,0-.06-.13,8.87,8.87,0,0,1-.68-1.19c-.19-.41-.4-.83-.61-1.26a10.91,10.91,0,0,0-.84-1.48,3.14,3.14,0,0,0-.29-.58c-.11-.17-.2-.34-.29-.51a1.31,1.31,0,0,1-.09-.33.74.74,0,0,0-.16-.32,7,7,0,0,1-.87-1.54,14.25,14.25,0,0,0-.81-1.61l-.71-1.16c-.13-.22-.27-.43-.42-.65s-.29-.4-.41-.58a4.2,4.2,0,0,0-.39-.54,2,2,0,0,1-.32-.49l-.52-.74c-.17-.23-.32-.46-.45-.67s-.34-.51-.52-.74-.34-.46-.51-.68a8,8,0,0,1-.71-1.35,1.41,1.41,0,0,1,0-.58c.09-.35.16-.68.23-1s.14-.63.22-.93l.2-.26q.25-.26.48-.45l.48-.39a1.42,1.42,0,0,1,.32-.13,4.08,4.08,0,0,1,1.36-.26,2.77,2.77,0,0,1,1.28.33,3.91,3.91,0,0,1,.65.32,1.76,1.76,0,0,1,.9,1c.09.21.18.43.29.64a2.81,2.81,0,0,1,.23.65,10.61,10.61,0,0,0,1.41,2.57c.34.48.71,1,1.1,1.61a.46.46,0,0,1,.19.2.78.78,0,0,0,.13.19,6.22,6.22,0,0,1,.71,1c.21.39.41.75.58,1.1a7.49,7.49,0,0,1,.42.86c.1.28.22.57.35.87.34.78.66,1.55,1,2.32s.6,1.53.9,2.26a3.5,3.5,0,0,0,.32.71,3.19,3.19,0,0,1,.32.7s.07,0,.07,0,.12,0,.12-.06a2.41,2.41,0,0,0,.39-1l.58-2.06.26-.77.26-.84a10.46,10.46,0,0,0,.58-1.8,3.14,3.14,0,0,1,.38-1.1,1.32,1.32,0,0,0,.2-.7l.19-.65c.26-.77.51-1.54.77-2.32a17.91,17.91,0,0,1,.9-2.19l.39-.74c.13-.23.26-.46.39-.67a1.6,1.6,0,0,1,.32-.45.94.94,0,0,1,.45-.26,1,1,0,0,1,.58-.39,1.39,1.39,0,0,0,.58-.26.53.53,0,0,1,.32-.06,1,1,0,0,1,.45.13.55.55,0,0,0,.58-.07c.21-.17.41-.13.58.13a1.11,1.11,0,0,0,.35.42l.42.29.29.26a.73.73,0,0,1,.23.32l2.12,3.67.65,1.06c.21.37.41.75.58,1.13a3.16,3.16,0,0,1,.42.71c.1.26.22.54.35.84a10,10,0,0,0,1.09,2.06l.26.38a1.8,1.8,0,0,1,.2.39,15.58,15.58,0,0,0,.74,1.55c.27.51.54,1.05.8,1.61l.16.32c.07.13.12.23.16.32a12.93,12.93,0,0,0,.78,1.64c.3.54.6,1.07.9,1.58a1.64,1.64,0,0,0,.32.39c.09,0,.13,0,.13-.07a1.83,1.83,0,0,0,.19-.32c.13-.39.26-.76.39-1.13a5.36,5.36,0,0,0,.26-1.12,6.33,6.33,0,0,1,.25-.84c.22-.69.41-1.36.58-2s.35-1.34.52-2c.08-.26.17-.52.26-.8s.17-.55.25-.81q.39-1.35.78-2.67c.25-.88.49-1.77.7-2.67l.78-3.22a1.3,1.3,0,0,0,0-.78.43.43,0,0,1,.06-.51,2.46,2.46,0,0,0,.39-.71c.08-.26.17-.49.26-.71a13,13,0,0,1,.51-1.41,1.75,1.75,0,0,1,.19-.39,1.8,1.8,0,0,0,.2-.39.91.91,0,0,1,.58-.45,3.72,3.72,0,0,1,.38-.22,3.29,3.29,0,0,1,.39-.17.23.23,0,0,1,.16-.06.23.23,0,0,0,.16-.06,2.61,2.61,0,0,1,.68-.17,1.15,1.15,0,0,0,.61-.22.79.79,0,0,1,.9.06,10.2,10.2,0,0,1,.84.71,2.05,2.05,0,0,1,.51,1.16,1.07,1.07,0,0,1,.07.39v.38a12.41,12.41,0,0,1-.58,2.77c-.09.26-.17.53-.26.81s-.17.55-.26.8a.61.61,0,0,1,0,.17.73.73,0,0,0,0,.22,11.17,11.17,0,0,1-.32,2.06c-.18.69-.37,1.35-.58,2s-.32,1.11-.45,1.67-.28,1.12-.45,1.68a.91.91,0,0,0-.1.35.67.67,0,0,1-.16.36,2.5,2.5,0,0,0-.26.8,7.6,7.6,0,0,1-.19.87,3.17,3.17,0,0,0-.1.48,1.55,1.55,0,0,1-.16.49c-.13.47-.26.95-.39,1.45s-.23,1-.32,1.44l-.58,2.19c0,.18-.07.34-.09.49s-.06.31-.1.48a2.56,2.56,0,0,1,0,.39c0,.12-.06.28-.1.45s-.1.52-.16.8a7.88,7.88,0,0,0-.16.87c0,.3-.09.59-.13.87s-.09.59-.13.93a4.41,4.41,0,0,1,0,.52,5,5,0,0,0,0,.58l-.2,1.35a11.73,11.73,0,0,1-.06,1.22c-.05.39-.11.8-.19,1.23a.63.63,0,0,0-.07.32v.32a4,4,0,0,1-.45,1.29l-.26.39-.32.32a1.29,1.29,0,0,0-.39.22,3.2,3.2,0,0,1-.38.29A1.86,1.86,0,0,1,464.17,504.19Z"/><path class="cls-21" d="M504,508.24a1.4,1.4,0,0,1-1-.45c-.09-.12-.18-.25-.26-.38l-.26-.39a7,7,0,0,1-.58-2.83l-.19-1.55q-.2-.9-.33-1.8a7.42,7.42,0,0,0-.45-1.74l-.38-1.09a1.09,1.09,0,0,0,0-.26,2.77,2.77,0,0,0-.1-.26l-1-3.41a1.31,1.31,0,0,1-.09-.33.74.74,0,0,0-.16-.32,3.19,3.19,0,0,1-.29-.8c-.07-.28-.14-.57-.23-.87s-.09-.42-.13-.61a4.33,4.33,0,0,0-.19-.62,1.12,1.12,0,0,0-.26-.48c-.09-.06-.28-.05-.58,0a4.63,4.63,0,0,1-.68.1,2.52,2.52,0,0,0-.67.16,4.31,4.31,0,0,1-.61.1,6.6,6.6,0,0,0-.68.09l-.9.2a6.61,6.61,0,0,0-.68.16,2.72,2.72,0,0,1-.67.1l-1.16.19-1.1.26-1.09.25a25.81,25.81,0,0,1-3.09.58c-.35.09-.54.24-.58.45a.06.06,0,0,0-.07.07c-.26.69-.55,1.36-.87,2s-.65,1.34-1,2c-.08.17-.16.33-.22.48s-.14.31-.23.48l-.13.29a2.85,2.85,0,0,1-.12.29,1.63,1.63,0,0,0-.39,1.1,2.34,2.34,0,0,1-.26.74l-.38.67a.26.26,0,0,1-.26.2,2.18,2.18,0,0,0-.52.19c-.17.09-.36.17-.58.26a.62.62,0,0,1-.38,0l-.29-.16a.56.56,0,0,0-.29-.1,1.18,1.18,0,0,1-1-.84,7.53,7.53,0,0,1-.71-2.06.62.62,0,0,1,0-.45,3.2,3.2,0,0,0,.16-.39.92.92,0,0,0,.45-.57v-.07a3.59,3.59,0,0,1,.36-1.58c.23-.49.44-1,.61-1.45a5.48,5.48,0,0,1,.32-.77l.39-.77a6.86,6.86,0,0,0,.42-.87c.1-.28.2-.57.28-.87a1.25,1.25,0,0,0,0-1,2.43,2.43,0,0,1-.12-.74,4.91,4.91,0,0,1,.06-.74,1.64,1.64,0,0,1,.52-1.22,3.14,3.14,0,0,1,.54-.55,5.11,5.11,0,0,0,.55-.48,3.78,3.78,0,0,0,.9-1.55,16.22,16.22,0,0,0,.42-1.7c.11-.58.23-1.15.35-1.71s.19-1.11.3-1.64.22-1.07.35-1.58a4.92,4.92,0,0,1,.16-.61c.06-.2.12-.38.16-.55.13-.34.26-.68.39-1a4.2,4.2,0,0,0,.26-1,.45.45,0,0,0,0-.45.94.94,0,0,1,0-.58c.06-.17.11-.34.16-.51a5.06,5.06,0,0,0,.29-.91,4.7,4.7,0,0,1,.29-.9c.21-.55.39-1,.55-1.38a11,11,0,0,0,.41-1.26c.09-.25.19-.5.29-.74a2.66,2.66,0,0,0,.23-.74,10.91,10.91,0,0,0,.32-1.19,5.49,5.49,0,0,0,.13-1.19,2.55,2.55,0,0,1,.26-.71,3.71,3.71,0,0,1,.8-1.09c.32-.3.64-.6.94-.91a3.62,3.62,0,0,1,.64-.29.78.78,0,0,1,.64.1,1,1,0,0,0,.33.13,1.22,1.22,0,0,1,1,.26,2.86,2.86,0,0,1,.65.77.85.85,0,0,1,.19.32,2.1,2.1,0,0,0,.13.32,2,2,0,0,1,.32,1,2.13,2.13,0,0,0,.07.55l.12.61a.63.63,0,0,0,.58.39.09.09,0,0,1,.13,0,.21.21,0,0,1,.07.13.9.9,0,0,1,.19.84,2.08,2.08,0,0,0,0,1c.06.33.14.66.22,1l.52,1.29.51,1.29c.22.47.43.94.65,1.42s.41.94.58,1.41.44,1.21.67,1.81.51,1.2.81,1.8l.19.71a5,5,0,0,0,.16.51,3.84,3.84,0,0,1,.16.52c.09.13.16.26.23.38a1.36,1.36,0,0,0,.22.33,2,2,0,0,1,.39,1,3.61,3.61,0,0,0,.58,1.16.45.45,0,0,0,.39.2c.64-.09,1.29-.17,1.93-.23a11.87,11.87,0,0,0,1.93-.35,5.08,5.08,0,0,1,1.35-.2,3.5,3.5,0,0,1,2.26.84,3.21,3.21,0,0,1,1.29,2.45,1.78,1.78,0,0,0,.06.51,1,1,0,0,1-.26.71,1.29,1.29,0,0,1-.22.39,3.2,3.2,0,0,0-.29.38,2,2,0,0,1-.26.39l-.39.32a1.29,1.29,0,0,1-.19.29.73.73,0,0,1-.32.23,3.45,3.45,0,0,0-.52.16,1.72,1.72,0,0,1-.58.09,6.32,6.32,0,0,1-2.06-.06h-1a.93.93,0,0,0-.38.13c-.18.09-.26.19-.26.32v.26a7.66,7.66,0,0,1,.29,1.19,3.82,3.82,0,0,0,.35,1.13,1.07,1.07,0,0,0,.13.51,7.28,7.28,0,0,1,.52,1.19c.12.41.23.83.32,1.26a1.82,1.82,0,0,0,.13.51,8,8,0,0,1,.32.94,7.7,7.7,0,0,1,.19,1,1.48,1.48,0,0,0,.19.71,5.78,5.78,0,0,1,.39,1.15,9.31,9.31,0,0,1,.19,1.23.28.28,0,0,1,.07.22.65.65,0,0,0,.06.29,5.57,5.57,0,0,1,.45,1.52c.09.53.2,1.06.33,1.57a4.3,4.3,0,0,1,.16.81q0,.42,0,.87a1.61,1.61,0,0,1-.19.71l-.2.19a.5.5,0,0,0-.45.45l-.19.39a.59.59,0,0,1-.39.32.61.61,0,0,0-.45.19,1,1,0,0,1-.71.26h-.61A3.55,3.55,0,0,0,504,508.24Zm-15.53-23.37.81-.13.93-.13c.22,0,.5-.09.84-.13l1-.13a4.73,4.73,0,0,1,.9-.16c.3,0,.6-.05.9-.1a4.4,4.4,0,0,1,.77-.16q.39,0,.78-.09c.38-.09.53-.3.45-.65a7.22,7.22,0,0,0-.23-1.06,1.92,1.92,0,0,0-.61-.93.53.53,0,0,1-.13-.39v-.19c-.09-.35-.18-.68-.29-1s-.22-.63-.35-.94-.19-.65-.29-.93-.23-.57-.36-.87l-.77-2.32q-.19-.45-.36-.9c-.1-.3-.2-.6-.29-.9l-.19-.26h-.19l-.13.2c-.22.64-.46,1.28-.74,1.93a16.59,16.59,0,0,0-.74,2.06.93.93,0,0,1-.07.32l-.12.39a13.6,13.6,0,0,0-.49,1.41,12.34,12.34,0,0,0-.35,1.55c0,.3-.09.59-.13.87a7.6,7.6,0,0,1-.19.87l-.58,2.51c-.05,0,0,.1.06.16A.49.49,0,0,0,488.51,484.87Z"/><path class="cls-21" d="M520.71,504.19a1.16,1.16,0,0,1-.51-.07,3.72,3.72,0,0,0-.45-.19l-.39-.13a2,2,0,0,1-.35-.29,1.93,1.93,0,0,1-.29-.35.36.36,0,0,0-.26-.13.34.34,0,0,1-.39-.39c0-.26-.08-.51-.13-.77l-.12-.77c-.05-.39-.08-.78-.1-1.16a6.33,6.33,0,0,0-.16-1.1v-.58a3,3,0,0,0,0-.45,2,2,0,0,1,0-.45.57.57,0,0,1,0-.51,10,10,0,0,0,0-2.32,3.57,3.57,0,0,1-.06-.65,2.79,2.79,0,0,0-.07-.64v-1.32a7.2,7.2,0,0,0-.12-1.32v-1c0-.34,0-.67,0-1s-.05-.6-.09-.9-.08-.77-.1-1.16,0-.77-.1-1.16a1.14,1.14,0,0,1-.06-.45,6.73,6.73,0,0,1-.1-.67c0-.24,0-.47,0-.68l-.19-3.22c0-.34-.08-.68-.1-1s0-.63,0-.93c0-.52-.09-1-.13-1.55s-.09-1-.13-1.48a1.15,1.15,0,0,0,0-.26.89.89,0,0,1,0-.19c0-.52,0-1-.07-1.55s-.08-1-.13-1.61l-.19-1.8a7.6,7.6,0,0,1-.06-2.25,1.23,1.23,0,0,1,.45-1,.71.71,0,0,1,.19-.16.38.38,0,0,0,.13-.1c.21,0,.32-.19.32-.45,0-.08.09-.13.26-.13h.32a.15.15,0,0,0,.1,0,.12.12,0,0,1,.09,0,.94.94,0,0,0,.23-.16.24.24,0,0,1,.16-.1,1.15,1.15,0,0,1,.26,0,1.72,1.72,0,0,1,.26.1.27.27,0,0,0,.19-.06,1.28,1.28,0,0,1,.67,0,3.7,3.7,0,0,1,.62.22.81.81,0,0,1,.58.52c.13.38.24.76.35,1.12a7.3,7.3,0,0,1,.23,1.13v.52a3.59,3.59,0,0,1,.12.93v1c0,.3,0,.59,0,.87s0,.55.09.8v.39a1.07,1.07,0,0,0,.07.39c0,.25,0,.51,0,.77s.05.54.1.84c0,.47.08,1,.13,1.48s.06,1,.06,1.54v.68a3.74,3.74,0,0,0,.06.68,1,1,0,0,1,.07.38v1.68a2.9,2.9,0,0,0,.06.64,2.41,2.41,0,0,1,.1.87,4.27,4.27,0,0,0,0,.87l.2,3q.06.64.09,1.32c0,.45,0,.92,0,1.39v.54a1.93,1.93,0,0,0,.07.55,1.32,1.32,0,0,1,.06.39v.39s.06.11,0,.22a.41.41,0,0,0,0,.29,3.5,3.5,0,0,1,.13.9v1c0,.17,0,.35,0,.55a5.79,5.79,0,0,1,0,.61,3.84,3.84,0,0,1,.06.71v.7a3,3,0,0,1,.07.68,3.74,3.74,0,0,0,.06.68.47.47,0,0,1,.07.25,7.5,7.5,0,0,0,.13,1.42c.08.47.17.95.25,1.42a1.16,1.16,0,0,1,.07.42v.42a.44.44,0,0,1-.13.32,1.31,1.31,0,0,0-.39.77.36.36,0,0,1-.19.32,2.33,2.33,0,0,0-.77.52A1.81,1.81,0,0,1,520.71,504.19Z"/><path class="cls-21" d="M542.35,503.48a.88.88,0,0,0-.38-.07.33.33,0,0,1-.26-.19c-.09-.13-.17-.24-.26-.35a2.57,2.57,0,0,1-.26-.42c-.13-.17-.23-.17-.32,0h-.13a.19.19,0,0,0-.06-.13,6.87,6.87,0,0,0-.58-1.67c-.13-.35-.25-.7-.36-1.07a6.93,6.93,0,0,1-.22-1.12l-.39-2.84-.19-2.32v-.12a9.27,9.27,0,0,1-.13-1.58V490a6.55,6.55,0,0,1-.06-.86,6.64,6.64,0,0,0-.07-.87c0-.35-.07-.69-.09-1s0-.67,0-1l.07-5.09v-6.89q-.14-.39-.39-.39a1.06,1.06,0,0,0-.29,0l-.29,0-2.9.77c-.38.13-.77.25-1.16.36s-.77.22-1.16.35-.59.08-.86.1-.57,0-.87,0a1.32,1.32,0,0,1-.71-.26,2.46,2.46,0,0,1-.77-.51c-.22-.22-.43-.45-.65-.71l-.13-.2c-.08-.3-.16-.59-.22-.86a2.34,2.34,0,0,1,0-.88,4,4,0,0,1,.29-1.09,2.56,2.56,0,0,1,.68-.9,1.52,1.52,0,0,0,.35-.32q.16-.19.36-.39a1,1,0,0,1,.32-.13,1.54,1.54,0,0,0,.71-.16,2.32,2.32,0,0,1,.64-.22l.65-.13.64-.13,1.8-.49c.6-.15,1.21-.26,1.81-.35l3.48-.58a.52.52,0,0,1,.22-.06.19.19,0,0,0,.16-.07,5.76,5.76,0,0,1,.77-.19,1.73,1.73,0,0,1,.78.06.26.26,0,0,0,.22,0,.41.41,0,0,1,.16,0l2.19-.25q1.1-.13,2.13-.33l1.67-.25c.56-.09,1.12-.15,1.68-.2s.86-.15,1.29-.19l1.28-.13,1.07-.13,1.06-.13a5.63,5.63,0,0,1,1,0c.32,0,.65,0,1,0a1.11,1.11,0,0,1,.61.2,4.57,4.57,0,0,0,.55.32,7.73,7.73,0,0,1,.7.64,1.51,1.51,0,0,1,.26.58c0,.13.09.27.13.42s.09.31.13.48a1.66,1.66,0,0,1-.13,1.1l-.39.9a1.25,1.25,0,0,1-.16.35,1.3,1.3,0,0,1-.22.29l-.13.13-.55.39a1.8,1.8,0,0,1-.67.26l-2.77.19-.78,0c-.25,0-.54.06-.83.1H552c-.68,0-1.35.11-2,.19l-1.94.26-2.57.39a.39.39,0,0,0-.26.06q-.25,0-.39.39v1.45c0,.4,0,.82.07,1.25a4.25,4.25,0,0,1,0,1.81,2.68,2.68,0,0,0-.1.35,1.59,1.59,0,0,0,0,.29,5.77,5.77,0,0,1-.13,1.67v.39a1.07,1.07,0,0,0,.07.39,2.52,2.52,0,0,1,.06.58v4c0,.17,0,.38,0,.61s0,.46,0,.68,0,.36,0,.58,0,.43,0,.64,0,.6,0,.9a5.35,5.35,0,0,1,0,1v2a.27.27,0,0,1,0,.12.26.26,0,0,0,0,.2,11.42,11.42,0,0,1,.06,1.19,5.86,5.86,0,0,0,.13,1.19,1.72,1.72,0,0,0,0,.39.72.72,0,0,1,0,.38,6.1,6.1,0,0,0,.13,1.19c.09.41.15.81.2,1.2s.18.94.28,1.41.21,1,.29,1.42l.2.9a.37.37,0,0,1-.2.32.19.19,0,0,0-.12.07c-.22.08-.3.21-.26.38v.33c0,.08-.09.12-.13.12a.62.62,0,0,0-.52.26,1.82,1.82,0,0,1-.41.42,2.37,2.37,0,0,1-.55.29A2.42,2.42,0,0,1,542.35,503.48Z"/><path class="cls-21" d="M576.36,506.7l-1.1-.19-1.71-.26c-.58-.09-1.17-.15-1.77-.19a3.64,3.64,0,0,1-1.8-.52,2.37,2.37,0,0,1-1.16-1.42c0-.21-.1-.43-.16-.64a5,5,0,0,1-.16-.64,1.73,1.73,0,0,1,.32-1.16,5.28,5.28,0,0,0,.55-.65,4.62,4.62,0,0,1,.48-.58,1.07,1.07,0,0,1,.26-.19l.26-.13a2.44,2.44,0,0,1,.64-.29c.21-.06.43-.12.64-.16a.32.32,0,0,1,.23,0l.16,0a6.75,6.75,0,0,0,.71.1,2.3,2.3,0,0,1,.71.16l2.7.38a2.55,2.55,0,0,0,1.61-.25l.49-.26c.15-.09.29-.17.41-.26a16.43,16.43,0,0,0,2.45-1.74c.52-.47,1-.94,1.48-1.41a12.05,12.05,0,0,0,1.29-1.55,3,3,0,0,0,.58-1.19,3.79,3.79,0,0,0,.06-1.26l-.19-.51a1,1,0,0,0-.26-.52,4.48,4.48,0,0,1-.38-.45,6.18,6.18,0,0,1-.74-.71,4.28,4.28,0,0,0-.74-.64c-.65-.52-1.28-1-1.9-1.48l-1.9-1.42a.81.81,0,0,0-.39-.26,11.36,11.36,0,0,1-1.13-.87l-1.06-.93a12.11,12.11,0,0,0-1.42-1.22,2,2,0,0,1-.7-.65,3.14,3.14,0,0,0-.78-.64,5,5,0,0,1-.84-.61c-.25-.24-.51-.46-.77-.68l-.84-.77a6.35,6.35,0,0,0-.54-.61l-.61-.62a1.38,1.38,0,0,0-.36-.51,3,3,0,0,1-.42-.45,1.1,1.1,0,0,0-.19-.29,1,1,0,0,1-.19-.36c-.26-.51-.53-1-.81-1.54a13,13,0,0,1-.74-1.61c-.13-.35-.25-.68-.35-1s-.21-.63-.29-.94a4.22,4.22,0,0,0-.23-.93c-.11-.28-.2-.57-.29-.87-.09-.47-.18-.93-.29-1.38s-.2-.89-.29-1.32l-.13-.52a7.61,7.61,0,0,1,0-1.35,8.44,8.44,0,0,1,.39-1.61,2.45,2.45,0,0,1,.84-1.22l1.28-1a5.88,5.88,0,0,1,1.36-.84.24.24,0,0,0,.19-.07,4.11,4.11,0,0,1,1.42-.74c.51-.15,1-.29,1.54-.42a44.3,44.3,0,0,1,6.38-1.35H580c.38,0,.79,0,1.22-.06a7.49,7.49,0,0,1,1.55.16,7.75,7.75,0,0,1,1.48.48c.34.17.68.36,1,.55a11.25,11.25,0,0,1,1,.61,1.66,1.66,0,0,1,.65.84l.19.45a2.93,2.93,0,0,1,.36,1.19,5.45,5.45,0,0,1-.1,1.26,3.31,3.31,0,0,1,0,.42,2,2,0,0,0,0,.41A3,3,0,0,1,586,467a2.25,2.25,0,0,1-1.87.52c-.17-.09-.25,0-.25.13s-.11.25-.33.25h-.38a1.11,1.11,0,0,1-.78-.38c-.21-.22-.32-.39-.32-.52a.41.41,0,0,1,.26-.38c-.09-.22-.17-.41-.26-.58a1.39,1.39,0,0,0-.26-.39,1,1,0,0,0-.57-.45l-.65-.13-.64-.13-.58,0a4.87,4.87,0,0,1-.65-.1,1,1,0,0,0-.58.07,2.34,2.34,0,0,1-.38.09.89.89,0,0,1-.45,0h-.42a1.15,1.15,0,0,0-.48.13l-1.23.19a6,6,0,0,0-2,.78l-.38.13a.65.65,0,0,1-.39,0,.67.67,0,0,0-.64.19c0,.09-.14.14-.29.16a.67.67,0,0,0-.36.16.75.75,0,0,0-.25.52.91.91,0,0,1,.06.38l1.35,3.93a8.39,8.39,0,0,0,1,1.9q.62.87,1.32,1.71a14.93,14.93,0,0,0,2.26,2.19l2.06,1.74c.43.38.88.75,1.35,1.09s.92.69,1.35,1l1.93,1.45c.65.49,1.29,1,1.94,1.51l1.51,1.26a14.35,14.35,0,0,1,1.38,1.32c.3.34.6.69.91,1a5.57,5.57,0,0,1,.77,1.16,7.38,7.38,0,0,1,.77,1.67,6.25,6.25,0,0,1,.32,2.32,1,1,0,0,0-.06.39,6.71,6.71,0,0,1-.16,1.45,7.38,7.38,0,0,1-.49,1.38c-.21.43-.44.87-.67,1.32a13,13,0,0,1-.81,1.32c-.43.56-.87,1.09-1.32,1.58a14.94,14.94,0,0,1-1.51,1.45q-.45.39-.9.81a6.37,6.37,0,0,1-1,.74c-.21.17-.43.33-.64.48s-.43.31-.65.48a4.76,4.76,0,0,0-.51.32l-.52.39a2.07,2.07,0,0,1-.61.42c-.23.11-.46.2-.67.29l-1.87.77a5.38,5.38,0,0,1-1.16.26A6.21,6.21,0,0,1,576.36,506.7Z"/></g><g id="texture"><image class="cls-22" width="500" height="375" transform="translate(7.4 6.03) scale(1.29 1.66)" xlink:href="../../../adrenaline/styletile/img/old-photo-texture-png-3.png"/></g></svg>
