<svg xmlns="http://www.w3.org/2000/svg" xmlns:xlink="http://www.w3.org/1999/xlink" viewBox="0 0 1368.9 768.04"><defs><style>.cls-1,.cls-19,.cls-3{fill:none;}.cls-2{clip-path:url(#clip-path);}.cls-3{stroke:#000;stroke-width:2px;}.cls-14,.cls-15,.cls-19,.cls-21,.cls-22,.cls-3{stroke-miterlimit:10;}.cls-4{clip-path:url(#clip-path-2);}.cls-5{fill:#ff6d2d;}.cls-6,.cls-7,.cls-8,.cls-9{fill:#f5cc66;}.cls-6{opacity:0.3;}.cls-7{opacity:0.6;}.cls-8{opacity:0.72;}.cls-10{fill:#86b9d9;}.cls-11{fill:#047177;}.cls-12{fill:#d5bd81;}.cls-13{fill:#caae68;opacity:0.64;}.cls-14{fill:#6a9a90;stroke:#648d83;}.cls-15{fill:#63a497;stroke:#6a988f;}.cls-16{fill:#98c1d5;}.cls-17,.cls-18{fill:#2a9090;}.cls-17{opacity:0.09;}.cls-18{opacity:0.13;}.cls-19{stroke:#99b28d;stroke-width:6px;opacity:0.66;}.cls-20{fill:#856239;opacity:0.15;}.cls-21{fill:#70ada2;stroke:#8ea583;opacity:0.95;}.cls-22{fill:#fff;stroke:#fff;}.cls-23{opacity:0.18;}</style><clipPath id="clip-path"><path class="cls-1" d="M838.24,535.34C920.56,482.6,967.45,392.8,966.67,291.22,965.43,130.26,834.46.74,665.49,1.92S367.55,134.53,368.78,295.48c.77,100,47.39,187.94,128.43,239.86H-30.09V758.17H1395.26V535.34Z"/></clipPath><clipPath id="clip-path-2"><circle class="cls-1" cx="667.58" cy="295.63" r="290.85"/></clipPath></defs><title>adventurejunkies-logo-large-text</title><g id="Layer_9" data-name="Layer 9"><g class="cls-2"><path class="cls-1" d="M776.49,420.31a29,29,0,0,1-4.46,6.1"/><circle class="cls-3" cx="667.37" cy="295.62" r="290.85"/><g class="cls-4"><path class="cls-5" d="M329.92,423.12C328.1,223.1,437,5,666.74,3.57,884.47,2.25,988.2,196,1008.32,402a2.26,2.26,0,0,0-.22-.11A175.46,175.46,0,0,0,987,392.6c-.33-.13-.69-.28-1-.38C964.89,384.51,944.38,381,920.12,374c-9.63-2.75-19.85-6.06-30.94-10.39-11.85-4.63-23.67-11.74-35.58-19.84-17.08-11.64-34.33-25.36-52-37l-.22-.14c-28.91-19-59.08-32.25-91.79-21.54a88.57,88.57,0,0,1-16.18,3.41.25.25,0,0,0-.12,0h0c-4.65.58-9.6,1-14.77,1.19-4.76.21-9.68.26-14.65.21h-.32c-37.8-.37-79.49-7-83.29-6.93a411.08,411.08,0,0,0-51.65,3.35c-29.21,3.89-52.64,11-72.71,20.88-1.3.64-2.59,1.29-3.86,1.95-.1,0-.19.11-.3.15a199,199,0,0,0-26.76,16.81A261.46,261.46,0,0,0,400.19,347c-1.74,1.63-3.45,3.3-5.17,5C375,371.8,355.7,394.84,332.07,419.94h0c-.23.26-1.81,1.11-2,1.37"/><path class="cls-6" d="M519.46,208.1a205.1,205.1,0,0,0-35,10.56c-1.11.45-2.23.92-3.31,1.39l-.26.11a180.38,180.38,0,0,0-23,12,222,222,0,0,0-21.3,14.91c-1.49,1.16-3,2.35-4.45,3.54-17.28,14.11-33.86,30.53-54.22,48.43h0c-.19.18-1.51.77-1.74,1a291.31,291.31,0,0,1,21-91Z"/><path class="cls-6" d="M988.78,406.08c-.11-.07-.23-.11-.34-.17a3.09,3.09,0,0,0-.47-.25,268.33,268.33,0,0,0-32.58-14.89c-.53-.2-1.09-.44-1.62-.61-33.12-12.54-65.29-18.26-103.35-29.64-3.89-1.16-7.81-2.36-11.85-3.63-11.58-3.73-23.74-8.05-36.67-13.28-18.6-7.53-37.14-19.09-55.83-32.26-3.59-2.53-7.19-5.17-10.82-7.8-23.25-17.06-46.76-36-70.82-52.36-.11-.07-.22-.17-.34-.24-14.89-10.12-30-19.25-45.35-26.32l330.86-2.42C971.23,270.17,991.15,331.31,988.78,406.08Z"/><polyline class="cls-1" points="25.6 317.83 27.52 317.46 48.79 313.37 63.08 310.63 67.87 309.71 163.93 291.28 270.06 270.89"/><path class="cls-7" d="M965.2,222.09l-200.69,1.47c-19.1-7.72-38.9-10.86-59.82-4.6-4.43,1.33-9.63,4.29-15.38,5,0,0-.08-2-.13-2v2c-4.43.5-12,.22-16.88.43-4.53.18-6.4-1.16-11.13-1.2h-.31c-36-.3-75.62-6-79.23-6a431.12,431.12,0,0,0-49.15,2.94A283,283,0,0,0,502,225.48l-135.26,1a364.81,364.81,0,0,1,50.46-92.61q7.79-10.35,16.29-20.05l463.36-3.39A362.06,362.06,0,0,1,965.2,222.09Z"/><path class="cls-8" d="M897.2,110.42,434.11,113.8C492.39,47.46,574.09,2.86,664.79,2.19S837.83,44.94,897.2,110.42Z"/><path class="cls-1" d="M377.86,277h0l-.62.54Z"/><path class="cls-1" d="M271.66,168.35A597.59,597.59,0,0,0,170,198.85c-2.41,1-4.78,2-7.15,3a4.89,4.89,0,0,0-.48.2,497.64,497.64,0,0,0-61.29,30.68h0q-7.83,4.62-15.28,9.46c-3.47,2.25-6.86,4.53-10.2,6.85A368.33,368.33,0,0,0,45.4,272.18,287.73,287.73,0,0,0,7.68,310.8c16.82-21.24,30.2-40.37,44.68-57.34,1.24-1.44,2.48-2.88,3.74-4.29l11.69-25.12,6.6,6.64a180.44,180.44,0,0,1,20.52-15.92c.08,0,.15-.1.23-.15,1-.65,2-1.32,3-2l21.49-60.87,37.39,35a429.48,429.48,0,0,1,43.28-10.36C203.53,175.8,239.64,174,271.66,168.35Z"/><path class="cls-1" d="M184.72,251.41s0,0,0,0c-.12.33-.25.65-.37,1-4,.65-13-1.87-12.07,2.13-17.18-70.78,8.49-2,12.35-3.12h0Z"/><line class="cls-1" x1="443.47" y1="111.12" x2="441.58" y2="110.57"/><polyline class="cls-1" points="689.3 205.21 688.92 205.09 688.84 205.07"/><line class="cls-1" x1="717.88" y1="149.8" x2="717.36" y2="149.45"/><line class="cls-1" x1="827.13" y1="113.35" x2="827.1" y2="113.04"/><line class="cls-1" x1="870.52" y1="84.12" x2="870.44" y2="84.45"/><line class="cls-1" x1="863.04" y1="119.26" x2="863.03" y2="119.31"/><path class="cls-1" d="M204.47,333.25s-.41.42-1.12,1.18"/><circle class="cls-9" cx="809.22" cy="276.61" r="126.78"/><path class="cls-10" d="M414.59,201.62S493.4,154.2,519.5,155.07s34.16,17.21,44.66,24.76c15.69,11.27,62.7,7.42,81,16.69,17.45,8.87,44.94,36.43,52.31,50.39s34.12,9,44.4,18,74.78,61.19,80.44,82.18C824.6,355.71,702.33,569.5,614,577.29c-87.24,7.69-224.63-11.15-319.51-119C275.33,436.55,382.23,195.56,414.59,201.62Z"/><path class="cls-11" d="M968.84,415.43c-1,41.59-12.1,28.83-12.1,28.83A293.39,293.39,0,0,1,834.48,603.65c-1.16.75-2.35,1.49-3.54,2.23A291.06,291.06,0,0,1,710.89,647.5l-2,.23c-1.18.13-2.38.25-3.58.36,0,0-.14,1.57-.19,1.56-11.38,1.06-22.9,0-34.61-.32A293.05,293.05,0,0,1,393.59,429.71c-6.57-25.5-13.39-26.24-12.75-53.88,0-1.31.07-2.59.12-3.9,0-.86-.95-1.69-.89-2.55.13-3.15-1.81-6.47-1.57-9.59,0-.5.07-1,.13-1.53.13-1.53.26-3.06.41-4.59.21-.18-2.57-.32-2.37-.5l1.55,0c-1.21-10.64-27.27-57.07-9.56-70.65,1.51-1.15,75.86,21.7,77.39,20.58a219.72,219.72,0,0,1,21.74-14.25,179.52,179.52,0,0,1,23.39-11.28,2.77,2.77,0,0,1,.26-.1c1.1-.44,2.23-.87,3.36-1.29,17.48-6.5,37.79-11,63-13,13.35-1.08,57.07,17.92,89.56,19.13,0,0,25.62,4.34,27.16,4.38,5.2-.4,19.8,7.31,33.74,6.1,23.52-5.64,70.88,9,78.9,13.64.06,0,31.78,13.28,44.28,21.12,2,1.21,3.89,2.42,5.83,3.58,10,6.06,15.63,3.65,25.72,7.24,7,2.49,15.26,0,21.55,1.83,2.2.62,9-.22,11.08.35,20.7,5.59,42.49-3.22,60.46,2.79.29.08,6.46,0-3,4-5.62,2.41,17.59-2.78,23.6,0,.08,1-6.23,18.73-6.18,19.77a.59.59,0,0,1,0,.19c0,.35.05.69.06,1,0,.63.07,1.28.1,1.9.07,1.6-2,27.71-1.92,29.33,0,1,.06,2,.07,3,0,.31,0,.61,0,.92,0,1.42,0,3.61,0,4C968.92,410.6,968.85,415,968.84,415.43Z"/><path class="cls-12" d="M896.4,341.21c-4.67,1.91-20,8.86-30.56,16.66-8.21,6.07-17.73,11.52-24.09,15.38-7,4.24-19.25,16.9-24,21.29-8.54,5.19-26.6,15.07-33.7,22.75-12.09,13.09-21.14,11.76-35.49,24.63-12.29,11-19.87,19.8-28.6,27.2-11.42,9.68-20.87,18.56-29.59,25.23C680.49,501.91,677,506.64,667,517c-9.26,9.61-11.67,16.63-22.15,26.16-7.35,6.7-12.41,18.51-26.14,37.12-17.11,23.18-33.16,46.32-33.16,46.32l-91.05-66.69-59.69-66.18-18.41,6.91S453,491,483.12,473.86c15.92-9.07,38.27-8.7,59.37-21.44,26.4-16,81.2-30,111.69-45.88,9.88-5.15,58-33,74.7-36,24.59-4.34,27.17-13,47.25-17.24,17-3.62,24.53-8.21,43.25-11.3,14.36-2.93,17.88-10.91,31.76-6.36,4.16,1.36,15.31,2.06,29.9,3.47C891.08,340.1,891.65,339.62,896.4,341.21Z"/><path class="cls-13" d="M1010.84,493.69c-6.62,2.25-33.58,5.93-39.3,14.68-14.1,10.91-45,31.81-62.92,38.93-8.44,3.36-42.83,19.1-69.58,26.11L667.27,656.53l-39.52-15.35L727,585.77c29.42-19.09,151.12-34.8,178.32-57.19,8-7.75,24.68-14.36,34.88-18.45,18.78-10.47,36.75-19.66,57.21-21.3,16.42-5.79,16-4,31-6.33,12.95-2,20.74-8.13,29.52-7.38C1069.63,476.12,1014,492,1010.84,493.69Z"/><path class="cls-14" d="M612.43,388.37s-70.67,5.22-95.24-1.73c-.53-.14-2.45-8-2.45-8l-1.25-5.51L508.2,362.2,503,339.3l-.58-2.48-2.15-9.5-5.37-23.55-.12-.53,2.1-2.41h0l7.37-8.44h0l3.58-4.1-7-4.09,4.39-6.58.05-.08.7-1,28.34-42.39,21.78,34.07L563.62,280l.83,1.29,0,.09,3,4.61-8.58,1.39L573,304.49l8.51,9.05-11.11,2.95,24.18,28.57,2.93,3.47-17.22,3.77Z"/><path class="cls-15" d="M445.8,399.64l20.38-26.8-14.57-4.74,12.51-17.91,4.26-7.65L457.45,339l9.37-13.25,9.6-13.57,2-2.79L491,291.51l4.19,6.1,7.21,10.5,2.59,3.78,1.08,2,16.77,24.58-7.53,1.95L512,341l20.81,28.92-15.72,3.75,22,27.7s-22.58,3.93-40.11,4.81C467.13,407.81,445.8,399.64,445.8,399.64Z"/></g><path class="cls-16" d="M618.64,239c-2.1,5.38-12.9-6.77-18.08-9.33-4-2-12.34-8.52-14.6-12.4s-4.15-11.76-8-14.14C556.24,189.48,557.59,174,557.59,174s4.75,4.64,6.37,5.8a63.71,63.71,0,0,0,7.13,3.45s.1,3.22,1.12,4c3.52,2.81,10.08,7.64,13.24,10.86,4.48,4.56,12.83,15.69,17.31,20.25C606.67,222.4,620.67,233.76,618.64,239Z"/><path class="cls-17" d="M673,337.42a.31.31,0,0,0,.22-.58c-8.87-4.45-41.29-19.1-74.69-14.11-8.94,1.34-15.85,1.26-20.92,3.1l8.57,7.12c17-5.7,23.92-5,33.06-2.62S640,329.24,673,337.42Z"/><path class="cls-18" d="M891,396.66a.18.18,0,0,0,0-.35c-5.48-1.3-25.31-5.13-42.9,2.2a59.6,59.6,0,0,0-10.73,5.69s17.81-4.31,23.15-4.24S871.73,396.55,891,396.66Z"/><path class="cls-18" d="M461.5,377.53a.18.18,0,0,0,0-.36c-5.49-1.29-25.31-5.12-42.9,2.2a60.25,60.25,0,0,0-10.73,5.69s17.79-6.3,23.13-6.23S442.26,377.41,461.5,377.53Z"/><circle class="cls-19" cx="667.37" cy="295.62" r="290.85"/><path class="cls-20" d="M834.26,344.73C821.62,352.05,641,430.8,640.78,431.09c-5.19,8.81-94.35,46-104.83,49.49-76.9,25.63-68.41.41-85.54,8.74,5.06-4.22,119.74-47.13,130.49-54.06s99.15-38.68,108.33-47.67c5.07-5.84,74.58-29.13,81.45-32.55,8.69-5.68,30.34-10.79,40-12.51,14.66-2.77,10.59-3.2,25.88-6.92,9.11-2.86,18.85,1,18.85,1C861.5,341.23,852.09,334.4,834.26,344.73Z"/><rect class="cls-21" x="4" y="537.12" width="1354.99" height="222.37"/><path class="cls-22" d="M117.17,705.64a3.34,3.34,0,0,1-2.4-1l-.6-.9-.6-.9a16.58,16.58,0,0,1-1.35-6.6l-.45-3.6q-.45-2.1-.75-4.2a18.62,18.62,0,0,0-1-4l-.9-2.55a2.46,2.46,0,0,0-.07-.6,3,3,0,0,0-.23-.6l-2.25-8a2.67,2.67,0,0,1-.22-.75,1.35,1.35,0,0,0-.38-.75,8.35,8.35,0,0,1-.67-1.87c-.15-.65-.33-1.33-.53-2-.1-.49-.2-1-.3-1.42a9.22,9.22,0,0,0-.45-1.42,2.49,2.49,0,0,0-.6-1.13c-.2-.15-.65-.12-1.34.08a15.42,15.42,0,0,1-1.58.22,5.55,5.55,0,0,0-1.57.38,9.62,9.62,0,0,1-1.43.22,14.8,14.8,0,0,0-1.57.23l-2.1.45c-.5.1-1,.22-1.58.37a6,6,0,0,1-1.57.23l-2.7.44q-1.2.32-2.55.6c-.9.21-1.75.4-2.55.6a60.18,60.18,0,0,1-7.19,1.35q-1.2.3-1.35,1a.13.13,0,0,0-.15.15q-.9,2.4-2,4.73c-.74,1.55-1.52,3.12-2.32,4.72-.2.4-.37.77-.52,1.12s-.33.73-.53,1.13c-.1.2-.2.42-.3.67s-.2.48-.3.68a3.78,3.78,0,0,0-.9,2.55,5.43,5.43,0,0,1-.6,1.72c-.3.55-.6,1.07-.9,1.57a.59.59,0,0,1-.6.45,5.86,5.86,0,0,0-1.2.45,14.6,14.6,0,0,1-1.35.6,1.36,1.36,0,0,1-.89,0c-.21-.1-.43-.22-.68-.37a1.37,1.37,0,0,0-.67-.23,2.79,2.79,0,0,1-2.4-2,18.05,18.05,0,0,1-1.65-4.79,1.48,1.48,0,0,1,.07-1.05,6.91,6.91,0,0,0,.38-.9,2.2,2.2,0,0,0,1-1.35v-.15a8.46,8.46,0,0,1,.82-3.68,36.49,36.49,0,0,0,1.43-3.37,12.5,12.5,0,0,1,.75-1.8l.9-1.8a15.38,15.38,0,0,0,1-2c.25-.65.47-1.32.67-2a2.92,2.92,0,0,0,0-2.25,5.48,5.48,0,0,1-.3-1.73,10.44,10.44,0,0,1,.15-1.72,3.89,3.89,0,0,1,1.2-2.85,7.67,7.67,0,0,1,1.28-1.27,13.66,13.66,0,0,0,1.27-1.13A9,9,0,0,0,69,650a34.86,34.86,0,0,0,1-4c.24-1.35.52-2.67.82-4s.42-2.58.68-3.83.52-2.47.82-3.67a11.78,11.78,0,0,1,.37-1.42c.15-.45.28-.88.38-1.28.3-.8.6-1.57.9-2.32a9.4,9.4,0,0,0,.6-2.33,1,1,0,0,0,0-1.05,2.4,2.4,0,0,1,.07-1.34,11.09,11.09,0,0,0,.38-1.2,11.36,11.36,0,0,0,.67-2.1,11.41,11.41,0,0,1,.68-2.1c.5-1.3.92-2.37,1.27-3.23a24.25,24.25,0,0,0,1-2.92,17.55,17.55,0,0,1,.67-1.72,6.93,6.93,0,0,0,.53-1.73,27.49,27.49,0,0,0,.75-2.77,13.41,13.41,0,0,0,.3-2.77,5.24,5.24,0,0,1,.6-1.65,8.68,8.68,0,0,1,1.87-2.55c.75-.7,1.47-1.4,2.17-2.1a6.64,6.64,0,0,1,1.5-.68,1.81,1.81,0,0,1,1.5.23,2.63,2.63,0,0,0,.75.3,2.87,2.87,0,0,1,2.25.6,6.55,6.55,0,0,1,1.5,1.8,1.88,1.88,0,0,1,.45.75,5.82,5.82,0,0,0,.3.75,4.5,4.5,0,0,1,.75,2.4,5.84,5.84,0,0,0,.15,1.27c.1.45.2.93.3,1.42a1.44,1.44,0,0,0,1.35.9.2.2,0,0,1,.3,0,.45.45,0,0,1,.15.3,2,2,0,0,1,.45,2,5.27,5.27,0,0,0-.08,2.33c.15.75.33,1.52.53,2.32l1.2,3c.39,1,.8,2,1.2,3s1,2.2,1.5,3.3.94,2.2,1.34,3.29c.5,1.4,1,2.8,1.58,4.2s1.17,2.8,1.87,4.2l.45,1.65a11.09,11.09,0,0,0,.38,1.2,11,11,0,0,1,.37,1.2,8.45,8.45,0,0,1,.53.9,2.84,2.84,0,0,0,.52.75,4.87,4.87,0,0,1,.9,2.25,8.4,8.4,0,0,0,1.35,2.69,1,1,0,0,0,.9.45c1.5-.19,3-.37,4.5-.52a27.34,27.34,0,0,0,4.5-.83,12.24,12.24,0,0,1,3.14-.44,8.19,8.19,0,0,1,5.25,1.94,7.4,7.4,0,0,1,3,5.7,3.9,3.9,0,0,0,.15,1.2,2.23,2.23,0,0,1-.6,1.65,3,3,0,0,1-.52.9,8.86,8.86,0,0,0-.68.9,3.49,3.49,0,0,1-.6.9l-.9.75a3.92,3.92,0,0,1-.45.67,1.59,1.59,0,0,1-.75.53,11,11,0,0,0-1.2.37,3.82,3.82,0,0,1-1.35.23,15,15,0,0,1-4.79-.15h-2.4a2.3,2.3,0,0,0-.9.3q-.6.3-.6.75v.6a17.21,17.21,0,0,1,.67,2.77,8.83,8.83,0,0,0,.83,2.62,2.63,2.63,0,0,0,.3,1.2,15.06,15.06,0,0,1,1.2,2.78c.3,1,.54,1.92.75,2.92a4.46,4.46,0,0,0,.3,1.2,17.35,17.35,0,0,1,.75,2.17,21.34,21.34,0,0,1,.45,2.33,3.15,3.15,0,0,0,.45,1.65,15,15,0,0,1,.89,2.7,24.43,24.43,0,0,1,.45,2.84.75.75,0,0,1,.15.53,1.47,1.47,0,0,0,.15.67,13.87,13.87,0,0,1,1,3.53c.2,1.25.45,2.47.75,3.67a7.76,7.76,0,0,1,.38,1.87c0,.65.07,1.33.07,2a3.73,3.73,0,0,1-.45,1.65l-.45.45a1.17,1.17,0,0,0-1.05,1l-.45.9a1.37,1.37,0,0,1-.9.75,1.42,1.42,0,0,0-1,.45,2.3,2.3,0,0,1-1.65.59h-1.43A7.27,7.27,0,0,0,117.17,705.64ZM81,651.21l1.87-.3c.65-.1,1.37-.2,2.17-.3q.75-.15,2-.3l2.25-.3a10.29,10.29,0,0,1,2.1-.37c.7,0,1.4-.13,2.1-.23a7.69,7.69,0,0,1,1.8-.37c.6,0,1.2-.13,1.8-.23.9-.2,1.25-.69,1-1.5a15.88,15.88,0,0,0-.53-2.47,4.46,4.46,0,0,0-1.42-2.17,1.22,1.22,0,0,1-.3-.9v-.45c-.2-.8-.43-1.58-.68-2.33s-.52-1.47-.82-2.17a18.61,18.61,0,0,0-.68-2.17c-.25-.65-.52-1.33-.82-2l-1.8-5.4c-.3-.69-.58-1.39-.82-2.09s-.48-1.4-.68-2.1l-.45-.6h-.45l-.3.45c-.5,1.5-1.07,3-1.72,4.49a41.56,41.56,0,0,0-1.73,4.8,2.47,2.47,0,0,1-.15.75l-.3.9c-.4,1-.77,2.1-1.12,3.3a31.15,31.15,0,0,0-.83,3.6c-.1.7-.2,1.37-.3,2a18.59,18.59,0,0,1-.44,2l-1.35,5.84c-.11.1-.06.23.15.38A.86.86,0,0,0,81,651.21Z"/><path class="cls-22" d="M160.34,696.79a6,6,0,0,1-2.55-.75,3.42,3.42,0,0,1-1.19-1.2q-.16-.45-.75,0-.45.3-.75,0a2.36,2.36,0,0,0-.9-.6q-.6,0-.6-.45a1.67,1.67,0,0,0-.15-.75,1,1,0,0,0-.3-.75,1.91,1.91,0,0,1-1.2-1.5c-.1-.3-.2-.57-.3-.82a4.62,4.62,0,0,0-.45-.83,2.38,2.38,0,0,1-.3-1,7,7,0,0,1-.23-.82,2.36,2.36,0,0,0-.37-.83,6.36,6.36,0,0,0-.6-1.94,11.28,11.28,0,0,1-.75-2,3.74,3.74,0,0,1-.3-1.65,13.21,13.21,0,0,1,.9-4.95,3.74,3.74,0,0,0,.45-2.7,2,2,0,0,1,.07-1.2,2,2,0,0,0,.08-1.2c-.1-.4-.18-.75-.23-1.05a6.51,6.51,0,0,1-.07-1,1.67,1.67,0,0,1-.15-.75v-1.87a7.33,7.33,0,0,0-.3-2,4.55,4.55,0,0,1-.15-1.35v-5.55q-.15-2-.45-3.9t-.75-3.9a5.47,5.47,0,0,0-.08-.9,5.46,5.46,0,0,1-.07-.9,20.25,20.25,0,0,0-1.05-6.44v-1.35a3.43,3.43,0,0,0-.3-2.55,7.12,7.12,0,0,1-.15-1.65v-.15c0-1,0-2-.07-3a18.8,18.8,0,0,1,.07-3,27,27,0,0,0,0-5.69v-2.4a15.93,15.93,0,0,0-.15-2.25v-.9a3.68,3.68,0,0,0,.3-1.35v-1.2c0-1.2,0-2.37-.07-3.52a26.67,26.67,0,0,0-.38-3.38v-1a3.1,3.1,0,0,0-.15-1,2.49,2.49,0,0,0-.75-1.8l-1-.89a4.26,4.26,0,0,1-2-2.85,1.23,1.23,0,0,1-.15-.53,1.19,1.19,0,0,0-.15-.52,1.16,1.16,0,0,1,.3-1.35,3.38,3.38,0,0,0,.6-1.2,1.67,1.67,0,0,1,.15-.75,3.79,3.79,0,0,0,.45-.9q.15-.45.3-1,.3-.45.45-.3a2.81,2.81,0,0,0,1.5-.3,2.28,2.28,0,0,1,2.25-.3,1.06,1.06,0,0,0,.9-.15.13.13,0,0,0,.15-.15,2.61,2.61,0,0,1,1.65-.82,8.69,8.69,0,0,1,2,.07.67.67,0,0,1,.3.08.66.66,0,0,0,.3.07c.8.2,1.57.38,2.32.53a6.37,6.37,0,0,0,2.17.07,8.87,8.87,0,0,1,1.58.15,8.76,8.76,0,0,0,1.57.15,4.11,4.11,0,0,1,1.13.15l1,.3a5.13,5.13,0,0,1,1.05.38,2.32,2.32,0,0,0,1.05.22c.5.1.92.2,1.28.3a6.89,6.89,0,0,1,1.12.45q2,1.05,3.9,2a6.33,6.33,0,0,1,1.65,1.2,5,5,0,0,0,1.8.9.69.69,0,0,1,.3.07.64.64,0,0,0,.3.08.41.41,0,0,0,.3.15.45.45,0,0,1,.3.15,4.61,4.61,0,0,0,1.87,1.12,4.7,4.7,0,0,1,1.87,1.13,3.49,3.49,0,0,0,.9.6,5.83,5.83,0,0,1,2.1,1.35q.3.3.45.3a2.09,2.09,0,0,1,1.35.74l3.15,3.3a7.27,7.27,0,0,1,.9,1.05,15.46,15.46,0,0,0,1.65,1.95l1.8,1.8.67.68a2.1,2.1,0,0,1,.53.82,1.39,1.39,0,0,0,.45.52,1.5,1.5,0,0,1,.45.53q1.65,1.8,3.22,3.75a46.16,46.16,0,0,1,2.92,4.05,17.28,17.28,0,0,1,1.35,2.24,26.12,26.12,0,0,1,1.05,2.4c.3.7.63,1.4,1,2.1s.67,1.4,1,2.1a21,21,0,0,0,1.05,3q.6,2,1.2,3.75a36.59,36.59,0,0,1,1.05,3.9l.45,1.95c0,.8,0,1.62.07,2.47s.08,1.72.08,2.62a6.41,6.41,0,0,1-.08,1,3.8,3.8,0,0,1-.37,1.05,5.26,5.26,0,0,0-.3,1.65,11.19,11.19,0,0,1-.67,2.85c-.36.9-.73,1.75-1.13,2.55q-1.35,2.4-2.4,4.8c-.2.4-.37.77-.52,1.12s-.33.73-.53,1.12l-.9,1.8a32.17,32.17,0,0,1-2.47,4.13,39.46,39.46,0,0,1-3.07,3.82A9.61,9.61,0,0,1,194.6,678c-.55.45-1.07.93-1.57,1.43-1,.9-2,1.77-3,2.62s-2.05,1.68-3.15,2.48-2,1.35-3.07,1.94a18.08,18.08,0,0,1-3.38,1.5,3.82,3.82,0,0,0-1.8.9c-.59.4-1.22.81-1.87,1.2s-1.33.85-2,1.35a6.91,6.91,0,0,0-.9.38,5.14,5.14,0,0,1-1.05.37l-1,.3-1,.3a4.45,4.45,0,0,0-1.13.45,4.59,4.59,0,0,0-1,.75,13.08,13.08,0,0,1-2.25,1.28,18.55,18.55,0,0,0-2.4,1.27,2.57,2.57,0,0,1-1.05.15,1.84,1.84,0,0,1-.9.07,5.46,5.46,0,0,0-.9-.07v.15Zm6-16.79a5.06,5.06,0,0,0,2.55-.6,15.48,15.48,0,0,0,2.25-1,13.5,13.5,0,0,0,2-1.35l1.8-1.8a28.09,28.09,0,0,0,2.77-2.55,18,18,0,0,1,2.77-2.4l.3-.3,1.13-1.12a9.61,9.61,0,0,0,1-1.13l.75-.75a3,3,0,0,0,.6-.75,5.72,5.72,0,0,1,1.65-1.79,1.91,1.91,0,0,0,.9-.9,7,7,0,0,1,.83-1.5,9.34,9.34,0,0,1,1.12-1.35,10.79,10.79,0,0,0,1.5-2.7l.6-1.5a10,10,0,0,0,.9-3.9,4.55,4.55,0,0,0,.15-1.35,20,20,0,0,0-.3-4.8l-.3-1.49a7,7,0,0,1-.15-1.35,11.35,11.35,0,0,1-.23-1.13,2.3,2.3,0,0,0-.37-1,5.86,5.86,0,0,1-.45-1.2l-.3-1.2a5.49,5.49,0,0,0-.3-1.88c-.2-.54-.4-1.12-.6-1.72s-.6-1.22-.9-1.87a14.07,14.07,0,0,1-.75-2L187,631a4.43,4.43,0,0,1-.67-1.27,9.8,9.8,0,0,0-.53-1.28c-.4-.9-.77-1.8-1.12-2.69a16,16,0,0,0-1.28-2.55c-.5-.9-1-1.8-1.57-2.7a10.35,10.35,0,0,0-2-2.4,43.54,43.54,0,0,0-7.94-6.75,14.73,14.73,0,0,0-5.4-2.55,22,22,0,0,0-2.4-.52c-.9-.15-1.75-.28-2.55-.38a1,1,0,0,0-.75.3,1.85,1.85,0,0,0-.75,1.5c0,.7,0,1.43-.07,2.18s-.08,1.52-.08,2.32a7.64,7.64,0,0,1-.15,3.45,10.1,10.1,0,0,0-.22,1.2,4.22,4.22,0,0,0,.07,1.35,1.9,1.9,0,0,1-.15,1.65,2.22,2.22,0,0,0,0,1.95,4.81,4.81,0,0,1,.3,3,7.31,7.31,0,0,0,0,3.6,10.14,10.14,0,0,1,.23,1.2,4.25,4.25,0,0,1-.08,1.35,24.4,24.4,0,0,0,.23,3.3c.15,1.1.27,2.2.37,3.3a2.3,2.3,0,0,0,.3.9v2.4a3.39,3.39,0,0,1-.07.67,1,1,0,0,0,.07.68c.2.8.38,1.62.53,2.47s.32,1.67.52,2.47a1.82,1.82,0,0,0,.15.68,2.18,2.18,0,0,1,.15.82,14.83,14.83,0,0,0,.15,2.1q.15,1,.3,2.25.45,4.2,1.35,8.55a15.38,15.38,0,0,1,.45,3.74v1a3,3,0,0,0,.15,1,7.61,7.61,0,0,1,.3,2.1v2.1a4.63,4.63,0,0,1-.07.75,1.15,1.15,0,0,0,.07.75,3.81,3.81,0,0,1,.3,1.42v1.43a4.94,4.94,0,0,0,.3,1.5Q165.44,680,166.34,680Z"/><path class="cls-22" d="M257.2,699.19a7.45,7.45,0,0,1-4.65-2.1,12.6,12.6,0,0,1-3.3-5.85,30.31,30.31,0,0,0-1.8-5.84l-2.25-6q-.9-2.4-1.8-4.65l-1.8-4.5-.9-2.55c-.2-.39-.37-.77-.52-1.12s-.33-.72-.53-1.12-.42-1-.67-1.58a15.57,15.57,0,0,0-.83-1.57c-.4-1.1-.8-2.2-1.19-3.3s-.86-2.2-1.35-3.3a6.07,6.07,0,0,1-.3-.67,4.62,4.62,0,0,0-.45-.83q-.9-2.1-1.88-4.27c-.65-1.45-1.32-2.93-2-4.42l-4.5-10.35q-1.05-2.55-2.17-5.1c-.75-1.7-1.48-3.39-2.18-5.09l-.9-2.55-.3-.9a3.79,3.79,0,0,0-.45-.9,1.33,1.33,0,0,0-.15-.6,1.15,1.15,0,0,1-.15-.45,12.89,12.89,0,0,0-.82-2.33c-.35-.75-.73-1.47-1.13-2.17l-.74-1.65a8.64,8.64,0,0,0-.38-.9c-.15-.3-.33-.6-.52-.9a8.48,8.48,0,0,0,.15-1.5,5.12,5.12,0,0,1,.15-1.35,12.57,12.57,0,0,1,.6-2.32,14.22,14.22,0,0,1,1.94-1.57,3.47,3.47,0,0,1,.75-.45,2.63,2.63,0,0,1,2-.6,2.85,2.85,0,0,0,1.13-.23,1.71,1.71,0,0,1,1.12-.07,3.12,3.12,0,0,1,1.2.15,6.27,6.27,0,0,0,1.05.3,2.45,2.45,0,0,1,1.8,1.2l.3.29q.15.16.3.3a5.28,5.28,0,0,1,2,3.45c.2.7.42,1.43.67,2.18s.53,1.47.83,2.17q.75,1.65,1.5,3.45t1.35,3.45c.6,1.3,1.17,2.6,1.72,3.9l1.72,4c.5,1.1,1,2.23,1.5,3.38s.95,2.27,1.35,3.37c.4.8.78,1.63,1.13,2.47s.67,1.73,1,2.63l.15.6c.8,1.6,1.52,3.22,2.18,4.87s1.32,3.32,2,5a3.79,3.79,0,0,1,.45.9l.3.9a4.57,4.57,0,0,1,1,1.5c.25.6.48,1.15.68,1.65.3.8.6,1.57.9,2.32s.65,1.53,1.05,2.33a7.06,7.06,0,0,0,.82,1.87c.35.55.73,1.13,1.13,1.73a.49.49,0,0,0,.6-.15c.39-.8.77-1.58,1.12-2.33s.68-1.52,1-2.32.62-1.77,1-2.63.67-1.72,1-2.62c0-.1,0-.15.08-.15s.07,0,.07-.15l1.5-4.5c.5-1.5.95-3,1.35-4.49l2.25-8.4,1.8-6.9c.6-2.3,1.25-4.54,1.95-6.74a8.71,8.71,0,0,1,.38-1.35,11,11,0,0,0,.37-1.2l3.15-7.8a10.22,10.22,0,0,1,.6-1.27,4.45,4.45,0,0,0,.45-1.13,11.89,11.89,0,0,0,1.2-2.55l.9-2.69c.1-.4.2-.78.3-1.13a2.35,2.35,0,0,0,0-1.12,2.3,2.3,0,0,1,.15-1.35l.9-2.1a5.43,5.43,0,0,1,3.14-3.3,10.49,10.49,0,0,1,1.5-.75,1.43,1.43,0,0,1,1.5-.3l2,.3a11.34,11.34,0,0,1,1.87.45,3.35,3.35,0,0,1,1.8,1.5,2.35,2.35,0,0,1,.45.6l.3.6.45,1.2.52.52a.93.93,0,0,1,.23.68,7.92,7.92,0,0,0,.07,1.12,9.2,9.2,0,0,1,.08,1.28,38.13,38.13,0,0,1-1.8,5.69,7.89,7.89,0,0,1-.45,1.28c-.2.45-.4.92-.6,1.42a.61.61,0,0,0-.15.45,25.18,25.18,0,0,0-1.72,4c-.45,1.34-1,2.72-1.58,4.12-.4,1-.77,2-1.12,2.92s-.73,1.93-1.13,2.92a23.75,23.75,0,0,0-1,3c-.25,1-.48,2-.68,3-.1.4-.2.78-.3,1.13s-.2.67-.3,1l-.9,3.9c-.3,1.3-.65,2.6-1,3.9a25.75,25.75,0,0,1-.75,2.85,27,27,0,0,0-.75,2.69.64.64,0,0,1-.08.3.69.69,0,0,0-.07.3,5.8,5.8,0,0,0-.83,1.8c-.15.6-.32,1.2-.52,1.8s-.43,1.23-.68,1.88-.52,1.27-.82,1.87a10,10,0,0,0-1.2,4,2.66,2.66,0,0,0-.23.75,2.3,2.3,0,0,1-.37.9l-1.8,4.5a8.17,8.17,0,0,0-.45,1c-.4,1.5-.8,3-1.2,4.58s-.85,3.07-1.35,4.57a30.47,30.47,0,0,0-.9,4.35q-.3,2.25-.6,4.35a13.14,13.14,0,0,0,.15,4.49,8.5,8.5,0,0,1,.15,1.65v1.65a3.73,3.73,0,0,1-.75,2.7,3.26,3.26,0,0,0-.6,1.2,6,6,0,0,1-4.8,3.3,5.46,5.46,0,0,0-.9.07A6.29,6.29,0,0,1,257.2,699.19Z"/><path class="cls-22" d="M320.31,695.74a3.12,3.12,0,0,1-1.2-.15,2.8,2.8,0,0,0-1.42-.22c-.45,0-.93.07-1.43.07a.56.56,0,0,0-.3.08.66.66,0,0,1-.3.07,14.25,14.25,0,0,1-2,.15,5.81,5.81,0,0,1-1.87-.3.47.47,0,0,0-.3-.15,2,2,0,0,1-1.8-.6,20.07,20.07,0,0,0-1.5-1.35,2.29,2.29,0,0,1-.75-1.65l-.45-1.2a3.47,3.47,0,0,1-.3-2,.84.84,0,0,0,.07-.6,2.4,2.4,0,0,1-.07-.6,1.44,1.44,0,0,1-.15-.67,1.54,1.54,0,0,0-.15-.68,16.65,16.65,0,0,1-.38-2.77,10.09,10.09,0,0,1,1.13-5.85c.6-1.44.95-2.32,1.05-2.62a2.56,2.56,0,0,0,.45-1.2,25.09,25.09,0,0,1-.08-3.37c0-1.15.08-2.27.08-3.38a2.68,2.68,0,0,1,.45-1.64,2.57,2.57,0,0,0,.15-2.25l-.45-1.65a2.31,2.31,0,0,1,.15-2.85.32.32,0,0,1,.07-.23.29.29,0,0,0,.08-.22.81.81,0,0,0,.15-.83,3.12,3.12,0,0,1-.15-.82,4,4,0,0,1,.22-1.27,2.36,2.36,0,0,0,.08-1.28l-.3-.3a2.61,2.61,0,0,1-.08-1.2c.05-.6.08-1,.08-1V647a8,8,0,0,0,.15-1.42,7.23,7.23,0,0,1,.15-1.42,8.35,8.35,0,0,0,.07-1.88c-.05-.65-.07-1.32-.07-2a14.6,14.6,0,0,1-.23-1.65c-.05-.6-.07-1.2-.07-1.8a1.67,1.67,0,0,1-.15-.75v-.75c-.1-.5-.18-1-.23-1.5s-.07-1-.07-1.5a12.45,12.45,0,0,0-.6-2,6.63,6.63,0,0,1-.45-2.93,1.64,1.64,0,0,0,.15-.75,1,1,0,0,0-.3-.75.6.6,0,0,1-.3-.6v-.44a5.08,5.08,0,0,0-.45-3.6,2.45,2.45,0,0,1-.45-1.8,2,2,0,0,0-1.05-1.8,8.47,8.47,0,0,1-1.35-1.8,5.91,5.91,0,0,1-.75-2.1,7.63,7.63,0,0,1-.15-1.5v-1.35a1.19,1.19,0,0,1,.15-.75,1.94,1.94,0,0,0,.6-1.42,4.25,4.25,0,0,1,.15-1.28.48.48,0,0,1,.3-.15.43.43,0,0,0,.3-.15c.4-.09.6-.45.6-1a2.38,2.38,0,0,1-.3-1.05,1,1,0,0,1,.45-1q.3-.6.75-.3a2.66,2.66,0,0,0,2.4-.3,2.52,2.52,0,0,1,.75-.3h.45q.14-.15.9-.15a1.81,1.81,0,0,0,1.64-.6,3.47,3.47,0,0,1,2.55-1.05h9.3q3.45.15,6.9,0t6.74-.15a9.3,9.3,0,0,0,1.28-.08,11,11,0,0,0,1.12-.22,4.64,4.64,0,0,1,2.1-.45h3.45c.8,0,1.52,0,2.17-.08s1.33-.12,2-.22a4.55,4.55,0,0,1,1.12-.15h2.32a4.93,4.93,0,0,0,1.2-.15c.8-.1,1.65-.18,2.55-.23s1.75-.07,2.55-.07a8.12,8.12,0,0,0,1.13-.08c.34,0,.72-.12,1.12-.22a13.18,13.18,0,0,1,2.32-.38c.75,0,1.48-.12,2.18-.22l2.32-.3,2.18-.3a4.59,4.59,0,0,1,1.94.3c.6.4,1.18.75,1.73,1.05a6.91,6.91,0,0,1,1.57,1.2,3,3,0,0,1,.75,1.05l.3,1.2q.15.6.3,1.35v1.05a14.84,14.84,0,0,0-.22,1.57c-.05.55-.13,1.12-.23,1.72a4,4,0,0,1-.75,1l-2.7,2.7a16,16,0,0,1-2.92.6,14.25,14.25,0,0,1-2.92,0h-1.05a7.58,7.58,0,0,1-3,0,7.24,7.24,0,0,0-1.8-.07c-.6,0-1.2.07-1.8.07a7.87,7.87,0,0,0-1.12.08,3,3,0,0,1-1.13-.08,4.6,4.6,0,0,0-1.42-.07c-.45,0-.93.12-1.43.22a11.54,11.54,0,0,0-1.27.08,13,13,0,0,1-1.42.07,27.29,27.29,0,0,1-4.13.3,30.12,30.12,0,0,0-4.27.3,8.62,8.62,0,0,0-2.55.08c-.8.15-1.65.27-2.55.37a20.58,20.58,0,0,1-2.55.15,10.48,10.48,0,0,0-2.55.3,11.41,11.41,0,0,0-2.92.38,18.77,18.77,0,0,1-2.92.52l-1.05.15a8,8,0,0,0-1.95.22c-.6.15-1.25.33-2,.53a8.42,8.42,0,0,1-1.2.22c-.4.06-.85.13-1.35.23a2.42,2.42,0,0,0-1.05.3q-.45.15-.45.9l.45,1.35a3.12,3.12,0,0,1-.07,1.5c-.15.8-.28,1.4-.38,1.8a2.83,2.83,0,0,0,.15.9l.3.9a7.39,7.39,0,0,1,.45,2.62,10.77,10.77,0,0,0,.3,2.62,5.28,5.28,0,0,1,.15,1.28,7.23,7.23,0,0,0,.15,1.42,2.91,2.91,0,0,0,.08.68,4.18,4.18,0,0,1,.07.82.87.87,0,0,1-.15.6,2.19,2.19,0,0,0-.45,1.35v1.5a6.66,6.66,0,0,1,.75,3v3q0,.45.75.3h.15a3.49,3.49,0,0,1,.6-.9,2.42,2.42,0,0,0,1.05-.3,2.13,2.13,0,0,1,1.2-.3,6.71,6.71,0,0,0,2.25-.08c.7-.15,1.4-.32,2.1-.52A76.28,76.28,0,0,0,341.75,637a27.21,27.21,0,0,1,3.45-1.28,19,19,0,0,1,3.6-.67h.45l2.7-.3a24.12,24.12,0,0,1,2.69-.15c1.2-.1,2.38-.25,3.53-.45s2.32-.35,3.52-.45c.7-.2,1.35-.37,1.95-.52a13.06,13.06,0,0,0,1.95-.68,10.09,10.09,0,0,1,3.6-.75,10.72,10.72,0,0,1,2.25.53,13.44,13.44,0,0,1,2.09,1,5,5,0,0,1,2.25,4.5,13,13,0,0,1-.22,2.4,13,13,0,0,0-.23,2.4.86.86,0,0,1-.3.6l-.45.75-.3,1.2a1.31,1.31,0,0,1-.75.89l-1.87,1.58a5.3,5.3,0,0,1-2.17,1.12l-1.13.3a4,4,0,0,1-1.12.15,40.57,40.57,0,0,0-4.88.3l-5,.6c-1.3.1-2.57.25-3.82.45a24.2,24.2,0,0,1-3.82.3,13,13,0,0,0-4.05.75l-3.15.6q-1.65.3-3.3.45c-.8.1-1.62.23-2.47.38s-1.68.27-2.48.37l-2.55.45a2.07,2.07,0,0,1-.89.15,16.44,16.44,0,0,1-2.1.45,15.74,15.74,0,0,0-2.1.45,13.31,13.31,0,0,0-2,.45l-2,.6a2.77,2.77,0,0,0-1.2.52,3.11,3.11,0,0,0-.75,1,1.39,1.39,0,0,0,0,.9,1.69,1.69,0,0,1-.15,1.2c.1,1,.17,2,.23,3a21.48,21.48,0,0,1-.08,3,8.12,8.12,0,0,1,.23,2.39c-.06.8-.13,1.6-.23,2.4a5.84,5.84,0,0,0,.15,3,7.1,7.1,0,0,1-.3,4q-.3.9,0,1.2a1,1,0,0,1,0,1v.9q-.15,1.2,1.05,1.2h.3a3.6,3.6,0,0,1,2.1.75,1.71,1.71,0,0,0,1.8.45l4.2-.45c.6-.1,1.2-.18,1.79-.23s1.2-.07,1.8-.07a1.06,1.06,0,0,1,.9.15,1.35,1.35,0,0,0,1.35.15,1.89,1.89,0,0,1,.83-.45,1.85,1.85,0,0,0,.82-.45,2.28,2.28,0,0,1,2.25-.6,2.52,2.52,0,0,0,2-.15,5.76,5.76,0,0,1,2.55-.3,2.59,2.59,0,0,0,1.5-.15,4,4,0,0,1,1.5-.3,1.06,1.06,0,0,1,.45.07.24.24,0,0,0,.3-.07,1.33,1.33,0,0,0,.6-.15,1.15,1.15,0,0,1,.45-.15,3.46,3.46,0,0,1,1.95-.3h.75a2.13,2.13,0,0,1,1.12,0,3.43,3.43,0,0,1,1,.45,4.27,4.27,0,0,1,1.28.45,4.38,4.38,0,0,0,1.12.45.61.61,0,0,1,.45.15,7.4,7.4,0,0,0,1.88,1.05c.75.3,1.17.65,1.27,1a5.42,5.42,0,0,1,.3,1.72,10.35,10.35,0,0,0,.15,1.72,5.46,5.46,0,0,1-.07.9,7.43,7.43,0,0,1-.23.9c-.2.4-.43.85-.67,1.35a5.18,5.18,0,0,1-1,1.35,5.56,5.56,0,0,0-.52.6,5.7,5.7,0,0,1-.53.6,7,7,0,0,1-1.35,1.05,3.15,3.15,0,0,1-1.65.45,2.09,2.09,0,0,0-.9.15,2.65,2.65,0,0,1-1.19.3h-1.35c-.7.1-1.38.18-2,.23a9.23,9.23,0,0,1-2-.08,1.87,1.87,0,0,0-1.05,0,6.12,6.12,0,0,1-3,.15c-1,0-2,0-2.92.08s-1.88.07-2.78.07H335a1.67,1.67,0,0,0-.75.15,3.13,3.13,0,0,1-1.42.3,7.89,7.89,0,0,1-1.57-.15h-1.5a1.63,1.63,0,0,0-.45.08.9.9,0,0,1-.6-.08,1.51,1.51,0,0,0-.83-.07,6.79,6.79,0,0,0-.82.22,1.44,1.44,0,0,0-.53.08,2,2,0,0,1-.52.07,10.76,10.76,0,0,0-2.85.08C322.26,695.37,321.31,695.54,320.31,695.74Z"/><path class="cls-22" d="M444.3,696l-1-.3-1-.3a13.44,13.44,0,0,1-2.4-1.2,2,2,0,0,1-.9-.9l-1.95-3.07c-.6-.95-1.25-1.93-2-2.93L433.8,685q-1.05-2.1-2.1-4.13t-2.1-4a6.37,6.37,0,0,0-.67-1.28,7.76,7.76,0,0,1-.68-1.12c-.7-1.1-1.34-2.22-1.94-3.37s-1.2-2.27-1.8-3.38l-3.75-7.34c-1-2-2-4-3-5.92s-2-3.93-3-5.93a3.49,3.49,0,0,1-.6-.9,22.81,22.81,0,0,0-1.42-3.14c-.55-1-1.08-2-1.58-3a17.48,17.48,0,0,1-1.05-2.18,17.35,17.35,0,0,0-1.05-2.17l-1.65-3A.57.57,0,0,1,407,634a.4.4,0,0,0-.15.3q-.17,2-.3,4.05a26.77,26.77,0,0,0,0,4.2,3.4,3.4,0,0,1,0,2,14.72,14.72,0,0,0,.15,4.79,3.47,3.47,0,0,1,.07,1.2c-.05.4-.13.85-.22,1.35a12.5,12.5,0,0,0-.15,2,15.53,15.53,0,0,1-.15,2,2.93,2.93,0,0,1,.3,1.27,5.83,5.83,0,0,1-.15,1.28,5.62,5.62,0,0,0,0,3.15.78.78,0,0,1,0,.9,5.69,5.69,0,0,0-.3,3.3,13.4,13.4,0,0,1-.3,5.54,2.41,2.41,0,0,0-.15,1.05,1,1,0,0,0,.3,1q.58.3.3.75a24.89,24.89,0,0,0,0,4,.14.14,0,0,1-.15.15c-.11,0-.15-.05-.15-.15a.4.4,0,0,1-.15-.3c-.21-.2-.3-.15-.3.15a1.56,1.56,0,0,0,.15.9,4.22,4.22,0,0,1,.3,1.5v6.14a5.47,5.47,0,0,1-.08.9,1.08,1.08,0,0,1-.52.75q-.6.15-.6,1a5.15,5.15,0,0,1-1.13,2.85,12.3,12.3,0,0,1-2.17,2.1,2.76,2.76,0,0,1-1.43.53,5.43,5.43,0,0,1-1.57-.08l-2.7-.9q-.3,0-.6-.45c-.3-.3-.6-.62-.9-1a6.58,6.58,0,0,0-1.05-1,2.52,2.52,0,0,1-1.05-1.65,13.87,13.87,0,0,0-.45-1.65,5.65,5.65,0,0,1-.3-1.79c0-.7,0-1.35.08-1.95s.07-1.25.07-2a7.32,7.32,0,0,0,.15-1.43,7.23,7.23,0,0,1,.15-1.42V624.53c0-.5,0-1,.08-1.5a9.52,9.52,0,0,1,.22-1.35c0-.5,0-1,.08-1.5s.07-1,.07-1.5,0-1.2.08-1.8a14.7,14.7,0,0,1,.22-1.65,4.41,4.41,0,0,0,.15-1.05v-5.7a7.14,7.14,0,0,1,.23-1.87c.15-.55.27-1.13.37-1.72l.45-.75a3.42,3.42,0,0,0,.75-1.35q.3-.9.9-.9a8.45,8.45,0,0,1,.9-.53,1.17,1.17,0,0,0,.6-.82l.15-.15a.67.67,0,0,0,.3-.08.66.66,0,0,1,.3-.07,1.5,1.5,0,0,0,1-.3,1.08,1.08,0,0,1,1-.15,4.93,4.93,0,0,0,1.2.15,4.93,4.93,0,0,1,1.2.15,6,6,0,0,1,4.65,3.9l.89,3a5,5,0,0,0,1.35,2.85q.9,1,1.8,2.25t2,2.4a76.21,76.21,0,0,1,7.2,11.09l.6,1.2.6,1.2,7.79,15.75c.6,1.1,1.18,2.22,1.73,3.37a31.89,31.89,0,0,0,1.87,3.37c.2.4.4.78.6,1.13a4.38,4.38,0,0,1,.45,1.12,30.21,30.21,0,0,0,1.8,3.6q.15.15.15,0a.43.43,0,0,0,.3-.15l.45-5.25v-1.5c.1-.5.17-1,.23-1.57a13.07,13.07,0,0,1,.22-1.58,2.48,2.48,0,0,0,.08-1,3,3,0,0,1,.07-1.2c0-.6,0-1.23.08-1.88a18.07,18.07,0,0,1,.22-1.87,3.1,3.1,0,0,0,.15-1v-5h-.15v-5.55a4.05,4.05,0,0,0-.3-1.5,4.55,4.55,0,0,1-.15-1.35l.15-1a5.25,5.25,0,0,0-.07-.83,3.51,3.51,0,0,1-.08-.82,1.69,1.69,0,0,0-.15-1.2,2.66,2.66,0,0,1-.3-1.2,4.93,4.93,0,0,0,.15-1.2v-1.2a.53.53,0,0,0-.6-.6q-.15,0-.15-.3a1,1,0,0,1,0-.75,4.4,4.4,0,0,0,.3-1.65v-6.15a3.69,3.69,0,0,1,.15-1.8,8.56,8.56,0,0,1,.75-1.65l.6-.89q.75-.75,1.65-1.5l1.8-1.5.6-.3,1.42-.3a3.44,3.44,0,0,1,1.43,0,2.15,2.15,0,0,1,.9.15c.39.2.79.42,1.2.67s.79.53,1.2.83a.85.85,0,0,1,.37.3,1.15,1.15,0,0,0,.22.3,3.48,3.48,0,0,1,.53.67c.15.25.27.48.37.68a2.73,2.73,0,0,1,1,1.42c.15.55.27,1.07.37,1.57v6.3c0,.7,0,1.38.08,2s.12,1.33.22,2a4.61,4.61,0,0,1,.15,1.12v1.13c0,.8,0,1.62.08,2.47s.07,1.68.07,2.48v1c0,.71,0,1.38-.07,2s-.08,1.32-.08,2v6.6c0,1,0,2-.07,3.07a23.39,23.39,0,0,0,.07,3.23,2.09,2.09,0,0,1-.15.9c-.1,1-.15,2-.15,2.92s0,1.92-.15,2.92v1.35a7.63,7.63,0,0,1-.15,1.5,3.24,3.24,0,0,0-.07,1.2,9.66,9.66,0,0,1,.07,1.2,9.87,9.87,0,0,1,.23,2.7c0,.9-.13,1.8-.23,2.7-.1,1.6-.17,3.22-.22,4.87a34,34,0,0,0,.22,5c0,.4,0,.85.08,1.35s.07,1,.07,1.5a17.89,17.89,0,0,0,.23,4.35c.25,1.4.52,2.8.82,4.2.2,1,.4,2,.6,2.92a26.91,26.91,0,0,1,.45,3.07c0,.4-.05.66-.15.75s-.2.43-.3.68a1.82,1.82,0,0,0-.15.67,5.33,5.33,0,0,1-.82,2.25c-.45.7-.93,1.4-1.43,2.1A4.93,4.93,0,0,1,444.3,696Z"/><path class="cls-22" d="M498.12,694.54a2.09,2.09,0,0,0-.9-.15q-.3,0-.6-.45c-.2-.3-.4-.57-.6-.82a5.6,5.6,0,0,1-.6-1q-.45-.6-.75,0h-.3a.43.43,0,0,0-.15-.3,16.33,16.33,0,0,0-1.35-3.9c-.3-.79-.58-1.62-.82-2.47a14.32,14.32,0,0,1-.53-2.62l-.9-6.6-.45-5.4v-.3a22.26,22.26,0,0,1-.3-3.67v-3.82a14.39,14.39,0,0,1-.15-2,14.25,14.25,0,0,0-.15-2c-.1-.8-.17-1.6-.22-2.4s-.08-1.55-.08-2.25l.15-11.84v-16q-.3-.9-.9-.9a3.47,3.47,0,0,0-.67.08,3.56,3.56,0,0,1-.68.08l-6.74,1.79c-.9.3-1.8.58-2.7.83s-1.8.52-2.7.82c-.7.1-1.38.18-2,.23s-1.32.07-2,.07a3,3,0,0,1-1.65-.6,5.51,5.51,0,0,1-1.8-1.2c-.5-.49-1-1-1.5-1.65l-.3-.45c-.2-.69-.37-1.37-.52-2a5.46,5.46,0,0,1-.08-2,8.73,8.73,0,0,1,.68-2.55,5.8,5.8,0,0,1,1.57-2.1,3.89,3.89,0,0,0,.83-.75c.25-.3.52-.6.82-.9a2.63,2.63,0,0,1,.75-.3,3.63,3.63,0,0,0,1.65-.37,6,6,0,0,1,1.5-.53l1.5-.3,1.5-.3c1.4-.4,2.8-.77,4.2-1.12a40.82,40.82,0,0,1,4.19-.83l8.1-1.35A1.23,1.23,0,0,1,493,610a.5.5,0,0,0,.37-.15,11.85,11.85,0,0,1,1.8-.45,3.69,3.69,0,0,1,1.8.15.68.68,0,0,0,.52.08,1.29,1.29,0,0,1,.38-.08l5.1-.6c1.69-.2,3.34-.45,4.94-.75l3.9-.6q1.95-.3,3.9-.45c1-.19,2-.35,3-.45s2-.2,3-.3l2.47-.3c.85-.09,1.67-.19,2.47-.3a13.11,13.11,0,0,1,2.33-.07c.75,0,1.52.07,2.32.07a2.62,2.62,0,0,1,1.43.45A11.93,11.93,0,0,0,534,607a18.61,18.61,0,0,1,1.65,1.5,3.51,3.51,0,0,1,.6,1.35c.1.3.2.63.3,1s.2.72.3,1.12a3.73,3.73,0,0,1-.3,2.55l-.9,2.1a3.87,3.87,0,0,1-.38.82,3.5,3.5,0,0,1-.52.68l-.3.3c-.4.3-.82.6-1.27.9a4,4,0,0,1-1.58.6l-6.45.45c-.6,0-1.2,0-1.79.07s-1.26.13-1.95.23h-.75q-2.4.15-4.65.45l-4.5.6-6,.9a.87.87,0,0,0-.6.15q-.6,0-.9.9V627c0,1,.05,1.92.15,2.92a9.91,9.91,0,0,1,0,4.2,7.32,7.32,0,0,0-.22.82,3.65,3.65,0,0,0-.08.68,13.67,13.67,0,0,1-.29,3.9v.9a2.82,2.82,0,0,0,.14.9,5.58,5.58,0,0,1,.15,1.35V652c0,.4,0,.88-.07,1.43s-.08,1.07-.08,1.57,0,.85.08,1.35.07,1,.07,1.5c0,.7,0,1.4.08,2.1a11.56,11.56,0,0,1-.08,2.25v4.64a.63.63,0,0,1-.07.3.52.52,0,0,0,.07.45,25.21,25.21,0,0,1,.15,2.78,12.71,12.71,0,0,0,.3,2.77,5.47,5.47,0,0,0,.08.9,1.85,1.85,0,0,1-.08.9,13.33,13.33,0,0,0,.3,2.77c.2,1,.35,1.88.45,2.78.2,1.1.43,2.2.68,3.3s.47,2.2.67,3.29l.45,2.1a.88.88,0,0,1-.45.75.43.43,0,0,0-.3.15q-.75.3-.6.9v.75q-.15.3-.3.3a1.43,1.43,0,0,0-1.2.6,4.51,4.51,0,0,1-1,1,6.28,6.28,0,0,1-1.27.67A5.7,5.7,0,0,1,498.12,694.54Z"/><path class="cls-22" d="M576.08,696.19a.63.63,0,0,0-.45-.15c-1-.6-2-1.18-2.93-1.72a16.6,16.6,0,0,1-2.62-1.88,1.62,1.62,0,0,1-.75-.6,9.7,9.7,0,0,1-2.4-1.87,19.39,19.39,0,0,1-1.95-2.48,4.47,4.47,0,0,1-.6-.75,5.91,5.91,0,0,0-.75-.89,11.35,11.35,0,0,1-2.4-3.6,3.79,3.79,0,0,0-.45-.9l-.6-.9a11.14,11.14,0,0,1-1.35-2.25,10.2,10.2,0,0,0-.9-2.33c-.4-.74-.8-1.47-1.19-2.17a7.32,7.32,0,0,0-.45-1.2,4.89,4.89,0,0,1-.45-1.2,3.73,3.73,0,0,0-.45-1.65c-.4-1.1-.78-2.22-1.13-3.37s-.67-2.32-1-3.52a2.3,2.3,0,0,1-.3-.9,19.27,19.27,0,0,1-1.35-4.05q-.45-2.1-.9-4l-.9-6.75a1.61,1.61,0,0,1-.15-.75v-2.47a5.42,5.42,0,0,0-.3-1.72,8.6,8.6,0,0,1,.15-3.6,8.16,8.16,0,0,1,.07-1.13,7.87,7.87,0,0,0,.08-1.12c0-.5,0-1,.07-1.57a9.52,9.52,0,0,1,.23-1.43,3.9,3.9,0,0,0,.15-1.2,16.51,16.51,0,0,0,.37-2.62c0-.85.13-1.67.23-2.48a19.16,19.16,0,0,0,.45-4,8.06,8.06,0,0,1,.07-1.13,11.19,11.19,0,0,1,.23-1.12,8.94,8.94,0,0,0-.15-2,1.82,1.82,0,0,1-.15-1.65,2.3,2.3,0,0,0,.3-.9,1.48,1.48,0,0,0,.15-.68c0-.24.15-.42.45-.52h1a.69.69,0,0,0,.75-.45q.15-.6,1.05-.9l1.35-.52a5.27,5.27,0,0,0,1.2-.68,1.82,1.82,0,0,1,1-.3,4.93,4.93,0,0,1,1.2.15l2.7.9c.1.1.18.15.23.15s.12.05.22.15a12,12,0,0,1,2,2.7,8.33,8.33,0,0,1,1,3.3v1.12a2.55,2.55,0,0,1-.3,1.13l-.3,1.8q-.15.9-.3,1.95a20.28,20.28,0,0,0-.37,2.92c-.05.95-.08,1.92-.08,2.92a4.69,4.69,0,0,0-.15,1.13,4.61,4.61,0,0,1-.15,1.12q-.15,1.8-.15,3.6a19.26,19.26,0,0,0,.3,3.45,2.13,2.13,0,0,0,.08.45.85.85,0,0,1-.08.6,17.62,17.62,0,0,0,.3,3.15c.2,1.1.35,2.2.45,3.29s.2,2,.3,2.85a25.34,25.34,0,0,0,.45,2.7,4,4,0,0,1,.38,1.2,10.1,10.1,0,0,0,.22,1.2q.6,2.85,1.35,5.55a38.41,38.41,0,0,0,1.95,5.39,23.88,23.88,0,0,0,1.5,2.85,41.11,41.11,0,0,1,2.1,4.2c.4.7.8,1.38,1.2,2s.8,1.33,1.2,2a13.37,13.37,0,0,0,1.2,1.35c.39.4.79.85,1.19,1.35a1.92,1.92,0,0,0,2,.45,3.22,3.22,0,0,0,1-.6c.5-.3,1-.6,1.43-.9a8.33,8.33,0,0,0,1.27-1.05c1.1-1.1,2.12-2.2,3.08-3.3a20.48,20.48,0,0,0,2.47-3.6q.9-1.65,1.8-3.45c.6-1.2,1.15-2.4,1.65-3.59.6-1.4,1.17-2.8,1.72-4.2s1.07-2.85,1.58-4.35a22.87,22.87,0,0,0,1.49-6.15c.2-1.1.38-2.22.53-3.37a15.91,15.91,0,0,0,.08-3.37,5.46,5.46,0,0,1,.07-.9,36,36,0,0,1,.3-2.85c0-.6-.13-1.2-.23-1.8-.1-1.7-.22-3.32-.37-4.87s-.28-3.13-.38-4.73a6.61,6.61,0,0,0-.14-1.65c-.11-.9-.18-1.79-.23-2.69a17.87,17.87,0,0,0-.37-2.7v-1.2c0-1,0-2-.08-2.93s-.07-1.92-.07-2.92c0-.8,0-1.52-.08-2.17s-.07-1.33-.07-2a5,5,0,0,1,.45-2.25,1.56,1.56,0,0,0,.3-1.2.89.89,0,0,1,.44-1.35,7.2,7.2,0,0,1,1.58-1.19,5.48,5.48,0,0,1,1.87-.6,1.23,1.23,0,0,1,.53-.15.5.5,0,0,0,.37-.15,2.74,2.74,0,0,1,2.4-.45,2.09,2.09,0,0,0,.9.15,3.32,3.32,0,0,1,1.95,1.05,8.54,8.54,0,0,0,1.35,1,3.54,3.54,0,0,1,1.65,1.5,6.42,6.42,0,0,1,.6,1.95c.2,1,.37,2,.52,2.85a10.76,10.76,0,0,1,.08,2.85v1.35c0,1,0,2,.07,2.92s.13,1.93.23,2.93a3,3,0,0,1,.15,1v1c0,.6,0,1.17.07,1.72s.13,1.12.23,1.72a2.15,2.15,0,0,1,.15.9,11.45,11.45,0,0,0,.07,2.93c.15,1,.28,1.92.38,2.92s.17,2,.22,3.15.08,2.2.08,3.3a.45.45,0,0,1,.07.45,2.46,2.46,0,0,0-.07.6,6.52,6.52,0,0,0-.15,3.15,9.37,9.37,0,0,1-.15,3.74l-.3,2.7q-.15,1.35-.45,2.85a27.51,27.51,0,0,1-1.05,4.8l-1.5,4.8a2.61,2.61,0,0,1-.45,1,17.35,17.35,0,0,0-1.05,2.17,18.46,18.46,0,0,0-.75,2.32l-.45,1.05a28.87,28.87,0,0,0-1.27,2.93,31.33,31.33,0,0,1-1.28,2.92l-.9,1.8a9.26,9.26,0,0,1-1,1.65,2.35,2.35,0,0,1-.45.6,6.92,6.92,0,0,1-.9,2l-1.2,1.8a31.48,31.48,0,0,1-3.82,4.79,42.22,42.22,0,0,1-4.72,4.2l-1.8,1a31.94,31.94,0,0,1-4.42,1.8,25.82,25.82,0,0,1-4.73,1,4.57,4.57,0,0,1-1.65,0h-.9a1.61,1.61,0,0,0-.89.3Z"/><path class="cls-22" d="M642.94,697.69a5.08,5.08,0,0,1-4.65-1.8,15.46,15.46,0,0,1-1.65-1.95,9.74,9.74,0,0,1-1.2-2.25c-.5-1.4-1-2.82-1.35-4.27s-.75-2.87-1.05-4.27a12,12,0,0,1-.45-3.15c-.1-1.1-.22-2.18-.37-3.23a22.6,22.6,0,0,1-.23-3.22v-1.87a11.45,11.45,0,0,0-.15-1.88,4.41,4.41,0,0,1-.15-1v-5.32c0-1.45-.05-2.87-.15-4.27a14.54,14.54,0,0,0-.15-2.18,8.45,8.45,0,0,0-.59-2,6.16,6.16,0,0,1-.15-3.6.82.82,0,0,1,.15-.6,11,11,0,0,0,.37-2.1,10.47,10.47,0,0,0-.07-2.09,6.94,6.94,0,0,1-.15-1.5v-1.35a23.67,23.67,0,0,1-.08-3.38c0-1.15.12-2.27.23-3.37a3.13,3.13,0,0,0,.14-.9v-.9a13.15,13.15,0,0,1,.08-3.15c.15-1,.27-2,.37-3,.2-1.2.4-2.37.6-3.52s.45-2.32.75-3.52a4.4,4.4,0,0,0,.3-1.65v-1.8c0-.5,0-1-.07-1.5s-.08-.95-.08-1.35v-.9a2.83,2.83,0,0,1,.15-.9,2.83,2.83,0,0,0,.15-.9.87.87,0,0,1,.15-.6,10.94,10.94,0,0,0,.75-1.12,3.28,3.28,0,0,1,.9-1c.5-.3,1-.6,1.43-.9a11.93,11.93,0,0,1,1.27-.75,3.52,3.52,0,0,0,1.2-.75,17.27,17.27,0,0,1,1.28-1.42,6.13,6.13,0,0,0,1.12-1.57c.5-.5,1-1.08,1.57-1.73a7,7,0,0,1,1.88-1.57,4.27,4.27,0,0,0,.9-.75,8.39,8.39,0,0,1,4.2-2.1c.3-.1.57-.17.82-.23a4.28,4.28,0,0,1,.83-.07l1-.45a1.84,1.84,0,0,1,2.1.45,3.24,3.24,0,0,0,.83.82c.35.25.67.48,1,.68.8.7,1.58,1.45,2.33,2.25a15.84,15.84,0,0,1,2,2.7,45.33,45.33,0,0,1,2.62,4.79q1.13,2.4,2.18,5l2.7,6.45a3.54,3.54,0,0,0,.75,1.65,21.69,21.69,0,0,1,1.8,4.57c.39,1.55.79,3.12,1.19,4.72a3,3,0,0,1,.23.6,2.46,2.46,0,0,1,.07.6c.2.8.38,1.63.53,2.47a8.31,8.31,0,0,1,.07,2.48,9.16,9.16,0,0,1-.07,2.62c-.15.85-.33,1.68-.53,2.48a21.31,21.31,0,0,1-1,2.77c-.41.85-.86,1.72-1.35,2.62a4.33,4.33,0,0,1-1.05,1.65,18.27,18.27,0,0,1-1.5,1.35,9.4,9.4,0,0,0-2.4,1.8,2,2,0,0,1-.68.45,2,2,0,0,0-.67.45l-2.25,1c-.8.35-1.6.67-2.4,1-.1,0-.15.07-.15.22a.52.52,0,0,0,.15.38l4.05,2.85,1.35.82c.4.25.8.53,1.2.83l.9.45q1.8,1,3.6,2.25c1.2.8,2.34,1.6,3.44,2.39,2.1,1.31,4.2,2.63,6.3,4a57.93,57.93,0,0,1,6,4.42,24,24,0,0,1,4.5,4.5c.3.3.6.62.9,1a3.32,3.32,0,0,0,1,.83l.45.45a8.14,8.14,0,0,1,2.7,5.69,5.46,5.46,0,0,1-.07.9,5.47,5.47,0,0,0-.08.9,2,2,0,0,1-.6,1.5q-.6.3-.6.75a2.59,2.59,0,0,1-1.27,1.43,7.16,7.16,0,0,0-1.57,1,2.64,2.64,0,0,1-1,.15l-1.88-.3a12.27,12.27,0,0,0-1.87-.15,4.24,4.24,0,0,1-2.55-1c-.6-.5-1.15-1-1.65-1.42a10.66,10.66,0,0,1-1.5-1.73,21.88,21.88,0,0,0-5.1-4.94q-1.5-1.2-2.85-2.25a22.67,22.67,0,0,0-3-2c-.7-.4-1.38-.83-2-1.28a17.73,17.73,0,0,0-2.17-1.27q-3.75-2.55-7.65-5t-7.79-5a15.81,15.81,0,0,0-1.35-.9c-.51-.29-1-.59-1.5-.89a3.49,3.49,0,0,0-.9-.6q-.6,0-.6.45a.29.29,0,0,1-.08.22.32.32,0,0,0-.07.23V667a2.83,2.83,0,0,0,.15.9,18.83,18.83,0,0,1,.15,2.33v2.32c0,.6,0,1.18.07,1.73s.13,1.12.23,1.72a6.71,6.71,0,0,0,.07,1,7.16,7.16,0,0,1,.08,1,8.19,8.19,0,0,0,.15,2.7,25.34,25.34,0,0,1,.45,2.7l.9,3.89c.1.41.2.83.3,1.28s.2.92.3,1.42a3.15,3.15,0,0,1,.07,1.13c-.05.35-.13.72-.22,1.12q0,.15-.3.45a1.4,1.4,0,0,0-1.05,1,6.09,6.09,0,0,1-1.28,1.88c-.55.54-1.12,1.07-1.72,1.57a1.63,1.63,0,0,1-.6.3A5.82,5.82,0,0,0,642.94,697.69Zm5.85-52.47h.3c1.09-.2,2.22-.43,3.37-.68a26,26,0,0,0,3.37-1,6.31,6.31,0,0,0,2.85-1.65,3.3,3.3,0,0,0,1.05-2.4,9.3,9.3,0,0,0,.08-2,11.15,11.15,0,0,0-.38-2q-.6-2.7-1.35-5.32a39.72,39.72,0,0,0-1.8-5l-1.35-3.6a29.11,29.11,0,0,0-1-2.93,28.33,28.33,0,0,0-1.35-2.77c-.1-.2-.2-.42-.3-.68s-.2-.47-.3-.67l-.59-.6c-.3-.4-.66-.4-1.05,0-.11,0-.25.1-.45.3A21.59,21.59,0,0,0,648,617a8.17,8.17,0,0,0-1,3.3,10.14,10.14,0,0,0-.23,1.2,11,11,0,0,0-.07,1.35v6.44a41.58,41.58,0,0,0-.08,4.35,24.87,24.87,0,0,1-.22,4.35,1.85,1.85,0,0,0-.08.9,5.47,5.47,0,0,1,.08.9,10.44,10.44,0,0,1,.15,1.72v1.73c0,1,.12,1.6.37,1.8A3.11,3.11,0,0,0,648.79,645.22Z"/><path class="cls-22" d="M725.7,695.74a3.12,3.12,0,0,1-1.2-.15,2.84,2.84,0,0,0-1.43-.22c-.45,0-.92.07-1.42.07a.56.56,0,0,0-.3.08.66.66,0,0,1-.3.07,14.25,14.25,0,0,1-2,.15,5.88,5.88,0,0,1-1.88-.3.43.43,0,0,0-.3-.15,2,2,0,0,1-1.8-.6,18.27,18.27,0,0,0-1.5-1.35,2.29,2.29,0,0,1-.75-1.65l-.45-1.2a3.47,3.47,0,0,1-.3-2,.84.84,0,0,0,.08-.6,2.41,2.41,0,0,1-.08-.6,1.44,1.44,0,0,1-.15-.67,1.54,1.54,0,0,0-.15-.68,16.65,16.65,0,0,1-.37-2.77,10,10,0,0,1,1.12-5.85c.6-1.44,1-2.32,1-2.62a2.56,2.56,0,0,0,.45-1.2,25.11,25.11,0,0,1-.07-3.37c.05-1.15.07-2.27.07-3.38a2.68,2.68,0,0,1,.45-1.64,2.54,2.54,0,0,0,.15-2.25l-.45-1.65a2.31,2.31,0,0,1,.15-2.85.32.32,0,0,1,.08-.23.29.29,0,0,0,.07-.22.79.79,0,0,0,.15-.83,3.12,3.12,0,0,1-.15-.82,4,4,0,0,1,.23-1.27,2.26,2.26,0,0,0,.07-1.28l-.3-.3a2.65,2.65,0,0,1-.07-1.2c0-.6.07-1,.07-1V647a7.15,7.15,0,0,0,.15-1.42,7.23,7.23,0,0,1,.15-1.42,7.79,7.79,0,0,0,.08-1.88c-.05-.65-.08-1.32-.08-2a14.7,14.7,0,0,1-.22-1.65c0-.6-.08-1.2-.08-1.8a1.67,1.67,0,0,1-.15-.75v-.75c-.1-.5-.17-1-.22-1.5s-.08-1-.08-1.5a11.39,11.39,0,0,0-.6-2,6.63,6.63,0,0,1-.45-2.93,1.64,1.64,0,0,0,.15-.75,1,1,0,0,0-.3-.75.6.6,0,0,1-.3-.6v-.44a5.08,5.08,0,0,0-.45-3.6,2.45,2.45,0,0,1-.45-1.8,2,2,0,0,0-1-1.8,7.85,7.85,0,0,1-1.35-1.8,5.73,5.73,0,0,1-.75-2.1,7.63,7.63,0,0,1-.15-1.5v-1.35a1.19,1.19,0,0,1,.15-.75,2,2,0,0,0,.6-1.42,4.25,4.25,0,0,1,.15-1.28.46.46,0,0,1,.3-.15.47.47,0,0,0,.3-.15c.39-.09.6-.45.6-1a2.26,2.26,0,0,1-.3-1.05.93.93,0,0,1,.45-1c.19-.4.45-.5.75-.3a2.64,2.64,0,0,0,2.39-.3,2.63,2.63,0,0,1,.75-.3h.45a1.56,1.56,0,0,1,.9-.15,1.83,1.83,0,0,0,1.65-.6,3.47,3.47,0,0,1,2.55-1.05h9.3q3.44.15,6.89,0t6.75-.15a9,9,0,0,0,1.27-.08,11.17,11.17,0,0,0,1.13-.22,4.64,4.64,0,0,1,2.1-.45h3.45c.79,0,1.52,0,2.17-.08s1.32-.12,2-.22a4.69,4.69,0,0,1,1.13-.15h2.32a4.93,4.93,0,0,0,1.2-.15c.8-.1,1.65-.18,2.55-.23s1.75-.07,2.55-.07a7.87,7.87,0,0,0,1.12-.08,11.17,11.17,0,0,0,1.13-.22,13.18,13.18,0,0,1,2.32-.38c.75,0,1.47-.12,2.18-.22l2.32-.3,2.17-.3a4.65,4.65,0,0,1,1.95.3c.6.4,1.18.75,1.73,1.05a7.13,7.13,0,0,1,1.57,1.2,3,3,0,0,1,.75,1.05l.3,1.2q.15.6.3,1.35v1.05a14.8,14.8,0,0,0-.23,1.57c-.05.55-.12,1.12-.22,1.72a4,4,0,0,1-.75,1l-2.7,2.7a16,16,0,0,1-2.92.6,14.34,14.34,0,0,1-2.93,0h-1a7.53,7.53,0,0,1-3,0,7.24,7.24,0,0,0-1.8-.07c-.6,0-1.2.07-1.8.07a8,8,0,0,0-1.13.08,2.9,2.9,0,0,1-1.12-.08,4.6,4.6,0,0,0-1.42-.07c-.45,0-.93.12-1.43.22a11.54,11.54,0,0,0-1.27.08,13,13,0,0,1-1.43.07,27.06,27.06,0,0,1-4.12.3,30,30,0,0,0-4.27.3,8.62,8.62,0,0,0-2.55.08c-.8.15-1.65.27-2.55.37a20.58,20.58,0,0,1-2.55.15,10.48,10.48,0,0,0-2.55.3A11.41,11.41,0,0,0,736,615a18.9,18.9,0,0,1-2.93.52l-1,.15a8,8,0,0,0-1.94.22c-.6.15-1.26.33-1.95.53a8.42,8.42,0,0,1-1.2.22c-.4.06-.85.13-1.35.23a2.42,2.42,0,0,0-1,.3q-.45.15-.45.9l.45,1.35a3.18,3.18,0,0,1-.08,1.5c-.15.8-.27,1.4-.37,1.8a2.83,2.83,0,0,0,.15.9l.3.9a7.39,7.39,0,0,1,.45,2.62,10.77,10.77,0,0,0,.3,2.62,5.28,5.28,0,0,1,.15,1.28,7.23,7.23,0,0,0,.15,1.42,3.49,3.49,0,0,0,.07.68,4.15,4.15,0,0,1,.08.82.87.87,0,0,1-.15.6,2.19,2.19,0,0,0-.45,1.35v1.5a6.66,6.66,0,0,1,.75,3v3q0,.45.75.3h.15a3.49,3.49,0,0,1,.6-.9,2.42,2.42,0,0,0,1-.3,2.11,2.11,0,0,1,1.2-.3,6.66,6.66,0,0,0,2.24-.08c.7-.15,1.4-.32,2.1-.52a76.09,76.09,0,0,0,13.2-4.65,27.21,27.21,0,0,1,3.45-1.28,18.89,18.89,0,0,1,3.59-.67h.45l2.7-.3a24.43,24.43,0,0,1,2.7-.15c1.2-.1,2.37-.25,3.52-.45s2.33-.35,3.53-.45c.7-.2,1.35-.37,1.95-.52a13.06,13.06,0,0,0,2-.68,10,10,0,0,1,3.59-.75,10.57,10.57,0,0,1,2.25.53,13.12,13.12,0,0,1,2.1,1,5,5,0,0,1,2.25,4.5,13,13,0,0,1-.22,2.4,13,13,0,0,0-.23,2.4.86.86,0,0,1-.3.6l-.45.75-.3,1.2a1.31,1.31,0,0,1-.75.89l-1.87,1.58a5.34,5.34,0,0,1-2.18,1.12l-1.12.3a4.11,4.11,0,0,1-1.13.15,40.41,40.41,0,0,0-4.87.3l-5,.6c-1.3.1-2.57.25-3.82.45a24.24,24.24,0,0,1-3.83.3,12.85,12.85,0,0,0-4,.75l-3.15.6q-1.65.3-3.3.45c-.8.1-1.63.23-2.48.38s-1.67.27-2.47.37l-2.55.45a2.09,2.09,0,0,1-.9.15,15.74,15.74,0,0,1-2.1.45,15.74,15.74,0,0,0-2.1.45,13.18,13.18,0,0,0-2,.45l-2,.6a2.77,2.77,0,0,0-1.2.52,3.11,3.11,0,0,0-.75,1,1.39,1.39,0,0,0,0,.9,1.69,1.69,0,0,1-.15,1.2c.1,1,.17,2,.22,3a20,20,0,0,1-.07,3,7.79,7.79,0,0,1,.22,2.39c-.05.8-.12,1.6-.22,2.4a5.84,5.84,0,0,0,.15,3,7.1,7.1,0,0,1-.3,4q-.3.9,0,1.2a1,1,0,0,1,0,1v.9q-.15,1.2,1,1.2h.3a3.6,3.6,0,0,1,2.1.75,1.71,1.71,0,0,0,1.8.45l4.19-.45c.6-.1,1.2-.18,1.8-.23s1.2-.07,1.8-.07a1.06,1.06,0,0,1,.9.15,1.35,1.35,0,0,0,1.35.15A1.85,1.85,0,0,1,742,682a1.89,1.89,0,0,0,.83-.45,2.28,2.28,0,0,1,2.25-.6,2.52,2.52,0,0,0,2-.15,5.75,5.75,0,0,1,2.55-.3,2.6,2.6,0,0,0,1.5-.15,3.92,3.92,0,0,1,1.49-.3,1.06,1.06,0,0,1,.45.07.24.24,0,0,0,.3-.07,1.33,1.33,0,0,0,.6-.15,1.15,1.15,0,0,1,.45-.15,3.47,3.47,0,0,1,1.95-.3H757a2.16,2.16,0,0,1,1.13,0,3.43,3.43,0,0,1,1,.45,4.37,4.37,0,0,1,1.28.45,4.24,4.24,0,0,0,1.12.45.61.61,0,0,1,.45.15,7.33,7.33,0,0,0,1.87,1.05c.75.3,1.18.65,1.28,1a5.42,5.42,0,0,1,.3,1.72,10.35,10.35,0,0,0,.15,1.72,5.47,5.47,0,0,1-.08.9,5.9,5.9,0,0,1-.22.9l-.68,1.35a5.15,5.15,0,0,1-1,1.35,5.7,5.7,0,0,0-.53.6,5.56,5.56,0,0,1-.52.6,7,7,0,0,1-1.35,1.05,3.15,3.15,0,0,1-1.65.45,2.09,2.09,0,0,0-.9.15,2.66,2.66,0,0,1-1.2.3h-1.35c-.7.1-1.37.18-2,.23a9.32,9.32,0,0,1-2-.08,1.83,1.83,0,0,0-1,0,6.12,6.12,0,0,1-3,.15c-1,0-2,0-2.93.08s-1.87.07-2.77.07h-2a1.67,1.67,0,0,0-.75.15,3.13,3.13,0,0,1-1.42.3,8.07,8.07,0,0,1-1.58-.15h-1.5a1.63,1.63,0,0,0-.45.08.91.91,0,0,1-.6-.08,1.48,1.48,0,0,0-.82-.07,6.91,6.91,0,0,0-.83.22,1.39,1.39,0,0,0-.52.08,2.06,2.06,0,0,1-.53.07,10.69,10.69,0,0,0-2.84.08C727.65,695.37,726.7,695.54,725.7,695.74Z"/><path class="cls-22" d="M915.5,705.64a3.34,3.34,0,0,1-2.4-1l-.6-.9-.6-.9a16.58,16.58,0,0,1-1.35-6.6l-.45-3.6q-.45-2.1-.75-4.2a18.62,18.62,0,0,0-1.05-4l-.89-2.55a2.47,2.47,0,0,0-.08-.6,3.63,3.63,0,0,0-.22-.6l-2.25-8a2.66,2.66,0,0,1-.23-.75,1.34,1.34,0,0,0-.37-.75,8.38,8.38,0,0,1-.68-1.87c-.15-.65-.32-1.33-.52-2-.1-.49-.2-1-.3-1.42a9.22,9.22,0,0,0-.45-1.42,2.49,2.49,0,0,0-.6-1.13c-.2-.15-.65-.12-1.35.08a15,15,0,0,1-1.58.22,5.55,5.55,0,0,0-1.57.38,9.68,9.68,0,0,1-1.42.22,15,15,0,0,0-1.58.23l-2.1.45c-.5.1-1,.22-1.57.37a6,6,0,0,1-1.58.23l-2.69.44c-.81.21-1.65.41-2.55.6s-1.75.4-2.55.6a60.72,60.72,0,0,1-7.2,1.35q-1.2.3-1.35,1a.13.13,0,0,0-.15.15q-.9,2.4-2,4.73t-2.33,4.72c-.2.4-.37.77-.52,1.12s-.33.73-.52,1.13a4.64,4.64,0,0,0-.3.67l-.3.68a3.78,3.78,0,0,0-.9,2.55A5.68,5.68,0,0,1,865,687c-.3.55-.6,1.07-.9,1.57a.59.59,0,0,1-.6.45,5.86,5.86,0,0,0-1.2.45,14.6,14.6,0,0,1-1.35.6,1.39,1.39,0,0,1-.9,0c-.2-.1-.43-.22-.68-.37a1.34,1.34,0,0,0-.67-.23,2.8,2.8,0,0,1-2.4-2,18.05,18.05,0,0,1-1.65-4.79,1.48,1.48,0,0,1,.08-1.05,6.83,6.83,0,0,0,.37-.9,2.2,2.2,0,0,0,1-1.35v-.15a8.46,8.46,0,0,1,.82-3.68,36.49,36.49,0,0,0,1.43-3.37,13.75,13.75,0,0,1,.75-1.8l.9-1.8a14.2,14.2,0,0,0,1-2c.25-.65.48-1.32.68-2a2.92,2.92,0,0,0,0-2.25,5.48,5.48,0,0,1-.3-1.73,10.44,10.44,0,0,1,.15-1.72,3.89,3.89,0,0,1,1.2-2.85,7.62,7.62,0,0,1,1.27-1.27,13.78,13.78,0,0,0,1.28-1.13,9,9,0,0,0,2.09-3.6,34.86,34.86,0,0,0,1-4c.25-1.35.52-2.67.82-4s.43-2.58.68-3.83.52-2.47.82-3.67a11.77,11.77,0,0,1,.38-1.42c.15-.45.27-.88.37-1.28.3-.8.6-1.57.9-2.32a9.4,9.4,0,0,0,.6-2.33,1,1,0,0,0,0-1.05,2.4,2.4,0,0,1,.08-1.34,11,11,0,0,0,.37-1.2,11.41,11.41,0,0,0,.68-2.1,11.36,11.36,0,0,1,.67-2.1c.5-1.3.92-2.37,1.28-3.23a26.25,26.25,0,0,0,1-2.92,17.55,17.55,0,0,1,.67-1.72,6.93,6.93,0,0,0,.53-1.73,25.07,25.07,0,0,0,.75-2.77,13.41,13.41,0,0,0,.3-2.77,5.81,5.81,0,0,1,.6-1.65,8.86,8.86,0,0,1,1.87-2.55c.75-.7,1.48-1.4,2.18-2.1a6.45,6.45,0,0,1,1.5-.68,1.81,1.81,0,0,1,1.5.23,2.51,2.51,0,0,0,.74.3,2.87,2.87,0,0,1,2.25.6,6.55,6.55,0,0,1,1.5,1.8,1.88,1.88,0,0,1,.45.75,5.82,5.82,0,0,0,.3.75,4.5,4.5,0,0,1,.75,2.4,5.84,5.84,0,0,0,.15,1.27c.1.45.2.93.3,1.42a1.44,1.44,0,0,0,1.35.9.2.2,0,0,1,.3,0,.45.45,0,0,1,.15.3,2,2,0,0,1,.45,2,5.26,5.26,0,0,0-.07,2.33c.15.75.32,1.52.52,2.32l1.2,3,1.2,3,1.5,3.3c.5,1.1,1,2.2,1.35,3.29.5,1.4,1,2.8,1.57,4.2s1.18,2.8,1.88,4.2l.45,1.65a9.18,9.18,0,0,0,.37,1.2,11.09,11.09,0,0,1,.38,1.2c.19.3.37.6.52.9a2.65,2.65,0,0,0,.53.75,5,5,0,0,1,.89,2.25,8.4,8.4,0,0,0,1.35,2.69,1,1,0,0,0,.9.45c1.5-.19,3-.37,4.5-.52a27.34,27.34,0,0,0,4.5-.83,12.37,12.37,0,0,1,3.15-.44,8.16,8.16,0,0,1,5.24,1.94,7.4,7.4,0,0,1,3,5.7,3.9,3.9,0,0,0,.15,1.2,2.23,2.23,0,0,1-.6,1.65,2.79,2.79,0,0,1-.52.9,10.63,10.63,0,0,0-.68.9,3.49,3.49,0,0,1-.6.9l-.89.75a5.61,5.61,0,0,1-.45.67,1.64,1.64,0,0,1-.75.53,9.8,9.8,0,0,0-1.2.37,3.82,3.82,0,0,1-1.35.23,15.05,15.05,0,0,1-4.8-.15h-2.4a2.3,2.3,0,0,0-.9.3q-.6.3-.6.75v.6a17.24,17.24,0,0,1,.68,2.77,8.82,8.82,0,0,0,.82,2.62,2.63,2.63,0,0,0,.3,1.2,15.06,15.06,0,0,1,1.2,2.78,27.74,27.74,0,0,1,.75,2.92,4.91,4.91,0,0,0,.3,1.2,15.87,15.87,0,0,1,.75,2.17,17.45,17.45,0,0,1,.45,2.33,3.15,3.15,0,0,0,.45,1.65,14.26,14.26,0,0,1,.9,2.7,24.43,24.43,0,0,1,.45,2.84.75.75,0,0,1,.15.53,1.47,1.47,0,0,0,.15.67,13.87,13.87,0,0,1,1,3.53c.2,1.25.45,2.47.75,3.67a7.75,7.75,0,0,1,.37,1.87c.05.65.08,1.33.08,2a3.73,3.73,0,0,1-.45,1.65l-.45.45a1.17,1.17,0,0,0-1.05,1l-.45.9a1.37,1.37,0,0,1-.9.75,1.44,1.44,0,0,0-1.05.45,2.27,2.27,0,0,1-1.65.59h-1.42A7.3,7.3,0,0,0,915.5,705.64Zm-36.13-54.43,1.87-.3c.65-.1,1.38-.2,2.18-.3.5-.1,1.14-.2,2-.3l2.24-.3a10.29,10.29,0,0,1,2.1-.37c.7,0,1.4-.13,2.1-.23a7.69,7.69,0,0,1,1.8-.37c.6,0,1.2-.13,1.8-.23.9-.2,1.25-.69,1.05-1.5a17.05,17.05,0,0,0-.52-2.47,4.55,4.55,0,0,0-1.43-2.17,1.22,1.22,0,0,1-.3-.9v-.45c-.2-.8-.42-1.58-.67-2.33s-.53-1.47-.83-2.17a18.67,18.67,0,0,0-.67-2.17c-.25-.65-.53-1.33-.83-2l-1.8-5.4c-.3-.69-.57-1.39-.82-2.09s-.48-1.4-.68-2.1l-.45-.6H887l-.3.45c-.51,1.5-1.08,3-1.73,4.49a41.55,41.55,0,0,0-1.72,4.8,2.47,2.47,0,0,1-.15.75l-.3.9c-.4,1-.78,2.1-1.13,3.3a31.1,31.1,0,0,0-.82,3.6c-.1.7-.2,1.37-.3,2a16.61,16.61,0,0,1-.45,2l-1.35,5.84c-.1.1,0,.23.15.38A.89.89,0,0,0,879.37,651.21Z"/><path class="cls-22" d="M1022.4,696.19a10.93,10.93,0,0,0-1.8-.15,3.15,3.15,0,0,1-1.65-.45,7.11,7.11,0,0,1-2-1.05,16.59,16.59,0,0,1-2.7-3.15,5.82,5.82,0,0,1-.3-.75,1.88,1.88,0,0,0-.45-.75l-1.2-2.7c-.4-.9-.85-1.79-1.35-2.69l-1.5-2.7c-.5-.9-1-1.8-1.49-2.7s-1-1.8-1.5-2.7a23.33,23.33,0,0,1-1.35-2.85l-.9-1.5-1.2-2.1a9.49,9.49,0,0,1-.9-2.1,6.58,6.58,0,0,0-.75-1.35l-1.35-2.24c-.3-.7-.63-1.4-1-2.1a10,10,0,0,0-1.27-1.95l-.9-1.35q-2.4-3.9-4.5-8.1c-.3-.6-.62-1.2-1-1.8s-.73-1.2-1.13-1.8a2.66,2.66,0,0,0-.52-1,9.14,9.14,0,0,1-.68-.89c-.2-.3-.45-.3-.74,0l-.3.82a7.81,7.81,0,0,0-.3.82c-.41,1.11-.75,2.2-1,3.3l-.9,3.3a23.71,23.71,0,0,1-.75,2.85,27.18,27.18,0,0,0-.75,2.7c-.1.7-.2,1.37-.3,2a11.46,11.46,0,0,1-.45,1.88,4.15,4.15,0,0,1-.08.82,6.91,6.91,0,0,1-.22.83,28.26,28.26,0,0,0-.83,4.57c-.15,1.55-.32,3.12-.52,4.72v.9a2.59,2.59,0,0,1,.07,1,5.9,5.9,0,0,1-.22.9,4.86,4.86,0,0,0-.15,2.7,10.1,10.1,0,0,1,.22,1.2,3.24,3.24,0,0,1-.07,1.2c-.1,1-.18,2-.23,2.92s-.07,1.87-.07,2.77a8.49,8.49,0,0,1-.45,2.7,1.37,1.37,0,0,1-.75.75,3,3,0,0,0-.75,1,1.4,1.4,0,0,1-.67.9,3.71,3.71,0,0,0-.83.6.61.61,0,0,1-.45.15.87.87,0,0,0-.6.15c-.3.1-.58.2-.82.3s-.48.2-.68.3a6.81,6.81,0,0,1-1-.07,7,7,0,0,0-1-.08,9.26,9.26,0,0,1-2.4-.45,6.75,6.75,0,0,1-2.1-1.95,2.82,2.82,0,0,0-.44-.82,7.69,7.69,0,0,1-.6-.83,6.65,6.65,0,0,1-1.35-3,17.88,17.88,0,0,0-.83-4.19,35.76,35.76,0,0,0-1.57-4,11.09,11.09,0,0,0-.38-1.2,5.14,5.14,0,0,0-.52-1q-1.05-2.4-2-4.72t-2-4.73a.4.4,0,0,1-.15-.3.47.47,0,0,0-.15-.3,21.14,21.14,0,0,1-1.57-2.77c-.45-1-.93-1.92-1.43-2.92a24.69,24.69,0,0,0-2-3.45,8.49,8.49,0,0,0-.67-1.35c-.25-.4-.48-.8-.68-1.2a2.67,2.67,0,0,1-.22-.75,1.35,1.35,0,0,0-.38-.75,18,18,0,0,1-2-3.6,33.66,33.66,0,0,0-1.88-3.75l-1.64-2.69c-.3-.5-.63-1-1-1.5s-.67-.95-1-1.35a9.44,9.44,0,0,0-.9-1.28,5.48,5.48,0,0,1-.75-1.12c-.4-.6-.8-1.18-1.2-1.73s-.75-1.07-1-1.57-.8-1.17-1.2-1.72-.8-1.08-1.2-1.58a19.21,19.21,0,0,1-1.65-3.15,3.07,3.07,0,0,1,0-1.35c.2-.8.38-1.57.53-2.32s.32-1.47.52-2.17l.45-.6c.4-.4.77-.75,1.12-1.05s.73-.6,1.13-.9a2.63,2.63,0,0,1,.75-.3,9.21,9.21,0,0,1,3.15-.6,6.66,6.66,0,0,1,3,.75,10.94,10.94,0,0,1,1.49.75,4.07,4.07,0,0,1,2.1,2.4c.2.5.43,1,.68,1.5a6,6,0,0,1,.52,1.49,25.24,25.24,0,0,0,3.3,6q1.2,1.65,2.55,3.75a1,1,0,0,1,.45.45,1.74,1.74,0,0,0,.3.45,14.47,14.47,0,0,1,1.65,2.4q.75,1.35,1.35,2.55a14.74,14.74,0,0,1,1,2c.25.65.53,1.33.83,2q1.2,2.7,2.25,5.4t2.1,5.25a7.76,7.76,0,0,0,.75,1.65,8.88,8.88,0,0,1,.74,1.65q.15.15.15,0,.3,0,.3-.15a5.89,5.89,0,0,0,.9-2.25l1.35-4.8.6-1.8q.3-.9.6-2a22.43,22.43,0,0,0,1.35-4.19,7.12,7.12,0,0,1,.9-2.55,3.15,3.15,0,0,0,.45-1.65l.45-1.5,1.8-5.4a38.88,38.88,0,0,1,2.1-5.1c.3-.6.6-1.17.9-1.72s.6-1.07.9-1.57a4,4,0,0,1,.75-1.05,2.23,2.23,0,0,1,1-.6,2.32,2.32,0,0,1,1.35-.9,3.3,3.3,0,0,0,1.35-.6q.13-.15.75-.15a2.45,2.45,0,0,1,1,.3,1.29,1.29,0,0,0,1.34-.15q.75-.6,1.35.3a2.61,2.61,0,0,0,.83,1c.35.25.67.48,1,.68a8.28,8.28,0,0,0,.68.6,1.57,1.57,0,0,1,.52.75l5,8.54c.5.8,1,1.63,1.5,2.48a24.9,24.9,0,0,1,1.35,2.62,6.82,6.82,0,0,1,1,1.65c.25.6.53,1.25.83,2a22.07,22.07,0,0,0,2.55,4.79c.2.3.39.6.6.9a3.79,3.79,0,0,1,.45.9,36.77,36.77,0,0,0,1.72,3.6c.65,1.2,1.27,2.45,1.87,3.75l.38.75.37.75a29.43,29.43,0,0,0,1.8,3.82c.7,1.25,1.4,2.48,2.1,3.68a4,4,0,0,0,.75.89c.2,0,.3,0,.3-.14a3.47,3.47,0,0,0,.45-.75c.3-.9.6-1.78.9-2.63a11.72,11.72,0,0,0,.6-2.62,15.57,15.57,0,0,1,.6-1.95q.75-2.4,1.35-4.72c.4-1.55.8-3.13,1.2-4.73.2-.6.4-1.22.6-1.87s.4-1.27.6-1.87q.9-3.15,1.8-6.23c.6-2,1.15-4.12,1.65-6.22l1.8-7.49a2.91,2.91,0,0,0,0-1.8,1,1,0,0,1,.15-1.2,5.5,5.5,0,0,0,.89-1.65q.3-.9.6-1.65a34.28,34.28,0,0,1,1.2-3.3,3.79,3.79,0,0,1,.45-.9,3.79,3.79,0,0,0,.45-.9,2.2,2.2,0,0,1,1.35-1.05,8.32,8.32,0,0,1,.9-.52,6.91,6.91,0,0,1,.9-.38.52.52,0,0,1,.38-.15.5.5,0,0,0,.37-.15,5.6,5.6,0,0,1,1.58-.37,2.76,2.76,0,0,0,1.42-.53,1.83,1.83,0,0,1,2.1.15,18.4,18.4,0,0,1,2,1.65,4.85,4.85,0,0,1,1.2,2.7,2.83,2.83,0,0,1,.15.9v.9a28.48,28.48,0,0,1-1.35,6.45c-.2.6-.4,1.22-.6,1.87s-.4,1.27-.6,1.87a1.29,1.29,0,0,1-.08.38,1.64,1.64,0,0,0-.07.52,26.6,26.6,0,0,1-.75,4.8q-.6,2.4-1.35,4.65-.6,2-1,3.9t-1,3.9a2.74,2.74,0,0,0-.22.82,1.43,1.43,0,0,1-.38.82,6.35,6.35,0,0,0-.6,1.88,16.47,16.47,0,0,1-.45,2,11.17,11.17,0,0,0-.22,1.13,3.71,3.71,0,0,1-.38,1.12c-.3,1.1-.6,2.23-.9,3.37s-.55,2.28-.75,3.38l-1.35,5.1a11,11,0,0,0-.22,1.12,10.64,10.64,0,0,1-.23,1.12,5.46,5.46,0,0,1-.07.9c0,.3-.13.66-.23,1-.1.6-.22,1.23-.37,1.88s-.28,1.32-.38,2-.2,1.38-.3,2-.2,1.37-.3,2.17a9.66,9.66,0,0,1-.07,1.2,10.9,10.9,0,0,0-.08,1.35l-.45,3.15a25.83,25.83,0,0,1-.15,2.85c-.1.89-.25,1.85-.44,2.84a1.57,1.57,0,0,0-.15.75v.75a3.34,3.34,0,0,1-.6,2.1,4.73,4.73,0,0,1-.45.9c-.21.3-.4.6-.6.9l-.75.75a2.83,2.83,0,0,0-.9.53c-.3.24-.6.47-.9.67A4.3,4.3,0,0,1,1022.4,696.19Z"/><path class="cls-22" d="M1115.2,705.64a3.34,3.34,0,0,1-2.4-1l-.6-.9-.6-.9a16.57,16.57,0,0,1-1.34-6.6l-.45-3.6c-.3-1.4-.56-2.8-.75-4.2a19.21,19.21,0,0,0-1-4l-.9-2.55a2.47,2.47,0,0,0-.08-.6,2.91,2.91,0,0,0-.22-.6l-2.25-8a2.66,2.66,0,0,1-.23-.75,1.34,1.34,0,0,0-.37-.75,8.38,8.38,0,0,1-.68-1.87c-.15-.65-.32-1.33-.52-2-.1-.49-.2-1-.3-1.42a9.22,9.22,0,0,0-.45-1.42,2.49,2.49,0,0,0-.6-1.13c-.2-.15-.65-.12-1.35.08a15.22,15.22,0,0,1-1.57.22,5.62,5.62,0,0,0-1.58.38,9.47,9.47,0,0,1-1.42.22,15,15,0,0,0-1.58.23l-2.1.45c-.5.1-1,.22-1.57.37a6,6,0,0,1-1.57.23l-2.7.44q-1.2.32-2.55.6c-.9.21-1.75.4-2.55.6a60.72,60.72,0,0,1-7.2,1.35q-1.2.3-1.35,1a.13.13,0,0,0-.15.15q-.9,2.4-2,4.73c-.75,1.55-1.53,3.12-2.32,4.72-.21.4-.38.77-.53,1.12s-.32.73-.52,1.13c-.1.2-.2.42-.3.67s-.2.48-.3.68a3.78,3.78,0,0,0-.9,2.55,5.43,5.43,0,0,1-.6,1.72c-.3.55-.6,1.07-.9,1.57a.59.59,0,0,1-.6.45,5.86,5.86,0,0,0-1.2.45,14.6,14.6,0,0,1-1.35.6,1.39,1.39,0,0,1-.9,0c-.2-.1-.43-.22-.67-.37a1.37,1.37,0,0,0-.68-.23,2.8,2.8,0,0,1-2.4-2,18.05,18.05,0,0,1-1.65-4.79,1.48,1.48,0,0,1,.08-1.05,6.83,6.83,0,0,0,.37-.9,2.2,2.2,0,0,0,1-1.35v-.15a8.47,8.47,0,0,1,.83-3.68c.54-1.14,1-2.27,1.42-3.37a13.75,13.75,0,0,1,.75-1.8l.9-1.8a14.2,14.2,0,0,0,1-2c.25-.65.48-1.32.68-2a2.92,2.92,0,0,0,0-2.25,5.48,5.48,0,0,1-.3-1.73,10.44,10.44,0,0,1,.15-1.72,3.89,3.89,0,0,1,1.2-2.85,7.62,7.62,0,0,1,1.27-1.27,13.78,13.78,0,0,0,1.28-1.13,9,9,0,0,0,2.1-3.6,37.08,37.08,0,0,0,1-4c.25-1.35.53-2.67.83-4s.42-2.58.67-3.83.53-2.47.82-3.67a11.77,11.77,0,0,1,.38-1.42c.15-.45.27-.88.37-1.28.3-.8.6-1.57.9-2.32a9.4,9.4,0,0,0,.6-2.33,1,1,0,0,0,0-1.05,2.4,2.4,0,0,1,.08-1.34,11,11,0,0,0,.37-1.2,11.41,11.41,0,0,0,.68-2.1,11.36,11.36,0,0,1,.67-2.1c.5-1.3.93-2.37,1.28-3.23a24.33,24.33,0,0,0,1-2.92,17.58,17.58,0,0,1,.68-1.72,7.35,7.35,0,0,0,.52-1.73,25.07,25.07,0,0,0,.75-2.77,13.41,13.41,0,0,0,.3-2.77,5.81,5.81,0,0,1,.6-1.65,8.86,8.86,0,0,1,1.87-2.55c.75-.7,1.48-1.4,2.18-2.1a6.64,6.64,0,0,1,1.5-.68,1.81,1.81,0,0,1,1.5.23,2.63,2.63,0,0,0,.75.3,2.87,2.87,0,0,1,2.25.6,6.7,6.7,0,0,1,1.49,1.8,1.88,1.88,0,0,1,.45.75,5.82,5.82,0,0,0,.3.75,4.5,4.5,0,0,1,.75,2.4,5.84,5.84,0,0,0,.15,1.27c.1.45.2.93.3,1.42a1.44,1.44,0,0,0,1.35.9.2.2,0,0,1,.3,0,.45.45,0,0,1,.15.3,2,2,0,0,1,.45,2,5.26,5.26,0,0,0-.07,2.33c.15.75.32,1.52.52,2.32l1.2,3,1.2,3,1.5,3.3c.5,1.1,1,2.2,1.35,3.29.5,1.4,1,2.8,1.57,4.2s1.18,2.8,1.88,4.2l.45,1.65a11,11,0,0,0,.37,1.2,11.09,11.09,0,0,1,.38,1.2,8.32,8.32,0,0,1,.52.9,2.87,2.87,0,0,0,.53.75,4.87,4.87,0,0,1,.9,2.25,8.4,8.4,0,0,0,1.35,2.69,1,1,0,0,0,.9.45c1.49-.19,3-.37,4.49-.52a27.34,27.34,0,0,0,4.5-.83,12.37,12.37,0,0,1,3.15-.44,8.19,8.19,0,0,1,5.25,1.94,7.46,7.46,0,0,1,3,5.7,3.62,3.62,0,0,0,.15,1.2,2.27,2.27,0,0,1-.6,1.65,3,3,0,0,1-.53.9,10.47,10.47,0,0,0-.67.9,3.77,3.77,0,0,1-.6.9l-.9.75a3.92,3.92,0,0,1-.45.67,1.59,1.59,0,0,1-.75.53,11,11,0,0,0-1.2.37,3.82,3.82,0,0,1-1.35.23,15.05,15.05,0,0,1-4.8-.15h-2.4a2.3,2.3,0,0,0-.9.3q-.6.3-.6.75v.6a17.24,17.24,0,0,1,.68,2.77,8.82,8.82,0,0,0,.82,2.62,2.63,2.63,0,0,0,.3,1.2,15.06,15.06,0,0,1,1.2,2.78,27.74,27.74,0,0,1,.75,2.92,4.91,4.91,0,0,0,.3,1.2,15.87,15.87,0,0,1,.75,2.17,17.45,17.45,0,0,1,.45,2.33,3.15,3.15,0,0,0,.45,1.65,14.26,14.26,0,0,1,.9,2.7,24.43,24.43,0,0,1,.45,2.84.75.75,0,0,1,.15.53,1.47,1.47,0,0,0,.15.67,13.87,13.87,0,0,1,1,3.53c.2,1.25.45,2.47.75,3.67a7.75,7.75,0,0,1,.37,1.87c.05.65.08,1.33.08,2a3.73,3.73,0,0,1-.45,1.65l-.45.45a1.17,1.17,0,0,0-1,1l-.45.9a1.37,1.37,0,0,1-.9.75,1.44,1.44,0,0,0-1.05.45,2.27,2.27,0,0,1-1.65.59h-1.42A7.36,7.36,0,0,0,1115.2,705.64Zm-36.13-54.43,1.87-.3c.65-.1,1.38-.2,2.18-.3q.75-.15,2-.3l2.25-.3a10.17,10.17,0,0,1,2.1-.37c.69,0,1.39-.13,2.09-.23a7.69,7.69,0,0,1,1.8-.37c.6,0,1.2-.13,1.8-.23.9-.2,1.25-.69,1.05-1.5a15.81,15.81,0,0,0-.52-2.47,4.48,4.48,0,0,0-1.43-2.17,1.22,1.22,0,0,1-.3-.9v-.45c-.2-.8-.42-1.58-.67-2.33s-.53-1.47-.83-2.17a18.67,18.67,0,0,0-.67-2.17c-.25-.65-.53-1.33-.83-2l-1.79-5.4c-.3-.69-.58-1.39-.83-2.09s-.47-1.4-.67-2.1l-.45-.6h-.45l-.3.45c-.5,1.5-1.08,3-1.73,4.49a41.55,41.55,0,0,0-1.72,4.8,2.47,2.47,0,0,1-.15.75l-.3.9c-.4,1-.78,2.1-1.13,3.3a31.1,31.1,0,0,0-.82,3.6c-.1.7-.2,1.37-.3,2a16.61,16.61,0,0,1-.45,2l-1.35,5.84c-.1.1,0,.23.15.38A.89.89,0,0,0,1079.07,651.21Z"/><path class="cls-22" d="M1154,696.19a3.12,3.12,0,0,1-1.2-.15,8.23,8.23,0,0,0-1-.45l-.9-.3a6,6,0,0,1-.82-.67,5.47,5.47,0,0,1-.68-.83.86.86,0,0,0-.6-.3.8.8,0,0,1-.9-.9l-.3-1.8-.3-1.8c-.1-.9-.17-1.8-.22-2.7a13.63,13.63,0,0,0-.38-2.54V682.4a6.51,6.51,0,0,0-.07-1,6.41,6.41,0,0,1-.08-1.05,1.26,1.26,0,0,1,0-1.2,24.37,24.37,0,0,0,0-5.4,7.63,7.63,0,0,1-.15-1.5,7.63,7.63,0,0,0-.15-1.5v-3.07a15.59,15.59,0,0,0-.3-3.07v-2.4c0-.8,0-1.55-.07-2.25s-.13-1.4-.23-2.1c-.1-.9-.17-1.8-.22-2.7s-.13-1.8-.23-2.7a2.57,2.57,0,0,1-.15-1,14.84,14.84,0,0,1-.22-1.57c0-.55-.08-1.07-.08-1.58l-.44-7.49c-.11-.8-.18-1.58-.23-2.33s-.07-1.47-.07-2.17c-.11-1.2-.21-2.4-.31-3.6s-.2-2.35-.29-3.45a2.47,2.47,0,0,0-.08-.6,2,2,0,0,1-.07-.45c0-1.2-.06-2.39-.15-3.59s-.21-2.45-.3-3.75l-.45-4.2a17.81,17.81,0,0,1-.15-5.25,2.84,2.84,0,0,1,1-2.25,1.86,1.86,0,0,1,.44-.37,1.45,1.45,0,0,0,.31-.23c.49-.09.74-.45.74-1.05q0-.3.6-.3h.75a.32.32,0,0,0,.23-.07.29.29,0,0,1,.22-.08,1.8,1.8,0,0,0,.53-.37c.15-.15.27-.23.37-.23a2.47,2.47,0,0,1,.6.08,3.63,3.63,0,0,1,.6.22.57.57,0,0,0,.45-.15,3.56,3.56,0,0,1,1.58.08,8.88,8.88,0,0,1,1.42.52,1.81,1.81,0,0,1,1.35,1.2c.3.9.57,1.78.82,2.63a15.21,15.21,0,0,1,.53,2.62v1.2a7.84,7.84,0,0,1,.3,2.17v2.33c0,.7,0,1.37.07,2s.13,1.28.23,1.88v.9a2.83,2.83,0,0,0,.15.9c0,.59,0,1.19.07,1.79s.13,1.25.23,2q.15,1.65.3,3.45t.15,3.6v1.57a8,8,0,0,0,.15,1.58,2.83,2.83,0,0,1,.15.9v3.9a6.31,6.31,0,0,0,.15,1.5,5.7,5.7,0,0,1,.22,2,9.21,9.21,0,0,0,.08,2l.45,6.9c.1,1,.17,2,.22,3.07s.08,2.13.08,3.23v1.27a5.28,5.28,0,0,0,.15,1.28,2.82,2.82,0,0,1,.15.89v.9a.58.58,0,0,1,.07.53,1,1,0,0,0,.08.67,7.61,7.61,0,0,1,.3,2.1v2.25a11.6,11.6,0,0,0,.07,1.28,12.79,12.79,0,0,1,.08,1.42,8.43,8.43,0,0,1,.15,1.65v1.65a8,8,0,0,1,.15,1.57,8.07,8.07,0,0,0,.15,1.58,1.33,1.33,0,0,1,.15.6,18.41,18.41,0,0,0,.3,3.3l.6,3.29a3.1,3.1,0,0,1,.15,1v1a1,1,0,0,1-.3.75,3,3,0,0,0-.9,1.8.88.88,0,0,1-.45.75,5.67,5.67,0,0,0-1.8,1.2A4.19,4.19,0,0,1,1154,696.19Z"/><path class="cls-22" d="M1204.4,694.54a2.09,2.09,0,0,0-.9-.15c-.2,0-.4-.15-.59-.45s-.41-.57-.6-.82a4.61,4.61,0,0,1-.6-1q-.45-.6-.75,0h-.3a.48.48,0,0,0-.15-.3,16.33,16.33,0,0,0-1.35-3.9c-.3-.79-.58-1.62-.83-2.47a15.19,15.19,0,0,1-.52-2.62l-.9-6.6-.45-5.4v-.3a22.26,22.26,0,0,1-.3-3.67v-3.82a14.39,14.39,0,0,1-.15-2,14.25,14.25,0,0,0-.15-2c-.1-.8-.18-1.6-.23-2.4s-.07-1.55-.07-2.25l.15-11.84v-16q-.3-.9-.9-.9a3.56,3.56,0,0,0-.68.08,3.47,3.47,0,0,1-.67.08l-6.75,1.79c-.9.3-1.8.58-2.7.83s-1.79.52-2.69.82c-.7.1-1.38.18-2,.23s-1.32.07-2,.07a3,3,0,0,1-1.65-.6,5.51,5.51,0,0,1-1.8-1.2c-.5-.49-1-1-1.5-1.65l-.3-.45c-.2-.69-.37-1.37-.52-2a5.46,5.46,0,0,1-.08-2,8.43,8.43,0,0,1,.68-2.55,5.69,5.69,0,0,1,1.57-2.1,3.85,3.85,0,0,0,.82-.75c.25-.3.53-.6.83-.9a2.63,2.63,0,0,1,.75-.3,3.63,3.63,0,0,0,1.65-.37,6,6,0,0,1,1.5-.53l1.5-.3,1.5-.3c1.39-.4,2.79-.77,4.19-1.12a41.55,41.55,0,0,1,4.2-.83l8.1-1.35a1.19,1.19,0,0,1,.52-.15.52.52,0,0,0,.38-.15,11.85,11.85,0,0,1,1.8-.45,3.65,3.65,0,0,1,1.79.15.7.7,0,0,0,.53.08,1.24,1.24,0,0,1,.37-.08l5.1-.6q2.55-.3,5-.75l3.9-.6q2-.3,3.9-.45c1-.19,2-.35,3-.45s2-.2,3-.3l2.48-.3c.84-.09,1.67-.19,2.47-.3a13,13,0,0,1,2.32-.07c.75,0,1.53.07,2.33.07a2.59,2.59,0,0,1,1.42.45,12,12,0,0,0,1.28.75,20.16,20.16,0,0,1,1.65,1.5,3.85,3.85,0,0,1,.6,1.35l.3,1c.09.35.19.72.29,1.12a3.79,3.79,0,0,1-.29,2.55l-.9,2.1a3.87,3.87,0,0,1-.38.82,3.5,3.5,0,0,1-.52.68l-.3.3c-.4.3-.83.6-1.28.9a4,4,0,0,1-1.57.6l-6.45.45c-.6,0-1.2,0-1.8.07s-1.25.13-1.95.23h-.75c-1.6.1-3.15.25-4.64.45l-4.5.6-6,.9a.87.87,0,0,0-.6.15q-.6,0-.9.9V627c0,1,0,1.92.15,2.92a9.91,9.91,0,0,1,0,4.2,7.32,7.32,0,0,0-.22.82,3,3,0,0,0-.08.68,13.35,13.35,0,0,1-.3,3.9v.9a2.83,2.83,0,0,0,.15.9,5.58,5.58,0,0,1,.15,1.35V652c0,.4,0,.88-.07,1.43A14.36,14.36,0,0,0,1210,655a11.27,11.27,0,0,0,.08,1.35c0,.5.07,1,.07,1.5,0,.7,0,1.4.08,2.1a11.56,11.56,0,0,1-.08,2.25v4.64a.63.63,0,0,1-.07.3c-.06.1,0,.26.07.45a25.21,25.21,0,0,1,.15,2.78,12.71,12.71,0,0,0,.3,2.77,4.56,4.56,0,0,0,.08.9,1.85,1.85,0,0,1-.08.9,13.33,13.33,0,0,0,.3,2.77c.2,1,.35,1.88.45,2.78.2,1.1.42,2.2.68,3.3s.47,2.2.67,3.29l.45,2.1a.88.88,0,0,1-.45.75.43.43,0,0,0-.3.15q-.75.3-.6.9v.75q-.15.3-.3.3a1.43,1.43,0,0,0-1.2.6,4.51,4.51,0,0,1-1,1,6.11,6.11,0,0,1-1.28.67A5.7,5.7,0,0,1,1204.4,694.54Z"/><path class="cls-22" d="M1283.56,702l-2.55-.45-4-.6c-1.35-.2-2.73-.35-4.12-.45a8.4,8.4,0,0,1-4.2-1.2,5.59,5.59,0,0,1-2.7-3.3c-.1-.5-.23-1-.38-1.5s-.27-1-.37-1.5a4.14,4.14,0,0,1,.75-2.7,10.66,10.66,0,0,0,1.27-1.5,10.77,10.77,0,0,1,1.13-1.35,2.93,2.93,0,0,1,.6-.45q.3-.13.6-.3a6.59,6.59,0,0,1,1.5-.67c.5-.15,1-.27,1.5-.38a.71.71,0,0,1,.52-.07,1.23,1.23,0,0,0,.38.07,12.63,12.63,0,0,0,1.65.23,6,6,0,0,1,1.64.37l6.3.9a5.83,5.83,0,0,0,3.75-.6c.4-.19.77-.39,1.12-.6s.68-.39,1-.59a38,38,0,0,0,5.7-4c1.2-1.1,2.34-2.2,3.44-3.3a26,26,0,0,0,3-3.6,6.79,6.79,0,0,0,1.35-2.77,9.55,9.55,0,0,0,.15-2.93l-.45-1.2a2.25,2.25,0,0,0-.6-1.19,9.79,9.79,0,0,1-.9-1.05,17.75,17.75,0,0,1-1.72-1.65,9.53,9.53,0,0,0-1.73-1.5c-1.49-1.2-3-2.35-4.42-3.45s-2.92-2.2-4.42-3.3a1.71,1.71,0,0,0-.9-.6,23.5,23.5,0,0,1-2.62-2l-2.48-2.18a30.74,30.74,0,0,0-3.3-2.85,4.52,4.52,0,0,1-1.65-1.5,7.45,7.45,0,0,0-1.79-1.49,10.51,10.51,0,0,1-1.95-1.43c-.6-.55-1.2-1.07-1.8-1.57l-1.95-1.8a17.4,17.4,0,0,0-1.28-1.43l-1.42-1.42a3,3,0,0,0-.83-1.2,6.53,6.53,0,0,1-1-1,3.92,3.92,0,0,0-.45-.67,2.68,2.68,0,0,1-.45-.83c-.6-1.2-1.22-2.4-1.87-3.6a32,32,0,0,1-1.73-3.75c-.3-.79-.57-1.57-.82-2.32s-.48-1.47-.68-2.17a9.29,9.29,0,0,0-.52-2.18c-.25-.65-.48-1.32-.68-2-.2-1.1-.42-2.18-.67-3.22s-.48-2.08-.68-3.08l-.3-1.2a16.57,16.57,0,0,1,0-3.15,18.81,18.81,0,0,1,.9-3.74,5.85,5.85,0,0,1,2-2.85l3-2.4a14.92,14.92,0,0,1,3.15-2,.61.61,0,0,0,.45-.15,9.48,9.48,0,0,1,3.3-1.72c1.2-.35,2.4-.68,3.6-1a102.54,102.54,0,0,1,14.84-3.15h4.35q1.35,0,2.85-.15a17.52,17.52,0,0,1,3.59.38,16.37,16.37,0,0,1,3.45,1.12c.8.4,1.6.83,2.4,1.28a24.68,24.68,0,0,1,2.25,1.42,3.83,3.83,0,0,1,1.5,2l.45,1a6.32,6.32,0,0,1,.82,2.77,11.76,11.76,0,0,1-.22,2.93,6.9,6.9,0,0,1-.08,1,7,7,0,0,0-.07,1,7,7,0,0,1-3.15,5.09,5.29,5.29,0,0,1-4.35,1.2q-.6-.3-.6.3t-.75.6h-.9a2.59,2.59,0,0,1-1.8-.9,2.05,2.05,0,0,1-.75-1.2,1,1,0,0,1,.6-.9q-.3-.75-.6-1.35a4.24,4.24,0,0,0-.59-.9,2.48,2.48,0,0,0-1.35-1c-.51-.09-1-.19-1.5-.3s-1-.19-1.5-.3-.85,0-1.35-.07-1-.12-1.5-.22a2.3,2.3,0,0,0-1.35.15,5.9,5.9,0,0,1-.9.22,2.45,2.45,0,0,1-1-.08h-1a2.65,2.65,0,0,0-1.13.3l-2.85.45a14,14,0,0,0-4.65,1.8c-.29.1-.59.21-.89.3a1.39,1.39,0,0,1-.9,0,1.67,1.67,0,0,0-1.5.45.83.83,0,0,1-.68.38,1.39,1.39,0,0,0-.82.37,1.73,1.73,0,0,0-.6,1.2,2.09,2.09,0,0,1,.15.9L1274,620a19.57,19.57,0,0,0,2.32,4.42c1,1.35,2,2.68,3.07,4a35.76,35.76,0,0,0,5.25,5.1l4.8,4.05a39,39,0,0,0,3.15,2.55c1.1.8,2.14,1.6,3.15,2.4q2.24,1.65,4.49,3.37t4.5,3.52l3.52,2.93a31.25,31.25,0,0,1,3.23,3.07l2.1,2.4a13.51,13.51,0,0,1,1.8,2.7,18.1,18.1,0,0,1,1.79,3.9,15,15,0,0,1,.75,5.39,2.09,2.09,0,0,0-.15.9,14.59,14.59,0,0,1-.37,3.38,17.72,17.72,0,0,1-1.13,3.22c-.5,1-1,2-1.57,3.07a29.75,29.75,0,0,1-1.87,3.08q-1.5,1.95-3.08,3.67a37.89,37.89,0,0,1-3.52,3.37c-.7.6-1.4,1.23-2.1,1.88a14.9,14.9,0,0,1-2.25,1.72c-.5.4-1,.77-1.5,1.13s-1,.72-1.5,1.12a7.88,7.88,0,0,0-1.2.75l-1.2.9a4.77,4.77,0,0,1-1.42,1c-.55.25-1.07.48-1.57.68l-4.35,1.8a13.1,13.1,0,0,1-2.7.6A13.57,13.57,0,0,1,1283.56,702Z"/><image class="cls-23" width="500" height="375" transform="translate(0 -66.06) scale(2.8 2.41)" xlink:href="../../../adrenaline/styletile/img/old-photo-texture-png-3.png"/></g></g></svg>
