<svg xmlns="http://www.w3.org/2000/svg" xmlns:xlink="http://www.w3.org/1999/xlink" viewBox="0 0 1393.61 936"><defs><style>.cls-1,.cls-10,.cls-21,.cls-3,.cls-9{fill:none;}.cls-2{clip-path:url(#clip-path);}.cls-10,.cls-3,.cls-9{stroke:#000;}.cls-10,.cls-16,.cls-17,.cls-21,.cls-23,.cls-24,.cls-3,.cls-9{stroke-miterlimit:10;}.cls-3{stroke-width:2px;}.cls-4{clip-path:url(#clip-path-2);}.cls-5{fill:#ff6d2d;}.cls-11,.cls-6,.cls-7,.cls-8{fill:#f5cc66;}.cls-6{opacity:0.3;}.cls-7{opacity:0.6;}.cls-8{opacity:0.72;}.cls-9{stroke-width:3px;}.cls-12{fill:#86b9d9;}.cls-13{fill:#047177;}.cls-14{fill:#d5bd81;}.cls-15{fill:#caae68;opacity:0.64;}.cls-16{fill:#6a9a90;stroke:#648d83;}.cls-17{fill:#63a497;stroke:#6a988f;}.cls-18{fill:#98c1d5;}.cls-19,.cls-20{fill:#2a9090;}.cls-19{opacity:0.09;}.cls-20{opacity:0.13;}.cls-21{stroke:#99b28d;stroke-width:6px;opacity:0.66;}.cls-22{fill:#856239;opacity:0.15;}.cls-23{fill:#67998f;stroke:#8ea583;}.cls-24{fill:#fff;stroke:#fff;}.cls-25{opacity:0.23;}</style><clipPath id="clip-path" transform="translate(0 180)"><path class="cls-1" d="M904.67,509.11c55.47-55.6,83.54-132.42,82.92-217.07C986.36,123.86,828.72,10,686.11,10.75c-140.39.7-299.24,117.57-298,285.75.61,83,29.5,158.07,83.93,212.61H20.11V742H1386.22V509.11Z"/></clipPath><clipPath id="clip-path-2" transform="translate(0 180)"><circle class="cls-1" cx="687.47" cy="307.66" r="290.85"/></clipPath></defs><title>logo-adventure-junkies</title><g id="Layer_4" data-name="Layer 4"><g class="cls-2"><path class="cls-1" d="M796.38,432.34a28.89,28.89,0,0,1-4.46,6.1" transform="translate(0 180)"/><circle class="cls-3" cx="687.27" cy="487.64" r="290.85"/><g class="cls-4"><path class="cls-5" d="M349.81,435.14C348,235.13,456.92,17,686.63,15.6,904.37,14.27,1008.09,208.07,1028.21,414l-.21-.1a177.9,177.9,0,0,0-21.07-9.31c-.34-.12-.7-.27-1-.38C984.78,396.53,964.27,393,940,386c-9.63-2.76-19.85-6.06-30.93-10.4-11.86-4.63-23.68-11.74-35.59-19.84-17.07-11.63-34.32-25.36-52-37-.07,0-.14-.11-.22-.15-28.91-19-59.08-32.25-91.78-21.54a88.71,88.71,0,0,1-16.18,3.42.27.27,0,0,0-.13,0h0c-4.65.57-9.6.95-14.77,1.18-4.75.21-9.67.27-14.65.22h-.32c-37.8-.37-79.49-7-83.29-6.93a413,413,0,0,0-51.65,3.35c-29.21,3.9-52.64,11.05-72.71,20.89-1.3.63-2.59,1.29-3.85,1.95a2.8,2.8,0,0,0-.3.15,199.64,199.64,0,0,0-26.77,16.8,261.58,261.58,0,0,0-24.73,20.91c-1.73,1.62-3.45,3.3-5.17,5-20.07,19.79-39.31,42.83-63,67.93h0c-.23.26-1.81,1.1-2,1.36" transform="translate(0 180)"/><path class="cls-6" d="M539.35,220.13a204.7,204.7,0,0,0-35,10.56c-1.12.45-2.24.92-3.32,1.39l-.26.1a180.41,180.41,0,0,0-23,12,218.78,218.78,0,0,0-21.29,14.9c-1.5,1.16-3,2.36-4.46,3.55-17.28,14.11-33.86,30.53-54.22,48.42h0c-.2.19-1.52.78-1.74,1a291,291,0,0,1,21-91Z" transform="translate(0 180)"/><path class="cls-6" d="M1008.67,418.1c-.11-.07-.22-.1-.34-.17a3,3,0,0,0-.47-.24,266.81,266.81,0,0,0-32.58-14.89c-.53-.21-1.09-.45-1.62-.62-33.12-12.54-65.29-18.25-103.34-29.64-3.9-1.16-7.82-2.36-11.86-3.62-11.57-3.73-23.74-8.06-36.67-13.28-18.59-7.54-37.13-19.1-55.82-32.27-3.6-2.53-7.2-5.16-10.83-7.8-23.25-17.05-46.76-36-70.82-52.35-.11-.07-.22-.18-.33-.25-14.9-10.11-30-19.25-45.36-26.31l330.86-2.42C991.12,282.2,1011,343.33,1008.67,418.1Z" transform="translate(0 180)"/><polyline class="cls-1" points="45.49 509.85 47.42 509.49 68.68 505.4 82.97 502.66 87.76 501.74 183.82 483.3 289.95 462.92"/><path class="cls-7" d="M985.09,234.12l-200.68,1.46c-19.11-7.72-38.91-10.86-59.82-4.6-4.44,1.34-9.64,4.29-15.39,5-.05,0-.08-2-.13-2v2c-4.42.5-12,.22-16.88.42-4.53.18-6.4-1.15-11.13-1.19h-.3c-36-.29-75.63-6-79.24-5.95a431.41,431.41,0,0,0-49.15,2.93,288.43,288.43,0,0,0-30.52,5.32l-135.26,1a364.92,364.92,0,0,1,50.46-92.6q7.79-10.37,16.29-20l463.36-3.39A362,362,0,0,1,985.09,234.12Z" transform="translate(0 180)"/><path class="cls-8" d="M917.09,122.44,454,125.83C512.28,59.49,594,14.88,684.68,14.22S857.72,57,917.09,122.44Z" transform="translate(0 180)"/><path class="cls-1" d="M397.75,289h0l-.62.54C397.34,289.39,397.55,289.22,397.75,289Z" transform="translate(0 180)"/><path class="cls-1" d="M291.55,180.37a598.78,598.78,0,0,0-101.69,30.51q-3.6,1.45-7.15,2.94l-.47.2a497.11,497.11,0,0,0-61.3,30.69h0q-7.83,4.62-15.28,9.47c-3.47,2.25-6.86,4.53-10.2,6.85A368.26,368.26,0,0,0,65.29,284.2a287.81,287.81,0,0,0-37.72,38.63c16.83-21.25,30.2-40.37,44.68-57.35,1.24-1.44,2.48-2.87,3.75-4.28l11.68-25.13,6.6,6.65A182.23,182.23,0,0,1,114.8,226.8a1.94,1.94,0,0,1,.24-.15c1-.66,2-1.32,3-2l21.49-60.87,37.39,35a426.91,426.91,0,0,1,43.28-10.35C223.42,187.82,259.53,186,291.55,180.37Z" transform="translate(0 180)"/><path class="cls-1" d="M204.61,263.43s0,0,0,0c-.12.34-.25.66-.37,1-4,.65-13-1.86-12.07,2.13-17.18-70.78,8.49-2,12.35-3.12h0A.3.3,0,0,1,204.61,263.43Z" transform="translate(0 180)"/><line class="cls-1" x1="463.36" y1="303.15" x2="461.47" y2="302.59"/><polyline class="cls-1" points="709.2 397.23 708.81 397.11 708.74 397.1"/><line class="cls-1" x1="737.77" y1="341.82" x2="737.25" y2="341.47"/><line class="cls-9" x1="788.53" y1="164.07" x2="788.13" y2="163.74"/><line class="cls-9" x1="885.34" y1="156.95" x2="885.28" y2="156.85"/><line class="cls-1" x1="847.03" y1="305.37" x2="846.99" y2="305.06"/><line class="cls-1" x1="890.41" y1="276.15" x2="890.33" y2="276.47"/><line class="cls-1" x1="882.94" y1="311.29" x2="882.92" y2="311.33"/><path class="cls-1" d="M224.36,345.28s-.41.42-1.12,1.18" transform="translate(0 180)"/><path class="cls-10" d="M238.79,353.42" transform="translate(0 180)"/><circle class="cls-11" cx="829.11" cy="468.64" r="126.78"/><path class="cls-12" d="M434.48,213.64s78.81-47.41,104.91-46.55,34.16,17.22,44.67,24.77c15.68,11.27,62.7,7.42,81,16.69,17.46,8.86,45,36.42,52.31,50.38s34.12,9.05,44.4,18,74.78,61.19,80.45,82.17c2.32,8.64-119.95,222.43-208.31,230.22-87.23,7.69-224.63-11.15-319.51-119C295.23,448.58,402.12,207.59,434.48,213.64Z" transform="translate(0 180)"/><path class="cls-13" d="M988.73,427.46c-1,41.59-12.1,28.83-12.1,28.83a291.66,291.66,0,0,1-52.69,97.59,294.6,294.6,0,0,1-69.56,61.79c-1.17.76-2.35,1.5-3.55,2.24a291.3,291.3,0,0,1-120.05,41.62l-2,.23c-1.18.12-2.38.25-3.58.36,0,0-.14,1.56-.19,1.56-11.37,1.06-22.9-.06-34.61-.33A293.07,293.07,0,0,1,413.48,441.74c-6.57-25.51-13.39-26.25-12.75-53.89,0-1.3.08-2.59.12-3.89,0-.86-.94-1.69-.89-2.55.13-3.16-1.8-6.47-1.56-9.59,0-.51.07-1,.12-1.53.13-1.54.26-3.07.42-4.6.2-.18-2.58-.32-2.38-.5l1.55,0c-1.21-10.64-27.27-57.08-9.56-70.66,1.52-1.14,75.86,21.7,77.39,20.59a220.28,220.28,0,0,1,21.74-14.25,180.85,180.85,0,0,1,23.39-11.29l.27-.1c1.09-.43,2.22-.87,3.35-1.29,17.49-6.49,37.79-11,63-13,13.36-1.09,57.07,17.92,89.56,19.13,0,0,25.62,4.34,27.16,4.37,5.21-.4,19.81,7.32,33.74,6.11,23.52-5.64,70.88,9,78.9,13.63.06,0,31.78,13.29,44.29,21.12,1.95,1.21,3.88,2.42,5.82,3.59,10.06,6.06,15.63,3.64,25.72,7.24,7,2.49,15.26,0,21.55,1.83,2.2.62,9-.22,11.09.35,20.7,5.59,42.48-3.23,60.45,2.79.29.08,6.46,0-3,4-5.62,2.41,17.59-2.79,23.6,0,.08,1-6.23,18.72-6.18,19.77a.55.55,0,0,1,0,.18c0,.36,0,.69.05,1,0,.63.08,1.27.11,1.9.07,1.6-2,27.7-1.93,29.33,0,1,.07,2,.07,3a7,7,0,0,1,0,.92c0,1.41,0,3.6,0,4C988.81,422.63,988.74,427,988.73,427.46Z" transform="translate(0 180)"/><path class="cls-14" d="M916.3,353.24c-4.68,1.91-20,8.86-30.57,16.66-8.21,6.06-17.73,11.52-24.09,15.37-7,4.25-19.25,16.91-24,21.3-8.53,5.19-26.6,15.06-33.7,22.75-12.08,13.09-21.14,11.75-35.49,24.62-12.29,11-19.86,19.81-28.6,27.21-11.42,9.67-20.87,18.55-29.58,25.22-9.88,7.56-13.36,12.3-23.33,22.64-9.26,9.61-11.67,16.62-22.14,26.16-7.35,6.69-12.41,18.5-26.15,37.11-17.11,23.18-33.16,46.33-33.16,46.33l-91.05-66.7-59.68-66.18-18.42,6.91s36.53-9.57,66.69-26.76c15.91-9.07,38.26-8.69,59.36-21.44,26.4-15.95,81.21-30,111.69-45.88,9.88-5.15,58-33,74.71-36,24.58-4.33,27.16-13,47.24-17.23,17-3.62,24.53-8.21,43.25-11.31,14.36-2.92,17.88-10.9,31.76-6.36,4.16,1.37,15.31,2.07,29.91,3.47C911,352.12,911.55,351.65,916.3,353.24Z" transform="translate(0 180)"/><path class="cls-15" d="M1030.73,505.72c-6.61,2.24-33.58,5.92-39.3,14.68-14.09,10.9-45,31.8-62.91,38.93-8.44,3.36-42.84,19.1-69.59,26.11L687.17,668.55l-39.53-15.34,99.24-55.42C776.3,578.7,898,563,925.2,540.61c8-7.76,24.69-14.37,34.88-18.45,18.78-10.47,36.75-19.67,57.21-21.31,16.42-5.79,16-4,31-6.32,13-2,20.74-8.14,29.53-7.38C1089.52,488.15,1033.9,504,1030.73,505.72Z" transform="translate(0 180)"/><path class="cls-16" d="M632.32,400.4s-70.67,5.22-95.24-1.73c-.53-.15-2.45-8.05-2.45-8.05l-1.25-5.5-5.29-10.89-5.21-22.9-.57-2.49-2.16-9.49-5.37-23.55-.12-.53,2.1-2.42h0l7.36-8.43h0l3.58-4.11-7-4.08,4.39-6.58.06-.08.69-1,28.34-42.38L576,280.21,583.51,292l.83,1.29,0,.09,3,4.62-8.58,1.39,14.11,17.14,8.51,9.05-11.11,2.94,24.18,28.57,2.94,3.47-17.23,3.78Z" transform="translate(0 180)"/><path class="cls-17" d="M465.7,411.66l20.37-26.79-14.57-4.74L484,362.22l4.25-7.65L477.35,351l9.36-13.25,9.6-13.58,2-2.78,12.63-17.88,4.19,6.1,7.21,10.51,2.6,3.77,1.07,2,16.77,24.58-7.53,1.94-3.35.56L552.67,382,537,385.71l22,27.69s-22.58,3.93-40.11,4.82C487,419.84,465.7,411.66,465.7,411.66Z" transform="translate(0 180)"/></g><path class="cls-18" d="M638.53,251c-2.1,5.37-12.9-6.77-18.07-9.33-4-2-12.35-8.53-14.6-12.4s-4.16-11.76-8-14.14c-21.75-13.61-20.4-29.06-20.4-29.06s4.74,4.63,6.36,5.79A64.19,64.19,0,0,0,591,195.3s.1,3.21,1.12,4c3.52,2.82,10.08,7.65,13.24,10.86,4.48,4.57,12.83,15.7,17.31,20.26C626.56,234.43,640.56,245.78,638.53,251Z" transform="translate(0 180)"/><path class="cls-19" d="M692.87,349.44a.31.31,0,0,0,.23-.58c-8.88-4.45-41.3-19.09-74.69-14.1-8.95,1.34-15.86,1.26-20.92,3.1l8.56,7.11c17-5.69,23.92-5,33.07-2.62S659.85,341.27,692.87,349.44Z" transform="translate(0 180)"/><path class="cls-20" d="M910.86,408.69a.18.18,0,0,0,0-.36c-5.49-1.29-25.32-5.12-42.9,2.2a58.91,58.91,0,0,0-10.73,5.69s17.8-4.31,23.14-4.23S891.62,408.57,910.86,408.69Z" transform="translate(0 180)"/><path class="cls-20" d="M481.39,389.56a.18.18,0,0,0,0-.36c-5.48-1.3-25.31-5.12-42.9,2.2a59.6,59.6,0,0,0-10.73,5.69s17.79-6.31,23.13-6.24S462.15,389.44,481.39,389.56Z" transform="translate(0 180)"/><circle class="cls-21" cx="687.27" cy="487.64" r="290.85"/><path class="cls-22" d="M854.15,356.75c-12.64,7.33-193.31,86.07-193.48,86.36-5.19,8.82-94.35,46-104.83,49.5-76.9,25.62-68.41.4-85.54,8.74,5.06-4.22,119.75-47.13,130.49-54.06s99.15-38.68,108.33-47.67c5.07-5.85,74.58-29.14,81.45-32.56,8.69-5.68,30.35-10.78,40-12.5,14.66-2.78,10.59-3.2,25.88-6.92,9.12-2.87,18.85,1,18.85,1C881.39,353.26,872,346.42,854.15,356.75Z" transform="translate(0 180)"/><rect class="cls-23" x="23.89" y="692.83" width="1354.99" height="222.37"/><path class="cls-24" d="M137.06,681.34a3.3,3.3,0,0,1-2.4-1.05l-.6-.89-.6-.9a16.58,16.58,0,0,1-1.35-6.6l-.45-3.6q-.45-2.1-.75-4.2a18.55,18.55,0,0,0-1-4.05l-.9-2.54a2.46,2.46,0,0,0-.07-.6,3,3,0,0,0-.23-.6l-2.24-7.95a2.37,2.37,0,0,1-.23-.75,1.4,1.4,0,0,0-.37-.75,8.38,8.38,0,0,1-.68-1.87c-.15-.65-.33-1.33-.52-2-.11-.5-.21-1-.3-1.42a11,11,0,0,0-.45-1.43,2.44,2.44,0,0,0-.6-1.12c-.21-.15-.65-.12-1.35.08a15,15,0,0,1-1.58.22,5.55,5.55,0,0,0-1.57.38,9.62,9.62,0,0,1-1.43.22c-.55.05-1.07.13-1.57.22l-2.1.45c-.5.11-1,.23-1.57.38a6,6,0,0,1-1.58.22l-2.7.45c-.8.21-1.65.4-2.54.6s-1.75.4-2.55.6a60.72,60.72,0,0,1-7.2,1.35q-1.2.3-1.35,1.05a.13.13,0,0,0-.15.15c-.6,1.6-1.27,3.18-2,4.72s-1.53,3.13-2.33,4.73c-.2.4-.37.77-.52,1.12s-.33.73-.53,1.13c-.1.2-.2.42-.3.67s-.2.48-.3.68a3.78,3.78,0,0,0-.9,2.54,5.48,5.48,0,0,1-.6,1.73c-.3.55-.6,1.07-.9,1.57a.58.58,0,0,1-.59.45,5.46,5.46,0,0,0-1.2.45q-.6.3-1.35.6a1.39,1.39,0,0,1-.9,0c-.2-.1-.43-.22-.68-.37a1.34,1.34,0,0,0-.67-.23,2.81,2.81,0,0,1-2.4-1.95,18.05,18.05,0,0,1-1.65-4.79,1.48,1.48,0,0,1,.07-1,6.91,6.91,0,0,0,.38-.9,2.2,2.2,0,0,0,1-1.35V655a8.43,8.43,0,0,1,.82-3.68,36.49,36.49,0,0,0,1.43-3.37,13.75,13.75,0,0,1,.75-1.8l.9-1.8a14.74,14.74,0,0,0,1-2c.25-.65.48-1.33.68-2a2.9,2.9,0,0,0,0-2.24,5.48,5.48,0,0,1-.3-1.73,10.44,10.44,0,0,1,.15-1.72,3.86,3.86,0,0,1,1.2-2.85,7.7,7.7,0,0,1,1.27-1.28,12.26,12.26,0,0,0,1.27-1.12,9,9,0,0,0,2.1-3.6,35.39,35.39,0,0,0,1-4c.25-1.35.52-2.67.82-4s.43-2.58.68-3.83.52-2.47.82-3.67a11.29,11.29,0,0,1,.38-1.42c.15-.45.27-.88.37-1.28.3-.8.6-1.57.9-2.32a9.4,9.4,0,0,0,.6-2.33,1,1,0,0,0,0-1,2.43,2.43,0,0,1,.08-1.35,9.8,9.8,0,0,0,.37-1.2,11.07,11.07,0,0,0,.68-2.09,10.65,10.65,0,0,1,.67-2.1c.5-1.3.92-2.38,1.27-3.23a24.25,24.25,0,0,0,1-2.92,17.55,17.55,0,0,1,.67-1.72,6.93,6.93,0,0,0,.53-1.73,25.07,25.07,0,0,0,.75-2.77,13.5,13.5,0,0,0,.3-2.78,6.06,6.06,0,0,1,.6-1.65,9,9,0,0,1,1.87-2.54c.75-.7,1.47-1.4,2.17-2.1a6.64,6.64,0,0,1,1.5-.68,1.81,1.81,0,0,1,1.5.23,2.63,2.63,0,0,0,.75.3,2.87,2.87,0,0,1,2.25.6,6.55,6.55,0,0,1,1.5,1.8,1.88,1.88,0,0,1,.45.75,5.82,5.82,0,0,0,.3.75,4.49,4.49,0,0,1,.75,2.39,5.86,5.86,0,0,0,.15,1.28c.1.45.2.92.3,1.42a1.44,1.44,0,0,0,1.35.9.19.19,0,0,1,.3,0,.43.43,0,0,1,.15.3,2,2,0,0,1,.45,2A5.27,5.27,0,0,0,117,588c.15.74.33,1.52.53,2.32l1.2,3,1.2,3,1.5,3.29c.5,1.11,1,2.2,1.35,3.3.5,1.4,1,2.8,1.57,4.2s1.17,2.8,1.87,4.2l.45,1.65a11.09,11.09,0,0,0,.38,1.2,11,11,0,0,1,.37,1.2,8.45,8.45,0,0,1,.53.9,2.84,2.84,0,0,0,.52.75,4.87,4.87,0,0,1,.9,2.25,8.5,8.5,0,0,0,1.35,2.69,1,1,0,0,0,.9.45c1.5-.2,3-.37,4.5-.52a28.43,28.43,0,0,0,4.5-.83,12,12,0,0,1,3.15-.45,8.19,8.19,0,0,1,5.24,2,7.4,7.4,0,0,1,3,5.7,3.9,3.9,0,0,0,.15,1.2,2.23,2.23,0,0,1-.6,1.65,2.79,2.79,0,0,1-.52.9,10.63,10.63,0,0,0-.68.9,3.49,3.49,0,0,1-.6.9l-.9.75a3.92,3.92,0,0,1-.45.67,1.59,1.59,0,0,1-.75.53,11,11,0,0,0-1.2.37,3.8,3.8,0,0,1-1.34.23,15.05,15.05,0,0,1-4.8-.15H138a2.3,2.3,0,0,0-.9.3q-.6.3-.6.75v.6a17.21,17.21,0,0,1,.67,2.77,8.93,8.93,0,0,0,.83,2.62,2.66,2.66,0,0,0,.3,1.2,15.06,15.06,0,0,1,1.2,2.78,27.74,27.74,0,0,1,.75,2.92,4.91,4.91,0,0,0,.3,1.2,15.87,15.87,0,0,1,.75,2.17,17.45,17.45,0,0,1,.45,2.33,3.15,3.15,0,0,0,.45,1.65,14,14,0,0,1,.9,2.7,24.1,24.1,0,0,1,.45,2.84.8.8,0,0,1,.15.53,1.47,1.47,0,0,0,.15.67,14.59,14.59,0,0,1,1.05,3.53c.19,1.25.45,2.47.75,3.67a8.26,8.26,0,0,1,.37,1.87c.05.65.07,1.33.07,2a3.71,3.71,0,0,1-.44,1.65l-.45.45a1.15,1.15,0,0,0-1,1l-.45.9a1.35,1.35,0,0,1-.9.74,1.44,1.44,0,0,0-1,.45,2.23,2.23,0,0,1-1.65.6h-1.43A8,8,0,0,0,137.06,681.34Zm-36.13-54.42,1.87-.3c.65-.1,1.37-.2,2.18-.3.49-.1,1.14-.2,1.94-.3l2.25-.3a10.29,10.29,0,0,1,2.1-.37c.7-.05,1.4-.13,2.1-.23a7.69,7.69,0,0,1,1.8-.37c.6,0,1.2-.13,1.8-.23q1.35-.3,1-1.5a15.64,15.64,0,0,0-.53-2.47,4.46,4.46,0,0,0-1.42-2.17,1.22,1.22,0,0,1-.3-.9V617c-.2-.8-.43-1.58-.67-2.33s-.53-1.47-.83-2.17a21.83,21.83,0,0,0-.67-2.18c-.25-.64-.53-1.32-.83-2l-1.8-5.4c-.3-.69-.57-1.4-.82-2.1s-.48-1.39-.68-2.09l-.45-.6h-.45l-.3.44q-.75,2.25-1.72,4.5a39.76,39.76,0,0,0-1.72,4.8,2.82,2.82,0,0,1-.15.75c-.1.3-.21.6-.3.9-.4,1-.78,2.1-1.13,3.3a31.1,31.1,0,0,0-.82,3.6c-.1.7-.2,1.37-.3,2a16.07,16.07,0,0,1-.45,2l-1.35,5.85c-.1.1,0,.23.15.38A.89.89,0,0,0,100.93,626.92Z" transform="translate(0 180)"/><path class="cls-24" d="M180.24,672.5a5.91,5.91,0,0,1-2.55-.75,3.45,3.45,0,0,1-1.2-1.2q-.15-.45-.75,0t-.75,0a2.36,2.36,0,0,0-.9-.6q-.6,0-.6-.45a1.67,1.67,0,0,0-.15-.75,1,1,0,0,0-.3-.75,1.91,1.91,0,0,1-1.2-1.5c-.1-.3-.2-.57-.3-.82a4.62,4.62,0,0,0-.45-.83,2.42,2.42,0,0,1-.3-1.05,5.33,5.33,0,0,1-.22-.82,2.61,2.61,0,0,0-.38-.83,6.27,6.27,0,0,0-.6-1.94,11.28,11.28,0,0,1-.75-2,3.74,3.74,0,0,1-.3-1.65,13.21,13.21,0,0,1,.9-5,3.74,3.74,0,0,0,.45-2.7,2,2,0,0,1,.08-1.2,2,2,0,0,0,.07-1.2c-.1-.4-.17-.75-.22-1a5.47,5.47,0,0,1-.08-1,1.67,1.67,0,0,1-.15-.75v-1.87a7.45,7.45,0,0,0-.3-2,4.47,4.47,0,0,1-.15-1.34v-5.55q-.15-1.95-.45-3.9t-.75-3.9a5.46,5.46,0,0,0-.07-.9,5.47,5.47,0,0,1-.08-.9,20.25,20.25,0,0,0-1-6.44v-1.35a3.43,3.43,0,0,0-.3-2.55,7.12,7.12,0,0,1-.15-1.65v-.15c0-1,0-2-.07-3a20,20,0,0,1,.07-3,27.13,27.13,0,0,0,0-5.7v-2.39a15.93,15.93,0,0,0-.15-2.25v-.9a3.68,3.68,0,0,0,.3-1.35v-1.2c0-1.2,0-2.37-.07-3.52a25,25,0,0,0-.38-3.38v-1a3.1,3.1,0,0,0-.15-1,2.47,2.47,0,0,0-.75-1.8l-1.05-.9a4.22,4.22,0,0,1-1.95-2.84,1.23,1.23,0,0,1-.15-.53,1.19,1.19,0,0,0-.15-.52,1.16,1.16,0,0,1,.3-1.35,3.38,3.38,0,0,0,.6-1.2,1.67,1.67,0,0,1,.15-.75,3.79,3.79,0,0,0,.45-.9q.15-.45.3-1t.45-.3a2.81,2.81,0,0,0,1.5-.3,2.28,2.28,0,0,1,2.25-.3,1.06,1.06,0,0,0,.9-.15.13.13,0,0,0,.15-.15,2.67,2.67,0,0,1,1.65-.83,9.36,9.36,0,0,1,1.95.08.67.67,0,0,1,.3.08.66.66,0,0,0,.3.07c.8.2,1.57.37,2.32.52a6.44,6.44,0,0,0,2.18.08,8.76,8.76,0,0,1,1.57.15,8.78,8.78,0,0,0,1.58.15,4.09,4.09,0,0,1,1.12.15l1,.3a5.14,5.14,0,0,1,1.05.37,2.32,2.32,0,0,0,1,.23c.5.1.93.2,1.28.3a6.55,6.55,0,0,1,1.12.45q2,1,3.9,1.95a6.33,6.33,0,0,1,1.65,1.2,5,5,0,0,0,1.8.9.66.66,0,0,1,.3.07.67.67,0,0,0,.3.08.43.43,0,0,0,.3.15.43.43,0,0,1,.3.15,4.68,4.68,0,0,0,1.87,1.12,4.91,4.91,0,0,1,1.88,1.12,3.25,3.25,0,0,0,.9.61,5.85,5.85,0,0,1,2.09,1.34c.2.21.35.3.45.3a2.07,2.07,0,0,1,1.35.75l3.15,3.3a7.27,7.27,0,0,1,.9,1.05,15.46,15.46,0,0,0,1.65,1.95l1.8,1.8.67.67a2.21,2.21,0,0,1,.53.83,1.47,1.47,0,0,0,.45.52,1.5,1.5,0,0,1,.45.53q1.65,1.8,3.22,3.75a47.67,47.67,0,0,1,2.93,4,17.35,17.35,0,0,1,1.34,2.25,25,25,0,0,1,1,2.4c.3.7.63,1.4,1,2.1s.67,1.4,1,2.1a21,21,0,0,0,1,3q.6,1.95,1.2,3.75a36.59,36.59,0,0,1,1,3.9l.45,1.94c0,.81,0,1.63.08,2.48s.07,1.72.07,2.62a6.51,6.51,0,0,1-.07,1,3.87,3.87,0,0,1-.38,1,5.26,5.26,0,0,0-.3,1.65,10.78,10.78,0,0,1-.67,2.85c-.35.9-.73,1.75-1.13,2.55q-1.35,2.4-2.4,4.79c-.2.41-.37.78-.52,1.13s-.33.73-.53,1.12l-.9,1.8a32.17,32.17,0,0,1-2.47,4.13,38,38,0,0,1-3.07,3.82,9.61,9.61,0,0,1-1.43,1.42c-.55.45-1.07.93-1.57,1.43-1,.9-2,1.77-3,2.62s-2,1.68-3.15,2.48-2,1.34-3.07,1.94a18.65,18.65,0,0,1-3.37,1.5,3.82,3.82,0,0,0-1.8.9c-.6.4-1.23.8-1.88,1.2s-1.32.85-2,1.35a6.91,6.91,0,0,0-.9.38,5.14,5.14,0,0,1-1,.37l-1,.3c-.36.1-.68.2-1,.3a4.51,4.51,0,0,0-2.1,1.2,12.41,12.41,0,0,1-2.25,1.27,18.65,18.65,0,0,0-2.4,1.28,2.57,2.57,0,0,1-1,.15,1.84,1.84,0,0,1-.9.07,5.46,5.46,0,0,0-.9-.07v.15Zm6-16.79a5.06,5.06,0,0,0,2.55-.6,15.48,15.48,0,0,0,2.25-1.05,13.5,13.5,0,0,0,1.95-1.35l1.8-1.8a27,27,0,0,0,2.77-2.55,18.07,18.07,0,0,1,2.78-2.4l.29-.3,1.13-1.12a10.5,10.5,0,0,0,1-1.13l.75-.75a3,3,0,0,0,.6-.75,5.86,5.86,0,0,1,1.65-1.8,1.91,1.91,0,0,0,.9-.9,7.7,7.7,0,0,1,.83-1.49,10,10,0,0,1,1.12-1.35,10.79,10.79,0,0,0,1.5-2.7l.6-1.5a10,10,0,0,0,.9-3.9,4.55,4.55,0,0,0,.15-1.35,20,20,0,0,0-.3-4.8l-.3-1.5a6.86,6.86,0,0,1-.15-1.34,9,9,0,0,1-.22-1.13,2.46,2.46,0,0,0-.38-1,5.86,5.86,0,0,1-.45-1.2l-.3-1.2a5.49,5.49,0,0,0-.3-1.88c-.2-.55-.4-1.12-.6-1.72s-.6-1.22-.9-1.88a13.52,13.52,0,0,1-.75-2l-.15-.6a4.43,4.43,0,0,1-.67-1.27,9.8,9.8,0,0,0-.53-1.28c-.4-.9-.77-1.8-1.12-2.7a15.59,15.59,0,0,0-1.28-2.55c-.5-.89-1-1.79-1.57-2.69a10.56,10.56,0,0,0-2-2.4,43.61,43.61,0,0,0-7.95-6.75,14.73,14.73,0,0,0-5.4-2.55A22,22,0,0,0,184,584c-.9-.15-1.75-.28-2.55-.38a1,1,0,0,0-.74.3,1.82,1.82,0,0,0-.75,1.5c0,.7,0,1.43-.08,2.18s-.07,1.52-.07,2.32a7.79,7.79,0,0,1-.15,3.45,10.14,10.14,0,0,0-.23,1.2,4,4,0,0,0,.08,1.35,1.93,1.93,0,0,1-.15,1.65,2.2,2.2,0,0,0,0,1.94,5,5,0,0,1,.3,3,7.31,7.31,0,0,0,0,3.6c.09.4.17.8.22,1.2a4.53,4.53,0,0,1-.07,1.35,24.39,24.39,0,0,0,.22,3.3c.15,1.1.28,2.2.38,3.3a2.14,2.14,0,0,0,.3.9v2.4a3.47,3.47,0,0,1-.08.67,1,1,0,0,0,.08.68c.19.8.37,1.62.52,2.47s.32,1.67.52,2.47a1.87,1.87,0,0,0,.15.68,2.18,2.18,0,0,1,.15.82,14.83,14.83,0,0,0,.15,2.1q.15,1.05.3,2.25.45,4.2,1.35,8.54a15.47,15.47,0,0,1,.45,3.75v1a3,3,0,0,0,.15,1,7.61,7.61,0,0,1,.3,2.1v2.1a4.63,4.63,0,0,1-.07.75,1.21,1.21,0,0,0,.07.75A3.81,3.81,0,0,1,185,652v1.43a4.94,4.94,0,0,0,.3,1.5Q185.33,655.71,186.23,655.71Z" transform="translate(0 180)"/><path class="cls-24" d="M277.09,674.9a7.45,7.45,0,0,1-4.65-2.1,12.6,12.6,0,0,1-3.3-5.85,30.41,30.41,0,0,0-1.8-5.85l-2.25-6q-.9-2.4-1.8-4.65T261.5,646l-.9-2.55c-.21-.4-.38-.77-.53-1.12s-.32-.73-.52-1.13-.43-1-.68-1.57a15.51,15.51,0,0,0-.82-1.57l-1.2-3.3q-.6-1.65-1.35-3.3c-.1-.2-.2-.42-.3-.68a4.94,4.94,0,0,0-.45-.82q-.9-2.1-1.88-4.27t-2-4.43l-4.5-10.34q-1-2.55-2.17-5.1t-2.18-5.1l-.89-2.54q-.17-.45-.3-.9a4.2,4.2,0,0,0-.45-.9,1.48,1.48,0,0,0-.15-.6,1,1,0,0,1-.15-.45,13.75,13.75,0,0,0-.83-2.33c-.35-.75-.73-1.47-1.12-2.17l-.75-1.65a6.91,6.91,0,0,0-.38-.9,8.32,8.32,0,0,0-.52-.9,7.63,7.63,0,0,0,.15-1.5,5.58,5.58,0,0,1,.15-1.35,13.57,13.57,0,0,1,.6-2.32,16.15,16.15,0,0,1,1.95-1.58,4.16,4.16,0,0,1,.75-.45,2.7,2.7,0,0,1,1.94-.6,2.85,2.85,0,0,0,1.13-.22,1.71,1.71,0,0,1,1.12-.07,3.41,3.41,0,0,1,1.2.14,5.33,5.33,0,0,0,1.05.3,2.48,2.48,0,0,1,1.8,1.2l.3.3.3.3a5.28,5.28,0,0,1,1.95,3.45c.2.7.42,1.43.68,2.18s.52,1.47.82,2.17q.75,1.65,1.5,3.45t1.35,3.45c.6,1.3,1.17,2.6,1.72,3.89s1.13,2.65,1.73,4c.5,1.1,1,2.23,1.5,3.38s.94,2.27,1.35,3.37c.39.8.77,1.62,1.12,2.47s.67,1.73,1,2.63l.15.6q1.2,2.4,2.18,4.87t2,5a3.79,3.79,0,0,1,.45.9l.3.9a4.59,4.59,0,0,1,1,1.5l.67,1.65c.3.8.6,1.57.9,2.32s.65,1.53,1.05,2.33a7.06,7.06,0,0,0,.82,1.87c.35.55.73,1.13,1.13,1.73a.48.48,0,0,0,.6-.16c.4-.79.77-1.57,1.12-2.32s.68-1.52,1-2.32.62-1.78,1-2.63.68-1.72,1-2.62c0-.1,0-.15.07-.15s.08-.05.08-.15c.5-1.5,1-3,1.5-4.5s.94-3,1.34-4.5l2.25-8.39,1.8-6.9c.6-2.3,1.25-4.54,1.95-6.74a8.71,8.71,0,0,1,.38-1.35,11,11,0,0,0,.37-1.2l3.15-7.8a10.22,10.22,0,0,1,.6-1.27,4.45,4.45,0,0,0,.45-1.13A11.89,11.89,0,0,0,294,583l.9-2.7c.1-.39.2-.77.3-1.12a2.16,2.16,0,0,0,0-1.13,2.27,2.27,0,0,1,.15-1.34l.9-2.1a5.42,5.42,0,0,1,3.15-3.3,10,10,0,0,1,1.5-.75,1.41,1.41,0,0,1,1.49-.3l2,.3a11.34,11.34,0,0,1,1.87.45,3.35,3.35,0,0,1,1.8,1.5,2.35,2.35,0,0,1,.45.6l.3.6.45,1.2.53.52a.93.93,0,0,1,.22.68,6.63,6.63,0,0,0,.08,1.12,9.37,9.37,0,0,1,.07,1.28,38.51,38.51,0,0,1-1.8,5.69,7.89,7.89,0,0,1-.45,1.28c-.2.45-.4.92-.6,1.42a.61.61,0,0,0-.15.45,25.08,25.08,0,0,0-1.72,4c-.45,1.35-1,2.73-1.58,4.13-.4,1-.77,2-1.12,2.92s-.73,1.93-1.13,2.92a23.24,23.24,0,0,0-1,3c-.25,1-.47,2-.67,3-.1.4-.21.78-.3,1.13l-.3,1-.9,3.9q-.45,2-1,3.9a23.55,23.55,0,0,1-.75,2.84,27.18,27.18,0,0,0-.75,2.7.67.67,0,0,1-.08.3.66.66,0,0,0-.07.3,5.8,5.8,0,0,0-.83,1.8c-.15.6-.32,1.2-.52,1.8s-.43,1.23-.68,1.87a20.09,20.09,0,0,1-.82,1.88,10,10,0,0,0-1.2,4.05,2.38,2.38,0,0,0-.22.75,2.49,2.49,0,0,1-.38.9l-1.8,4.49a8.23,8.23,0,0,0-.45,1c-.4,1.5-.8,3-1.2,4.58s-.85,3.07-1.35,4.57a30.47,30.47,0,0,0-.9,4.35c-.2,1.5-.4,3-.6,4.34a13.19,13.19,0,0,0,.15,4.5,8.43,8.43,0,0,1,.15,1.65v1.65a3.73,3.73,0,0,1-.75,2.7,3.26,3.26,0,0,0-.6,1.2,6,6,0,0,1-4.79,3.3,5.46,5.46,0,0,0-.9.07A6.41,6.41,0,0,1,277.09,674.9Z" transform="translate(0 180)"/><path class="cls-24" d="M340.2,671.45a3.12,3.12,0,0,1-1.2-.15,2.93,2.93,0,0,0-1.42-.23,13,13,0,0,1-1.43.08.66.66,0,0,0-.3.07.67.67,0,0,1-.3.08,14.25,14.25,0,0,1-2,.15,5.86,5.86,0,0,1-1.87-.3.43.43,0,0,0-.3-.15,2,2,0,0,1-1.8-.6,18.27,18.27,0,0,0-1.5-1.35,2.29,2.29,0,0,1-.75-1.65l-.45-1.2a3.47,3.47,0,0,1-.3-2,.84.84,0,0,0,.07-.6,2.46,2.46,0,0,1-.07-.6,1.47,1.47,0,0,1-.15-.67,1.54,1.54,0,0,0-.15-.68,11.59,11.59,0,0,1,.75-8.62c.6-1.44.95-2.32,1.05-2.62a2.56,2.56,0,0,0,.45-1.2,25.09,25.09,0,0,1-.08-3.37c.05-1.15.08-2.28.08-3.38a2.71,2.71,0,0,1,.45-1.65,2.51,2.51,0,0,0,.15-2.24l-.45-1.65a2.31,2.31,0,0,1,.15-2.85.32.32,0,0,1,.07-.23.29.29,0,0,0,.08-.22.79.79,0,0,0,.15-.83A3.19,3.19,0,0,1,329,632a4.05,4.05,0,0,1,.22-1.28,2.23,2.23,0,0,0,.08-1.27l-.3-.3a2.61,2.61,0,0,1-.08-1.2c.05-.6.08-1,.08-1.05v-4.2a7.23,7.23,0,0,0,.15-1.42,7.23,7.23,0,0,1,.15-1.42,7.8,7.8,0,0,0,.07-1.88c-.05-.65-.07-1.32-.07-2a14.6,14.6,0,0,1-.23-1.65c0-.6-.07-1.2-.07-1.8a1.67,1.67,0,0,1-.15-.75V611c-.1-.5-.18-1-.23-1.5s-.07-1-.07-1.5a11.39,11.39,0,0,0-.6-2,6.65,6.65,0,0,1-.45-2.93,1.67,1.67,0,0,0,.15-.75,1,1,0,0,0-.3-.75.6.6,0,0,1-.3-.6v-.45a5.05,5.05,0,0,0-.45-3.59,2.45,2.45,0,0,1-.45-1.8,2,2,0,0,0-1.05-1.8,8.47,8.47,0,0,1-1.35-1.8,5.91,5.91,0,0,1-.75-2.1,7.63,7.63,0,0,1-.15-1.5v-1.35a1.19,1.19,0,0,1,.15-.75,1.94,1.94,0,0,0,.6-1.42,4.25,4.25,0,0,1,.15-1.28.43.43,0,0,1,.3-.15.43.43,0,0,0,.3-.15q.6-.15.6-1.05a2.38,2.38,0,0,1-.3-1,1,1,0,0,1,.45-1q.3-.59.75-.3a2.63,2.63,0,0,0,2.4-.3,3,3,0,0,1,.75-.3h.45a1.69,1.69,0,0,1,.9-.14A1.81,1.81,0,0,0,332,578a3.49,3.49,0,0,1,2.55-1h9.29q3.45.15,6.9,0c2.3-.1,4.54-.15,6.74-.15a9.2,9.2,0,0,0,1.28-.08,11,11,0,0,0,1.12-.22,4.64,4.64,0,0,1,2.1-.45h3.45c.8,0,1.52,0,2.17-.08s1.33-.12,2-.22a4.61,4.61,0,0,1,1.12-.15H373a5.06,5.06,0,0,0,1.2-.15c.79-.1,1.64-.18,2.54-.23s1.75-.07,2.55-.07a8,8,0,0,0,1.13-.08,11,11,0,0,0,1.12-.22,13.29,13.29,0,0,1,2.33-.38c.75,0,1.47-.12,2.17-.22l2.32-.3,2.18-.3a4.65,4.65,0,0,1,1.95.3c.6.4,1.17.75,1.72,1a7.18,7.18,0,0,1,1.58,1.2,3.24,3.24,0,0,1,.75,1q.14.6.3,1.2c.09.4.19.85.29,1.34v1a15.42,15.42,0,0,0-.22,1.58c-.05.55-.13,1.12-.23,1.72a4,4,0,0,1-.75,1l-2.69,2.7a16.07,16.07,0,0,1-2.93.6,14.25,14.25,0,0,1-2.92,0h-1.05a7.57,7.57,0,0,1-3,0,7.76,7.76,0,0,0-1.8-.08c-.6.06-1.2.08-1.8.08a7.87,7.87,0,0,0-1.12.08,3,3,0,0,1-1.13-.08,4.94,4.94,0,0,0-1.42-.08c-.45.06-.93.13-1.42.23s-.83,0-1.28.07a10.76,10.76,0,0,1-1.42.08,27.2,27.2,0,0,1-4.13.3,30.12,30.12,0,0,0-4.27.3,9,9,0,0,0-2.55.07c-.8.16-1.65.28-2.55.38A20.53,20.53,0,0,1,356,590a10.42,10.42,0,0,0-2.55.3,11.94,11.94,0,0,0-2.93.37,18.79,18.79,0,0,1-2.92.53l-1.05.15a8,8,0,0,0-1.95.22c-.6.15-1.25.33-1.95.53a10.1,10.1,0,0,1-1.2.22c-.4.06-.85.13-1.35.23a2.42,2.42,0,0,0-1.05.3q-.45.15-.45.9l.45,1.35a3.12,3.12,0,0,1-.07,1.5c-.15.8-.28,1.4-.38,1.8a2.73,2.73,0,0,0,.15.89l.3.9a7.49,7.49,0,0,1,.45,2.63,10.77,10.77,0,0,0,.3,2.62,5.28,5.28,0,0,1,.15,1.28,7.23,7.23,0,0,0,.15,1.42,3.56,3.56,0,0,0,.08.68,4.18,4.18,0,0,1,.07.82.87.87,0,0,1-.15.6,2.19,2.19,0,0,0-.45,1.35v1.5a6.66,6.66,0,0,1,.75,3v3c0,.3.25.41.75.3h.15a3.59,3.59,0,0,1,.6-.89,2.42,2.42,0,0,0,1-.3,2.13,2.13,0,0,1,1.2-.3,6.71,6.71,0,0,0,2.25-.08c.7-.15,1.4-.32,2.1-.52a76,76,0,0,0,13.19-4.65,25.76,25.76,0,0,1,3.45-1.28,18.23,18.23,0,0,1,3.6-.67h.45l2.7-.3a24.43,24.43,0,0,1,2.7-.15c1.2-.1,2.37-.25,3.52-.45s2.32-.35,3.52-.45c.7-.2,1.35-.38,1.95-.52a13.06,13.06,0,0,0,2-.68,10.09,10.09,0,0,1,3.6-.75,10.57,10.57,0,0,1,2.25.53,13.12,13.12,0,0,1,2.1,1,5,5,0,0,1,2.24,4.5,13,13,0,0,1-.22,2.4,13,13,0,0,0-.22,2.4.91.91,0,0,1-.3.6l-.45.75c-.1.4-.21.8-.3,1.19a1.37,1.37,0,0,1-.75.9l-1.88,1.58a5.3,5.3,0,0,1-2.17,1.12l-1.13.3a4,4,0,0,1-1.12.15,40.41,40.41,0,0,0-4.87.3l-5,.6c-1.3.1-2.57.25-3.82.45a24.11,24.11,0,0,1-3.82.3,13,13,0,0,0-4,.75l-3.15.6q-1.65.3-3.3.45c-.8.1-1.62.23-2.47.38s-1.68.27-2.47.37l-2.55.45a2.09,2.09,0,0,1-.9.15,15.74,15.74,0,0,1-2.1.45,15.74,15.74,0,0,0-2.1.45,12.92,12.92,0,0,0-2,.45l-2,.6a2.77,2.77,0,0,0-1.2.52,3,3,0,0,0-.75,1,1.39,1.39,0,0,0,0,.9,1.69,1.69,0,0,1-.15,1.2c.1,1,.18,2,.23,3a19.88,19.88,0,0,1-.08,3,7.83,7.83,0,0,1,.23,2.4c-.05.8-.13,1.6-.23,2.4a5.84,5.84,0,0,0,.15,3,7.1,7.1,0,0,1-.3,4q-.3.9,0,1.2a1,1,0,0,1,0,1v.9q-.15,1.2,1,1.2h.3a3.6,3.6,0,0,1,2.1.75,1.71,1.71,0,0,0,1.8.45l4.2-.45c.6-.1,1.2-.18,1.8-.23s1.2-.07,1.8-.07a1.06,1.06,0,0,1,.9.15,1.33,1.33,0,0,0,1.34.15,1.89,1.89,0,0,1,.83-.45,1.85,1.85,0,0,0,.82-.45,2.28,2.28,0,0,1,2.25-.6,2.52,2.52,0,0,0,1.95-.15,5.76,5.76,0,0,1,2.55-.3,2.59,2.59,0,0,0,1.5-.15,4,4,0,0,1,1.5-.3,1.06,1.06,0,0,1,.45.07.24.24,0,0,0,.3-.07,1.33,1.33,0,0,0,.6-.15,1.15,1.15,0,0,1,.45-.15,3.47,3.47,0,0,1,2-.3h.75a2.13,2.13,0,0,1,1.12,0,3.49,3.49,0,0,1,1,.45,4.3,4.3,0,0,1,1.27.45,4.31,4.31,0,0,0,1.13.45.6.6,0,0,1,.44.15,7.4,7.4,0,0,0,1.88,1c.75.3,1.17.65,1.27,1.05a5.37,5.37,0,0,1,.3,1.72,10.44,10.44,0,0,0,.15,1.72,5.46,5.46,0,0,1-.07.9,6,6,0,0,1-.23.9l-.67,1.35a5.18,5.18,0,0,1-1,1.35,5.56,5.56,0,0,0-.52.6,5.7,5.7,0,0,1-.53.6,7.22,7.22,0,0,1-1.34,1,3.17,3.17,0,0,1-1.65.45,2.09,2.09,0,0,0-.9.15,2.69,2.69,0,0,1-1.2.3h-1.35c-.7.1-1.38.18-2,.22a8.64,8.64,0,0,1-2-.07,1.87,1.87,0,0,0-1,0,6.12,6.12,0,0,1-3,.15c-1,0-2,0-2.92.07s-1.88.08-2.78.08H354.9a1.64,1.64,0,0,0-.75.15,3.17,3.17,0,0,1-1.43.3,8,8,0,0,1-1.57-.15h-1.5a2,2,0,0,0-.45.07.84.84,0,0,1-.6-.07,1.63,1.63,0,0,0-.83-.08,7,7,0,0,0-.82.23,1.7,1.7,0,0,0-.53.07,1.62,1.62,0,0,1-.52.08,10.78,10.78,0,0,0-2.85.07C342.15,671.07,341.2,671.25,340.2,671.45Z" transform="translate(0 180)"/><path class="cls-24" d="M464.19,671.75l-1-.3-1-.3a13.44,13.44,0,0,1-2.4-1.2,2,2,0,0,1-.9-.9L457,666c-.6-1-1.25-1.93-1.95-2.93l-1.35-2.4c-.7-1.39-1.4-2.77-2.1-4.12s-1.4-2.67-2.09-4a6.93,6.93,0,0,0-.68-1.28,7.71,7.71,0,0,1-.67-1.12c-.7-1.1-1.35-2.22-1.95-3.37s-1.2-2.28-1.8-3.38l-3.75-7.34q-1.5-3-3-5.93c-1-1.94-2-3.92-3-5.92a3.49,3.49,0,0,1-.6-.9,22.41,22.41,0,0,0-1.42-3.15c-.55-1-1.08-2-1.58-3a17.42,17.42,0,0,1-1-2.18,18.86,18.86,0,0,0-1.05-2.17l-1.65-3a.61.61,0,0,1-.45-.15.43.43,0,0,0-.15.3q-.15,1.95-.3,4a29.44,29.44,0,0,0,0,4.2,3.21,3.21,0,0,1,0,1.94,15.05,15.05,0,0,0,.15,4.8,3.24,3.24,0,0,1,.07,1.2c-.05.4-.12.85-.22,1.35a13.85,13.85,0,0,0-.15,2,13.85,13.85,0,0,1-.15,1.95,2.79,2.79,0,0,1,.3,1.27,5.28,5.28,0,0,1-.15,1.28,5.62,5.62,0,0,0,0,3.15.75.75,0,0,1,0,.9,5.83,5.83,0,0,0-.3,3.29,13.28,13.28,0,0,1-.3,5.55,2.57,2.57,0,0,0-.15,1,1,1,0,0,0,.3,1.05q.6.3.3.75a27.37,27.37,0,0,0,0,4,.15.15,0,0,1-.3,0,.43.43,0,0,1-.15-.3q-.3-.3-.3.15a1.56,1.56,0,0,0,.15.9,4,4,0,0,1,.3,1.5v6.14a5.47,5.47,0,0,1-.08.9,1.1,1.1,0,0,1-.52.75q-.6.15-.6,1.05a5.15,5.15,0,0,1-1.13,2.85,12.3,12.3,0,0,1-2.17,2.1,2.66,2.66,0,0,1-1.42.52,5.16,5.16,0,0,1-1.58-.07l-2.7-.9q-.3,0-.6-.45c-.3-.3-.6-.62-.9-1a6.58,6.58,0,0,0-1.05-1A2.52,2.52,0,0,1,412,665.3a13.87,13.87,0,0,0-.45-1.65,5.66,5.66,0,0,1-.3-1.8c0-.69,0-1.35.08-1.94s.08-1.25.08-1.95a8.13,8.13,0,0,0,.14-1.43,7.23,7.23,0,0,1,.15-1.42V600.23c0-.49,0-1,.08-1.49a9.52,9.52,0,0,1,.22-1.35c0-.5,0-1,.08-1.5s.07-1,.07-1.5,0-1.2.08-1.8a14.7,14.7,0,0,1,.22-1.65,4.41,4.41,0,0,0,.15-1.05v-5.7a7.09,7.09,0,0,1,.23-1.87,17.58,17.58,0,0,0,.37-1.73l.45-.75a3.44,3.44,0,0,0,.75-1.34q.3-.9.9-.9a8.45,8.45,0,0,1,.9-.53,1.17,1.17,0,0,0,.6-.82l.15-.15a.67.67,0,0,0,.3-.08.66.66,0,0,1,.3-.07,1.53,1.53,0,0,0,1-.3,1.05,1.05,0,0,1,1-.15,4.93,4.93,0,0,0,1.2.15,4.93,4.93,0,0,1,1.2.15,6,6,0,0,1,4.65,3.89l.9,3a5,5,0,0,0,1.35,2.85q.9,1.05,1.8,2.25c.6.8,1.24,1.6,1.94,2.4a76.21,76.21,0,0,1,7.2,11.09l.6,1.2.6,1.2,7.8,15.74c.6,1.11,1.17,2.23,1.72,3.38a31.89,31.89,0,0,0,1.87,3.37c.2.4.4.78.6,1.13a4.38,4.38,0,0,1,.45,1.12,30.21,30.21,0,0,0,1.8,3.6q.15.15.15,0a.43.43,0,0,0,.3-.15l.45-5.25v-1.5a14.8,14.8,0,0,0,.23-1.57,15,15,0,0,1,.22-1.58,2.36,2.36,0,0,0,.08-1.05,3.26,3.26,0,0,1,.07-1.2c0-.6,0-1.22.08-1.87s.12-1.27.22-1.87a3.1,3.1,0,0,0,.15-1v-5H457v-5.55a4,4,0,0,0-.3-1.5,4.55,4.55,0,0,1-.15-1.35l.15-1.05a4.18,4.18,0,0,0-.07-.82,4.25,4.25,0,0,1-.08-.83,1.67,1.67,0,0,0-.15-1.19,2.66,2.66,0,0,1-.3-1.2,4.93,4.93,0,0,0,.15-1.2v-1.2a.53.53,0,0,0-.6-.6q-.15,0-.15-.3a1,1,0,0,1,0-.75,4.4,4.4,0,0,0,.3-1.65v-6.15a3.69,3.69,0,0,1,.15-1.8,8.56,8.56,0,0,1,.75-1.65l.6-.9c.5-.5,1-1,1.65-1.5l1.8-1.49.6-.3,1.42-.3a3.44,3.44,0,0,1,1.43,0,2.09,2.09,0,0,1,.9.15c.4.2.8.42,1.2.67s.8.52,1.2.82a.86.86,0,0,1,.37.31,1.2,1.2,0,0,0,.23.3,3.43,3.43,0,0,1,.52.67c.15.25.28.47.38.67a2.73,2.73,0,0,1,1,1.43c.15.55.28,1.07.38,1.57v6.3c0,.7,0,1.37.07,2s.13,1.33.23,2a5.16,5.16,0,0,1,.15,1.12v1.13c0,.8,0,1.62.07,2.47s.08,1.68.08,2.47v1c0,.7,0,1.38-.08,2s-.07,1.32-.07,2v6.6c0,1,0,2-.08,3.07a22,22,0,0,0,.08,3.23,2.16,2.16,0,0,1-.15.89c-.1,1-.15,2-.15,2.93s-.06,1.92-.15,2.92v1.35a8.48,8.48,0,0,1-.15,1.5,3,3,0,0,0-.08,1.2,9.67,9.67,0,0,1,.08,1.2,10.27,10.27,0,0,1,.22,2.7c-.05.9-.13,1.8-.22,2.7-.11,1.6-.18,3.22-.23,4.87a32.74,32.74,0,0,0,.23,5c0,.4,0,.85.07,1.35s.08,1,.08,1.5a17.9,17.9,0,0,0,.22,4.35c.25,1.4.52,2.8.82,4.2.2,1,.4,2,.6,2.92a26.58,26.58,0,0,1,.45,3.07,1.19,1.19,0,0,1-.15.75c-.1.2-.2.43-.3.68a1.82,1.82,0,0,0-.15.67,5.33,5.33,0,0,1-.82,2.25c-.45.7-.93,1.4-1.42,2.1A4.94,4.94,0,0,1,464.19,671.75Z" transform="translate(0 180)"/><path class="cls-24" d="M518,670.25a2.09,2.09,0,0,0-.9-.15q-.3,0-.6-.45c-.2-.3-.4-.57-.6-.82a5.6,5.6,0,0,1-.6-1q-.45-.6-.75,0h-.3a.43.43,0,0,0-.15-.3,16.33,16.33,0,0,0-1.35-3.9c-.3-.8-.57-1.62-.82-2.47a15.21,15.21,0,0,1-.53-2.62l-.9-6.6-.45-5.4v-.3a22.26,22.26,0,0,1-.3-3.67v-3.82a14.39,14.39,0,0,1-.15-2,14.25,14.25,0,0,0-.15-2c-.1-.8-.17-1.6-.22-2.4s-.08-1.55-.08-2.25l.15-11.84V602.18q-.3-.9-.9-.9a3.47,3.47,0,0,0-.67.08,3.47,3.47,0,0,1-.67.07l-6.75,1.8c-.9.3-1.8.58-2.7.83s-1.8.52-2.7.82c-.7.1-1.37.18-2,.23s-1.33.07-2,.07a3,3,0,0,1-1.65-.6,5.67,5.67,0,0,1-1.8-1.2,22.13,22.13,0,0,1-1.49-1.65l-.3-.45c-.21-.69-.38-1.37-.53-2a5.25,5.25,0,0,1-.07-2,8.42,8.42,0,0,1,.67-2.55,5.8,5.8,0,0,1,1.57-2.1,3.89,3.89,0,0,0,.83-.75c.25-.3.52-.6.82-.9a2.63,2.63,0,0,1,.75-.3,3.64,3.64,0,0,0,1.65-.38,6.37,6.37,0,0,1,1.5-.52l1.5-.3,1.5-.3c1.4-.4,2.8-.77,4.2-1.12a41.55,41.55,0,0,1,4.2-.83l8.09-1.35a1.23,1.23,0,0,1,.53-.15.5.5,0,0,0,.37-.15,11.85,11.85,0,0,1,1.8-.45,3.69,3.69,0,0,1,1.8.15.68.68,0,0,0,.52.08,1.29,1.29,0,0,1,.38-.08l5.1-.6c1.7-.2,3.34-.45,4.94-.75l3.9-.6q2-.3,3.9-.45,1.5-.3,3-.45l3-.3,2.47-.3c.85-.09,1.67-.2,2.48-.3a13,13,0,0,1,2.32-.07c.75.05,1.52.07,2.32.07a2.54,2.54,0,0,1,1.43.45,11.93,11.93,0,0,0,1.27.75,17.14,17.14,0,0,1,1.65,1.5,3.43,3.43,0,0,1,.6,1.35c.1.3.2.63.3,1s.2.72.3,1.12a3.73,3.73,0,0,1-.3,2.55l-.9,2.1a4.09,4.09,0,0,1-.37.82,3.54,3.54,0,0,1-.53.68l-.3.3c-.4.3-.82.6-1.27.9a4,4,0,0,1-1.58.6L545,596c-.6,0-1.2,0-1.8.07s-1.25.13-2,.23h-.75q-2.4.15-4.65.45l-4.5.6-6,.9a.85.85,0,0,0-.6.15c-.4,0-.7.3-.9.89v3.38c0,.95,0,1.92.15,2.92a9.91,9.91,0,0,1,0,4.2,7.55,7.55,0,0,0-.23.82,3.56,3.56,0,0,0-.07.68,13.7,13.7,0,0,1-.3,3.9v.9a2.83,2.83,0,0,0,.15.9,5.58,5.58,0,0,1,.15,1.35v9.29c0,.4,0,.88-.08,1.42s-.07,1.08-.07,1.58,0,.85.07,1.35.08,1,.08,1.5c0,.7,0,1.4.07,2.1a12.36,12.36,0,0,1-.07,2.25v4.64a.67.67,0,0,1-.08.3c0,.1,0,.25.08.45.09.9.15,1.83.15,2.78a12.71,12.71,0,0,0,.3,2.77,5.46,5.46,0,0,0,.07.9,2,2,0,0,1-.07.9,12.76,12.76,0,0,0,.3,2.77c.2,1,.35,1.88.45,2.78.2,1.1.42,2.2.67,3.3s.47,2.19.68,3.29l.45,2.1a.88.88,0,0,1-.45.75.4.4,0,0,0-.3.15q-.76.3-.6.9v.75q-.17.3-.3.3a1.41,1.41,0,0,0-1.2.6,4.55,4.55,0,0,1-1,1,6,6,0,0,1-1.27.67A5.7,5.7,0,0,1,518,670.25Z" transform="translate(0 180)"/><path class="cls-24" d="M596,671.9a.61.61,0,0,0-.45-.15c-1-.6-2-1.18-2.93-1.73a15.93,15.93,0,0,1-2.62-1.87,1.62,1.62,0,0,1-.75-.6,9.7,9.7,0,0,1-2.4-1.87,19.39,19.39,0,0,1-2-2.48,4.92,4.92,0,0,1-.6-.75,6,6,0,0,0-.75-.9,11.19,11.19,0,0,1-2.4-3.59,4.15,4.15,0,0,0-.44-.9q-.31-.45-.6-.9a11.14,11.14,0,0,1-1.35-2.25,11.22,11.22,0,0,0-.9-2.33c-.4-.75-.8-1.47-1.2-2.17a5.86,5.86,0,0,0-.45-1.2,5.86,5.86,0,0,1-.45-1.2,3.73,3.73,0,0,0-.45-1.65c-.4-1.1-.78-2.22-1.13-3.37s-.67-2.32-1-3.52a2.3,2.3,0,0,1-.3-.9,19.27,19.27,0,0,1-1.35-4.05q-.45-2.1-.9-4l-.9-6.75a1.67,1.67,0,0,1-.15-.75V619.5a5.42,5.42,0,0,0-.3-1.72,8.6,8.6,0,0,1,.15-3.6,6.75,6.75,0,0,1,.08-1.13,9.75,9.75,0,0,0,.07-1.12,14.66,14.66,0,0,1,.08-1.58,9.68,9.68,0,0,1,.22-1.42,3.9,3.9,0,0,0,.15-1.2,17.8,17.8,0,0,0,.38-2.62c.05-.85.12-1.68.22-2.48a19.25,19.25,0,0,0,.45-4,6.71,6.71,0,0,1,.08-1.12,8.82,8.82,0,0,1,.22-1.12,8.94,8.94,0,0,0-.15-2,1.82,1.82,0,0,1-.15-1.65,2.3,2.3,0,0,0,.3-.9,1.51,1.51,0,0,0,.15-.68c0-.24.15-.42.45-.52h1a.69.69,0,0,0,.75-.45q.15-.6,1.05-.9l1.35-.53a4.53,4.53,0,0,0,1.2-.67,1.85,1.85,0,0,1,1-.3,5,5,0,0,1,1.2.15l2.69.9c.1.1.18.15.23.15s.12,0,.22.15a12,12,0,0,1,2,2.7,8.17,8.17,0,0,1,1,3.3v1.12a2.55,2.55,0,0,1-.3,1.13l-.3,1.79c-.1.6-.2,1.26-.3,2a20.41,20.41,0,0,0-.37,2.93c0,1-.08,1.92-.08,2.92a4.69,4.69,0,0,0-.15,1.13,4.61,4.61,0,0,1-.15,1.12q-.15,1.8-.15,3.6a19.26,19.26,0,0,0,.3,3.45,2.13,2.13,0,0,0,.08.45.85.85,0,0,1-.08.6,17.43,17.43,0,0,0,.3,3.14c.2,1.11.35,2.2.45,3.3s.2,2,.3,2.85a25.34,25.34,0,0,0,.45,2.7,3.72,3.72,0,0,1,.38,1.2,10.1,10.1,0,0,0,.22,1.2q.6,2.85,1.35,5.55a38.87,38.87,0,0,0,1.95,5.39,24.68,24.68,0,0,0,1.5,2.85,41.11,41.11,0,0,1,2.1,4.2c.4.7.8,1.37,1.2,2s.8,1.33,1.2,2a16.37,16.37,0,0,0,1.2,1.35,16.37,16.37,0,0,1,1.2,1.35,1.91,1.91,0,0,0,1.95.45,3.46,3.46,0,0,0,1.05-.6c.49-.3,1-.6,1.42-.9a8.33,8.33,0,0,0,1.27-1q1.65-1.65,3.08-3.3a20,20,0,0,0,2.47-3.6q.9-1.65,1.8-3.45t1.65-3.6c.6-1.39,1.17-2.79,1.72-4.19s1.08-2.85,1.58-4.35a22,22,0,0,0,1-3.08,23,23,0,0,0,.53-3.07c.2-1.1.37-2.22.52-3.37a15.91,15.91,0,0,0,.08-3.37,5.37,5.37,0,0,1,.07-.9,60.49,60.49,0,0,1,.3-2.85c0-.6-.12-1.2-.22-1.8-.1-1.7-.23-3.32-.38-4.87s-.27-3.13-.37-4.73a6,6,0,0,0-.15-1.65c-.1-.9-.18-1.8-.23-2.7a16.57,16.57,0,0,0-.37-2.69v-1.2c0-1,0-2-.08-2.93s-.07-1.92-.07-2.92c0-.8,0-1.52-.08-2.17s-.07-1.33-.07-2a5,5,0,0,1,.45-2.25,1.52,1.52,0,0,0,.3-1.2.89.89,0,0,1,.45-1.35,7.21,7.21,0,0,1,1.57-1.2,5.76,5.76,0,0,1,1.88-.59,1.18,1.18,0,0,1,.52-.16.49.49,0,0,0,.37-.14,2.74,2.74,0,0,1,2.4-.45,2.11,2.11,0,0,0,.9.14,3.44,3.44,0,0,1,1.95,1,8.5,8.5,0,0,0,1.35,1.05,3.49,3.49,0,0,1,1.65,1.5,6.33,6.33,0,0,1,.6,1.95c.2,1,.38,2,.52,2.85a10.36,10.36,0,0,1,.08,2.85v1.35c0,1,0,2,.08,2.92s.12,1.93.22,2.93a3,3,0,0,1,.15,1v1a16,16,0,0,0,.08,1.72c0,.55.12,1.12.22,1.72a2.09,2.09,0,0,1,.15.9,11.92,11.92,0,0,0,.07,2.93c.15,1,.28,1.92.38,2.92s.17,2.05.22,3.15.08,2.2.08,3.3a.45.45,0,0,1,.07.45,2.46,2.46,0,0,0-.07.6,6.52,6.52,0,0,0-.15,3.15,9.37,9.37,0,0,1-.15,3.74l-.3,2.7q-.15,1.35-.45,2.85a27.51,27.51,0,0,1-1.05,4.8l-1.5,4.8a2.53,2.53,0,0,1-.45,1,18.18,18.18,0,0,0-1.05,2.18,18,18,0,0,0-.75,2.32l-.45,1a28.87,28.87,0,0,0-1.27,2.93,28.89,28.89,0,0,1-1.28,2.92l-.9,1.8a9.26,9.26,0,0,1-1,1.65,2.55,2.55,0,0,1-.44.6,7.53,7.53,0,0,1-.9,1.95q-.62.9-1.2,1.8A31.55,31.55,0,0,1,616,663.5a42.22,42.22,0,0,1-4.72,4.2l-1.8,1a31.44,31.44,0,0,1-4.42,1.8,25.9,25.9,0,0,1-4.72,1.05,4.57,4.57,0,0,1-1.65,0h-.9a1.61,1.61,0,0,0-.9.3Z" transform="translate(0 180)"/><path class="cls-24" d="M662.83,673.4a5.08,5.08,0,0,1-4.65-1.8,15.46,15.46,0,0,1-1.65-2,9.74,9.74,0,0,1-1.2-2.25c-.5-1.4-1-2.82-1.34-4.27s-.75-2.87-1-4.27a12,12,0,0,1-.45-3.15c-.1-1.1-.23-2.18-.38-3.23a22.71,22.71,0,0,1-.22-3.22v-1.87a12.67,12.67,0,0,0-.15-1.88,4.41,4.41,0,0,1-.15-1v-5.32c0-1.45-.05-2.87-.15-4.27a14.45,14.45,0,0,0-.15-2.18,8.36,8.36,0,0,0-.6-2,6.24,6.24,0,0,1-.15-3.6.87.87,0,0,1,.15-.6,10.29,10.29,0,0,0,.37-2.1,9.84,9.84,0,0,0-.07-2.1,7.56,7.56,0,0,1-.15-1.5v-1.35a25,25,0,0,1-.08-3.37c0-1.15.13-2.27.23-3.37a2.83,2.83,0,0,0,.15-.9v-.9a13.16,13.16,0,0,1,.07-3.15c.15-1,.28-2,.38-3,.2-1.2.4-2.37.6-3.52s.45-2.33.75-3.52a4.4,4.4,0,0,0,.3-1.65v-1.8c0-.5,0-1-.08-1.5s-.07-1-.07-1.35v-.9a2.83,2.83,0,0,1,.15-.9,3.14,3.14,0,0,0,.15-.9.87.87,0,0,1,.15-.6,12.87,12.87,0,0,0,.75-1.12,3.11,3.11,0,0,1,.89-1c.5-.3,1-.6,1.43-.9a11.93,11.93,0,0,1,1.27-.75,3.52,3.52,0,0,0,1.2-.75,17.27,17.27,0,0,1,1.28-1.42,6,6,0,0,0,1.12-1.58c.5-.5,1-1.07,1.58-1.72a6.81,6.81,0,0,1,1.87-1.57,4.27,4.27,0,0,0,.9-.75,8.39,8.39,0,0,1,4.2-2.1,7,7,0,0,1,.82-.23,4.28,4.28,0,0,1,.83-.07l1.05-.45a1.84,1.84,0,0,1,2.1.45,3,3,0,0,0,.82.82c.35.25.67.48,1,.68.8.7,1.58,1.45,2.33,2.25a16.16,16.16,0,0,1,2,2.69,45.57,45.57,0,0,1,2.63,4.8q1.13,2.4,2.17,5l2.7,6.45a3.54,3.54,0,0,0,.75,1.65A20.47,20.47,0,0,1,691,603c.4,1.55.8,3.12,1.2,4.72a2.91,2.91,0,0,1,.22.6,2.47,2.47,0,0,1,.08.6c.2.8.37,1.63.52,2.47a8.66,8.66,0,0,1,.08,2.48,9.53,9.53,0,0,1-.08,2.62c-.15.85-.32,1.68-.52,2.48a20,20,0,0,1-1,2.77c-.4.85-.85,1.72-1.35,2.62a4.21,4.21,0,0,1-1,1.65,18.27,18.27,0,0,1-1.5,1.35,9.4,9.4,0,0,0-2.4,1.8,2.08,2.08,0,0,1-.67.45,2,2,0,0,0-.68.45l-2.25,1c-.8.36-1.6.68-2.4,1-.1,0-.15.07-.15.22a.52.52,0,0,0,.15.38l4.05,2.85,1.35.82c.4.25.8.53,1.2.83l.9.45c1.2.7,2.4,1.45,3.6,2.24s2.35,1.61,3.45,2.4q3.13,1.95,6.29,4a57.93,57.93,0,0,1,6,4.42,24,24,0,0,1,4.5,4.5c.3.3.6.62.9,1a3.36,3.36,0,0,0,1.05.83l.45.45a8.2,8.2,0,0,1,2.7,5.69,5.47,5.47,0,0,1-.08.9,5.46,5.46,0,0,0-.07.9,2.07,2.07,0,0,1-.6,1.5q-.6.3-.6.75a2.61,2.61,0,0,1-1.28,1.43,7.4,7.4,0,0,0-1.57,1,2.57,2.57,0,0,1-1,.15l-1.88-.3a12.27,12.27,0,0,0-1.87-.15,4.24,4.24,0,0,1-2.55-1.05c-.6-.5-1.15-1-1.65-1.42a10.66,10.66,0,0,1-1.5-1.73,21.91,21.91,0,0,0-5.1-5L693,657.81a22.15,22.15,0,0,0-3-1.95c-.7-.4-1.38-.83-2-1.28a17.73,17.73,0,0,0-2.17-1.27q-3.75-2.55-7.65-5t-7.79-5a15.81,15.81,0,0,0-1.35-.9l-1.5-.9a3.77,3.77,0,0,0-.9-.6q-.6,0-.6.45a.3.3,0,0,1-.08.23.31.31,0,0,0-.07.22v.9a2.83,2.83,0,0,0,.15.9,18.83,18.83,0,0,1,.15,2.33v2.32c0,.6,0,1.18.07,1.72s.13,1.13.23,1.73a6.81,6.81,0,0,0,.07,1,7,7,0,0,1,.08,1,8.19,8.19,0,0,0,.15,2.7,25.58,25.58,0,0,1,.45,2.69l.9,3.9c.1.4.2.83.3,1.28s.2.92.3,1.42a2.94,2.94,0,0,1,.07,1.13,11,11,0,0,1-.22,1.12q0,.15-.3.45a1.4,1.4,0,0,0-1.05,1.05,5.94,5.94,0,0,1-1.28,1.87c-.55.55-1.12,1.08-1.72,1.58a1.63,1.63,0,0,1-.6.3A5.82,5.82,0,0,0,662.83,673.4Zm5.85-52.48h.3c1.1-.2,2.22-.42,3.37-.67a26,26,0,0,0,3.37-1,6.31,6.31,0,0,0,2.85-1.65,3.3,3.3,0,0,0,1-2.4,9.32,9.32,0,0,0,.08-2,10.21,10.21,0,0,0-.38-2q-.6-2.7-1.35-5.32a39.87,39.87,0,0,0-1.8-5l-1.34-3.59c-.3-1-.66-2-1.05-2.93a28.33,28.33,0,0,0-1.35-2.77,6.27,6.27,0,0,1-.3-.68c-.1-.24-.21-.47-.3-.67l-.6-.6q-.45-.6-1.05,0-.15,0-.45.3a21.59,21.59,0,0,0-1.88,2.85,8.17,8.17,0,0,0-1,3.3,10.14,10.14,0,0,0-.23,1.2,11,11,0,0,0-.07,1.34V605a41.58,41.58,0,0,0-.08,4.35,24.87,24.87,0,0,1-.22,4.35,1.85,1.85,0,0,0-.08.9,5.47,5.47,0,0,1,.08.9,10.44,10.44,0,0,1,.15,1.72V619c0,1,.12,1.6.37,1.79A3,3,0,0,0,668.68,620.92Z" transform="translate(0 180)"/><path class="cls-24" d="M745.59,671.45a3.12,3.12,0,0,1-1.2-.15,2.93,2.93,0,0,0-1.42-.23,13,13,0,0,1-1.43.08.66.66,0,0,0-.3.07.67.67,0,0,1-.3.08,14.25,14.25,0,0,1-2,.15,5.92,5.92,0,0,1-1.88-.3.43.43,0,0,0-.3-.15,2,2,0,0,1-1.79-.6q-.76-.75-1.5-1.35a2.26,2.26,0,0,1-.75-1.65l-.45-1.2a3.47,3.47,0,0,1-.3-2,.9.9,0,0,0,.07-.6,2.46,2.46,0,0,1-.07-.6,1.47,1.47,0,0,1-.15-.67,1.54,1.54,0,0,0-.15-.68,11.59,11.59,0,0,1,.75-8.62c.6-1.44.94-2.32,1.05-2.62a2.56,2.56,0,0,0,.45-1.2,23.53,23.53,0,0,1-.08-3.37c0-1.15.08-2.28.08-3.38a2.71,2.71,0,0,1,.45-1.65,2.58,2.58,0,0,0,.15-2.24l-.45-1.65a2.31,2.31,0,0,1,.15-2.85.32.32,0,0,1,.07-.23.29.29,0,0,0,.08-.22.84.84,0,0,0,.15-.83,2.8,2.8,0,0,1-.15-.82,4.05,4.05,0,0,1,.22-1.28,2.32,2.32,0,0,0,.08-1.27l-.3-.3a2.61,2.61,0,0,1-.08-1.2c.05-.6.08-1,.08-1.05v-4.2a8.07,8.07,0,0,0,.15-1.42,6.54,6.54,0,0,1,.15-1.42,8.35,8.35,0,0,0,.07-1.88c-.05-.65-.07-1.32-.07-2a12.63,12.63,0,0,1-.23-1.65c0-.6-.07-1.2-.07-1.8a1.67,1.67,0,0,1-.15-.75V611a13,13,0,0,1-.23-1.5c-.05-.5-.07-1-.07-1.5a12.45,12.45,0,0,0-.6-2,6.65,6.65,0,0,1-.45-2.93,1.82,1.82,0,0,0,.15-.75,1,1,0,0,0-.3-.75.6.6,0,0,1-.3-.6v-.45a5.05,5.05,0,0,0-.45-3.59,2.45,2.45,0,0,1-.45-1.8,2,2,0,0,0-1-1.8,8.47,8.47,0,0,1-1.35-1.8,5.91,5.91,0,0,1-.75-2.1,7.63,7.63,0,0,1-.15-1.5v-1.35a1.19,1.19,0,0,1,.15-.75,1.94,1.94,0,0,0,.6-1.42,4.25,4.25,0,0,1,.15-1.28.43.43,0,0,1,.3-.15.43.43,0,0,0,.3-.15q.6-.15.6-1.05a2.38,2.38,0,0,1-.3-1,1,1,0,0,1,.45-1q.3-.59.75-.3a2.63,2.63,0,0,0,2.4-.3,2.87,2.87,0,0,1,.75-.3h.44a1.69,1.69,0,0,1,.9-.14,1.81,1.81,0,0,0,1.65-.61,3.5,3.5,0,0,1,2.55-1h9.3c2.3.1,4.59.1,6.89,0s4.55-.15,6.75-.15a9.3,9.3,0,0,0,1.28-.08,11,11,0,0,0,1.12-.22,4.64,4.64,0,0,1,2.1-.45h3.45c.8,0,1.52,0,2.17-.08s1.32-.12,2-.22a4.55,4.55,0,0,1,1.12-.15h2.32a4.93,4.93,0,0,0,1.2-.15c.8-.1,1.65-.18,2.55-.23s1.75-.07,2.55-.07a7.87,7.87,0,0,0,1.12-.08,11.17,11.17,0,0,0,1.13-.22,13.18,13.18,0,0,1,2.32-.38c.75,0,1.48-.12,2.18-.22l2.32-.3,2.17-.3a4.65,4.65,0,0,1,1.95.3c.6.4,1.18.75,1.73,1a6.91,6.91,0,0,1,1.57,1.2,3,3,0,0,1,.75,1l.3,1.2c.1.4.2.85.3,1.34v1a15.42,15.42,0,0,0-.22,1.58c-.05.55-.13,1.12-.23,1.72a4,4,0,0,1-.75,1l-2.7,2.7a16,16,0,0,1-2.92.6,14.25,14.25,0,0,1-2.92,0h-1.05a7.58,7.58,0,0,1-3,0,7.76,7.76,0,0,0-1.8-.08c-.6.06-1.2.08-1.8.08a7.76,7.76,0,0,0-1.12.08,2.94,2.94,0,0,1-1.13-.08,4.94,4.94,0,0,0-1.42-.08c-.45.06-.93.13-1.43.23s-.82,0-1.27.07a10.91,10.91,0,0,1-1.43.08,27.06,27.06,0,0,1-4.12.3,30.12,30.12,0,0,0-4.27.3,9,9,0,0,0-2.55.07c-.8.16-1.65.28-2.55.38a20.58,20.58,0,0,1-2.55.15,10.48,10.48,0,0,0-2.55.3,11.86,11.86,0,0,0-2.92.37,19,19,0,0,1-2.92.53l-1.05.15a8,8,0,0,0-1.95.22c-.6.15-1.25.33-2,.53a10.1,10.1,0,0,1-1.2.22c-.4.06-.85.13-1.35.23a2.42,2.42,0,0,0-1.05.3q-.45.15-.45.9l.45,1.35a3.12,3.12,0,0,1-.07,1.5c-.15.8-.28,1.4-.38,1.8a2.73,2.73,0,0,0,.15.89l.3.9a7.49,7.49,0,0,1,.45,2.63,10.77,10.77,0,0,0,.3,2.62,5.28,5.28,0,0,1,.15,1.28,7.23,7.23,0,0,0,.15,1.42,3.49,3.49,0,0,0,.07.68,4.15,4.15,0,0,1,.08.82.87.87,0,0,1-.15.6,2.19,2.19,0,0,0-.45,1.35v1.5a6.66,6.66,0,0,1,.75,3v3c0,.3.25.41.75.3h.15a3.59,3.59,0,0,1,.6-.89,2.42,2.42,0,0,0,1-.3,2.13,2.13,0,0,1,1.2-.3,6.71,6.71,0,0,0,2.25-.08c.69-.15,1.4-.32,2.1-.52A76.28,76.28,0,0,0,767,612.68a25.76,25.76,0,0,1,3.45-1.28,18.23,18.23,0,0,1,3.6-.67h.45l2.69-.3a24.43,24.43,0,0,1,2.7-.15c1.2-.1,2.38-.25,3.53-.45s2.32-.35,3.52-.45c.7-.2,1.35-.38,1.95-.52a13.06,13.06,0,0,0,2-.68,10.05,10.05,0,0,1,3.6-.75,10.62,10.62,0,0,1,2.24.53,13.12,13.12,0,0,1,2.1,1,5,5,0,0,1,2.25,4.5,13,13,0,0,1-.22,2.4,13,13,0,0,0-.23,2.4.86.86,0,0,1-.3.6l-.45.75-.3,1.19a1.34,1.34,0,0,1-.75.9l-1.87,1.58a5.37,5.37,0,0,1-2.17,1.12l-1.13.3a4,4,0,0,1-1.12.15,40.57,40.57,0,0,0-4.88.3l-5,.6c-1.3.1-2.57.25-3.82.45a24.2,24.2,0,0,1-3.82.3,13,13,0,0,0-4.05.75l-3.15.6q-1.65.3-3.3.45c-.8.1-1.63.23-2.47.38s-1.68.27-2.48.37l-2.55.45a2.09,2.09,0,0,1-.9.15,15.94,15.94,0,0,1-2.09.45,15.41,15.41,0,0,0-2.1.45,13.31,13.31,0,0,0-2,.45l-2,.6a2.77,2.77,0,0,0-1.2.52,3,3,0,0,0-.75,1,1.39,1.39,0,0,0,0,.9,1.69,1.69,0,0,1-.15,1.2c.1,1,.17,2,.22,3a19.88,19.88,0,0,1-.07,3,7.82,7.82,0,0,1,.22,2.4c-.05.8-.12,1.6-.22,2.4a5.84,5.84,0,0,0,.15,3,7.1,7.1,0,0,1-.3,4q-.3.9,0,1.2a1,1,0,0,1,0,1v.9q-.15,1.2,1,1.2h.3a3.6,3.6,0,0,1,2.1.75,1.71,1.71,0,0,0,1.8.45l4.2-.45c.6-.1,1.19-.18,1.79-.23s1.2-.07,1.8-.07a1.06,1.06,0,0,1,.9.15,1.35,1.35,0,0,0,1.35.15,1.89,1.89,0,0,1,.83-.45,1.85,1.85,0,0,0,.82-.45,2.28,2.28,0,0,1,2.25-.6,2.52,2.52,0,0,0,2-.15,5.76,5.76,0,0,1,2.55-.3,2.59,2.59,0,0,0,1.5-.15,4,4,0,0,1,1.5-.3,1.06,1.06,0,0,1,.45.07.24.24,0,0,0,.3-.07,1.36,1.36,0,0,0,.6-.15,1.06,1.06,0,0,1,.45-.15,3.44,3.44,0,0,1,1.94-.3h.75a2.16,2.16,0,0,1,1.13,0,3.43,3.43,0,0,1,1,.45,4.27,4.27,0,0,1,1.28.45,4.38,4.38,0,0,0,1.12.45.61.61,0,0,1,.45.15,7.4,7.4,0,0,0,1.88,1c.75.3,1.17.65,1.27,1.05a5.37,5.37,0,0,1,.3,1.72,10.44,10.44,0,0,0,.15,1.72,6.82,6.82,0,0,1-.07.9,7.43,7.43,0,0,1-.23.9c-.2.4-.43.85-.67,1.35a5.18,5.18,0,0,1-1,1.35,5.56,5.56,0,0,0-.52.6,5.7,5.7,0,0,1-.53.6,7,7,0,0,1-1.35,1,3.15,3.15,0,0,1-1.65.45,2.09,2.09,0,0,0-.9.15,2.66,2.66,0,0,1-1.2.3H776c-.7.1-1.37.18-2,.22a8.62,8.62,0,0,1-2-.07,1.87,1.87,0,0,0-1.05,0,6.12,6.12,0,0,1-3,.15c-1,0-2,0-2.93.07s-1.87.08-2.77.08h-2a1.67,1.67,0,0,0-.75.15,3.13,3.13,0,0,1-1.42.3,8.07,8.07,0,0,1-1.58-.15H755a2,2,0,0,0-.46.07.81.81,0,0,1-.59-.07,1.63,1.63,0,0,0-.83-.08,7,7,0,0,0-.82.23,1.66,1.66,0,0,0-.53.07,1.62,1.62,0,0,1-.52.08,10.78,10.78,0,0,0-2.85.07C747.54,671.07,746.59,671.25,745.59,671.45Z" transform="translate(0 180)"/><path class="cls-24" d="M935.39,681.34a3.3,3.3,0,0,1-2.4-1.05l-.6-.89-.6-.9a16.75,16.75,0,0,1-1.34-6.6l-.45-3.6q-.45-2.1-.75-4.2a19.14,19.14,0,0,0-1-4.05l-.9-2.54a2.47,2.47,0,0,0-.08-.6,2.91,2.91,0,0,0-.22-.6l-2.25-7.95a2.66,2.66,0,0,1-.23-.75,1.34,1.34,0,0,0-.37-.75,8.38,8.38,0,0,1-.68-1.87c-.15-.65-.32-1.33-.52-2-.1-.5-.2-1-.3-1.42a9.68,9.68,0,0,0-.45-1.43,2.44,2.44,0,0,0-.6-1.12c-.2-.15-.65-.12-1.35.08a15.22,15.22,0,0,1-1.57.22,5.62,5.62,0,0,0-1.58.38,9.47,9.47,0,0,1-1.42.22c-.55.05-1.08.13-1.58.22l-2.1.45c-.5.11-1,.23-1.57.38a5.94,5.94,0,0,1-1.57.22l-2.7.45c-.8.21-1.65.4-2.55.6s-1.75.4-2.55.6a60.72,60.72,0,0,1-7.2,1.35q-1.2.3-1.35,1.05a.13.13,0,0,0-.15.15c-.6,1.6-1.27,3.18-2,4.72s-1.52,3.13-2.32,4.73c-.2.4-.38.77-.53,1.12s-.32.73-.52,1.13c-.1.2-.2.42-.3.67s-.2.48-.3.68a3.78,3.78,0,0,0-.9,2.54,5.48,5.48,0,0,1-.6,1.73c-.3.55-.6,1.07-.9,1.57a.59.59,0,0,1-.6.45,5.86,5.86,0,0,0-1.2.45q-.6.3-1.35.6a1.39,1.39,0,0,1-.9,0c-.2-.1-.43-.22-.67-.37a1.37,1.37,0,0,0-.68-.23,2.81,2.81,0,0,1-2.4-1.95,18.05,18.05,0,0,1-1.65-4.79,1.48,1.48,0,0,1,.08-1,6.83,6.83,0,0,0,.37-.9,2.2,2.2,0,0,0,1-1.35V655a8.44,8.44,0,0,1,.83-3.68,36.34,36.34,0,0,0,1.42-3.37,13.75,13.75,0,0,1,.75-1.8l.9-1.8a14.74,14.74,0,0,0,1-2c.25-.65.48-1.33.68-2a2.9,2.9,0,0,0,0-2.24,5.48,5.48,0,0,1-.3-1.73,10.44,10.44,0,0,1,.15-1.72,3.89,3.89,0,0,1,1.2-2.85,8.1,8.1,0,0,1,1.27-1.28,12.36,12.36,0,0,0,1.28-1.12,9,9,0,0,0,2.1-3.6,35.36,35.36,0,0,0,1-4c.25-1.35.53-2.67.83-4s.42-2.58.67-3.83.53-2.47.83-3.67a9.82,9.82,0,0,1,.37-1.42c.15-.45.27-.88.37-1.28.3-.8.61-1.57.9-2.32a9.4,9.4,0,0,0,.6-2.33,1,1,0,0,0,0-1,2.43,2.43,0,0,1,.08-1.35,9.8,9.8,0,0,0,.37-1.2,11.07,11.07,0,0,0,.68-2.09,11.36,11.36,0,0,1,.67-2.1c.5-1.3.93-2.38,1.28-3.23a24.33,24.33,0,0,0,1-2.92,17.58,17.58,0,0,1,.68-1.72,6.91,6.91,0,0,0,.52-1.73,25.07,25.07,0,0,0,.75-2.77,13.5,13.5,0,0,0,.3-2.78,6.06,6.06,0,0,1,.6-1.65,9,9,0,0,1,1.87-2.54c.75-.7,1.48-1.4,2.18-2.1a6.64,6.64,0,0,1,1.5-.68,1.81,1.81,0,0,1,1.5.23,2.63,2.63,0,0,0,.75.3,2.87,2.87,0,0,1,2.25.6,6.52,6.52,0,0,1,1.49,1.8,2,2,0,0,1,.46.75,4.72,4.72,0,0,0,.29.75,4.49,4.49,0,0,1,.75,2.39,5.86,5.86,0,0,0,.15,1.28c.1.45.2.92.3,1.42a1.44,1.44,0,0,0,1.35.9.19.19,0,0,1,.3,0,.43.43,0,0,1,.15.3,2,2,0,0,1,.45,2,5.26,5.26,0,0,0-.07,2.33c.15.74.32,1.52.52,2.32l1.2,3,1.2,3,1.5,3.29c.5,1.11,1,2.2,1.35,3.3.5,1.4,1,2.8,1.57,4.2s1.18,2.8,1.88,4.2l.45,1.65a11,11,0,0,0,.37,1.2,11.09,11.09,0,0,1,.38,1.2,8.32,8.32,0,0,1,.52.9,2.87,2.87,0,0,0,.53.75,4.87,4.87,0,0,1,.9,2.25A8.5,8.5,0,0,0,929.1,622a1,1,0,0,0,.9.45c1.5-.2,3-.37,4.49-.52a28.43,28.43,0,0,0,4.5-.83,12,12,0,0,1,3.15-.45,8.2,8.2,0,0,1,5.25,2,7.43,7.43,0,0,1,3,5.7,3.62,3.62,0,0,0,.15,1.2,2.27,2.27,0,0,1-.6,1.65,3,3,0,0,1-.53.9,10.47,10.47,0,0,0-.67.9,3.49,3.49,0,0,1-.6.9l-.9.75a3.92,3.92,0,0,1-.45.67,1.59,1.59,0,0,1-.75.53,11,11,0,0,0-1.2.37,3.82,3.82,0,0,1-1.35.23,15.05,15.05,0,0,1-4.8-.15h-2.4a2.3,2.3,0,0,0-.9.3q-.6.3-.6.75v.6a17.24,17.24,0,0,1,.68,2.77,8.92,8.92,0,0,0,.82,2.62,2.66,2.66,0,0,0,.3,1.2,15.06,15.06,0,0,1,1.2,2.78,27.74,27.74,0,0,1,.75,2.92,4.91,4.91,0,0,0,.3,1.2,15.87,15.87,0,0,1,.75,2.17,17.45,17.45,0,0,1,.45,2.33,3.15,3.15,0,0,0,.45,1.65,14,14,0,0,1,.9,2.7,24.1,24.1,0,0,1,.45,2.84.75.75,0,0,1,.15.53,1.47,1.47,0,0,0,.15.67,13.75,13.75,0,0,1,1.05,3.53c.2,1.25.45,2.47.75,3.67a7.75,7.75,0,0,1,.37,1.87c.05.65.08,1.33.08,2a3.73,3.73,0,0,1-.45,1.65l-.45.45a1.16,1.16,0,0,0-1,1l-.45.9a1.35,1.35,0,0,1-.9.74,1.44,1.44,0,0,0-1.05.45,2.23,2.23,0,0,1-1.65.6H937A8.07,8.07,0,0,0,935.39,681.34Zm-36.13-54.42,1.87-.3c.65-.1,1.38-.2,2.18-.3q.75-.15,2-.3l2.25-.3a10.29,10.29,0,0,1,2.1-.37c.69-.05,1.39-.13,2.1-.23a7.51,7.51,0,0,1,1.79-.37c.6,0,1.2-.13,1.8-.23q1.35-.3,1.05-1.5a15.58,15.58,0,0,0-.52-2.47,4.48,4.48,0,0,0-1.43-2.17,1.22,1.22,0,0,1-.3-.9V617c-.2-.8-.42-1.58-.67-2.33s-.53-1.47-.83-2.17a19.48,19.48,0,0,0-.67-2.18c-.25-.64-.52-1.32-.82-2l-1.8-5.4c-.3-.69-.58-1.4-.83-2.1s-.47-1.39-.67-2.09l-.45-.6h-.45l-.3.44q-.75,2.25-1.73,4.5a41.55,41.55,0,0,0-1.72,4.8,2.47,2.47,0,0,1-.15.75l-.3.9c-.4,1-.78,2.1-1.13,3.3a31.1,31.1,0,0,0-.82,3.6c-.1.7-.2,1.37-.3,2a16.07,16.07,0,0,1-.45,2l-1.35,5.85c-.1.1,0,.23.15.38A.89.89,0,0,0,899.26,626.92Z" transform="translate(0 180)"/><path class="cls-24" d="M1042.29,671.9a10.93,10.93,0,0,0-1.8-.15,3.15,3.15,0,0,1-1.65-.45,7.11,7.11,0,0,1-1.95-1,16.59,16.59,0,0,1-2.7-3.15,5.82,5.82,0,0,1-.3-.75,1.88,1.88,0,0,0-.45-.75c-.4-.9-.8-1.8-1.19-2.7s-.86-1.8-1.35-2.69l-1.5-2.7-1.5-2.7-1.5-2.7a24.91,24.91,0,0,1-1.35-2.85l-.9-1.5-1.2-2.1a9.49,9.49,0,0,1-.9-2.1,6.58,6.58,0,0,0-.75-1.35L1020,640c-.3-.69-.62-1.39-1-2.09a10.58,10.58,0,0,0-1.28-2l-.9-1.35q-2.4-3.9-4.5-8.1c-.3-.6-.62-1.2-1-1.8s-.73-1.2-1.12-1.8a2.61,2.61,0,0,0-.53-1,10.47,10.47,0,0,1-.67-.9q-.3-.45-.75,0c-.1.3-.2.58-.3.83s-.2.52-.3.82q-.6,1.65-1,3.3l-.9,3.3A23.71,23.71,0,0,1,1005,632a27.18,27.18,0,0,0-.75,2.7c-.1.7-.2,1.37-.3,2a11.46,11.46,0,0,1-.45,1.88,4.15,4.15,0,0,1-.08.82,6.79,6.79,0,0,1-.22.82,29.51,29.51,0,0,0-.83,4.58c-.14,1.55-.32,3.12-.52,4.72v.9a2.81,2.81,0,0,1,.08,1,7.43,7.43,0,0,1-.23.9,4.86,4.86,0,0,0-.15,2.7c.1.4.17.8.23,1.2a3.48,3.48,0,0,1-.08,1.2c-.1,1-.18,2-.22,2.92s-.08,1.87-.08,2.77a8.49,8.49,0,0,1-.45,2.7,1.37,1.37,0,0,1-.75.75,3,3,0,0,0-.75,1.05,1.37,1.37,0,0,1-.67.9,4,4,0,0,0-.83.6.61.61,0,0,1-.45.15.87.87,0,0,0-.6.15l-.82.3c-.25.1-.48.2-.68.3a5.67,5.67,0,0,1-1-.08,8.85,8.85,0,0,0-1-.07,9.08,9.08,0,0,1-2.39-.45,6.64,6.64,0,0,1-2.1-2,2.63,2.63,0,0,0-.45-.82c-.2-.25-.4-.53-.6-.83a6.81,6.81,0,0,1-1.35-3,17.78,17.78,0,0,0-.83-4.19,35.76,35.76,0,0,0-1.57-4.05,11.09,11.09,0,0,0-.38-1.2,5.14,5.14,0,0,0-.52-1.05c-.7-1.6-1.38-3.17-2-4.72s-1.33-3.13-2-4.73a.41.41,0,0,1-.15-.3.45.45,0,0,0-.15-.3,21.81,21.81,0,0,1-1.57-2.77c-.45-1-.93-1.92-1.43-2.92a24.69,24.69,0,0,0-2-3.45,8.49,8.49,0,0,0-.67-1.35,12,12,0,0,1-.67-1.2,2.37,2.37,0,0,1-.23-.75,1.35,1.35,0,0,0-.38-.75,18,18,0,0,1-2-3.6,32.76,32.76,0,0,0-1.87-3.75l-1.65-2.7c-.3-.49-.63-1-1-1.49s-.67-1-1-1.35a9.44,9.44,0,0,0-.9-1.28,5.48,5.48,0,0,1-.75-1.12c-.4-.6-.8-1.18-1.2-1.73s-.75-1.07-1-1.57-.8-1.17-1.2-1.72-.8-1.08-1.2-1.58a19.21,19.21,0,0,1-1.65-3.15,3.07,3.07,0,0,1,0-1.35c.2-.8.38-1.57.53-2.32s.32-1.47.52-2.17l.45-.6c.4-.4.77-.75,1.13-1.05s.72-.6,1.12-.9a2.63,2.63,0,0,1,.75-.3,9.21,9.21,0,0,1,3.15-.6,6.66,6.66,0,0,1,3,.75,10.49,10.49,0,0,1,1.5.75,4.07,4.07,0,0,1,2.1,2.4,15.13,15.13,0,0,0,.67,1.49,6.09,6.09,0,0,1,.52,1.5,25.24,25.24,0,0,0,3.3,6q1.2,1.65,2.55,3.75a1,1,0,0,1,.45.45,1.74,1.74,0,0,0,.3.45,14.47,14.47,0,0,1,1.65,2.4q.75,1.35,1.35,2.55a14.74,14.74,0,0,1,1,2c.25.65.53,1.33.83,2q1.2,2.7,2.25,5.4t2.1,5.25a8.29,8.29,0,0,0,.75,1.65,8.9,8.9,0,0,1,.75,1.65c.09.1.15.1.15,0q.3,0,.3-.15a6.05,6.05,0,0,0,.9-2.25l1.35-4.8c.19-.6.39-1.2.59-1.8s.4-1.25.6-2a22.52,22.52,0,0,0,1.35-4.2,7.15,7.15,0,0,1,.9-2.54,3.15,3.15,0,0,0,.45-1.65l.45-1.5,1.8-5.4a38.88,38.88,0,0,1,2.1-5.1c.3-.6.6-1.17.9-1.72s.6-1.07.9-1.58a4.18,4.18,0,0,1,.75-1,2.21,2.21,0,0,1,1-.59,2.32,2.32,0,0,1,1.35-.9,3.3,3.3,0,0,0,1.35-.6,1.19,1.19,0,0,1,.75-.15,2.42,2.42,0,0,1,1,.3,1.31,1.31,0,0,0,1.35-.15q.75-.6,1.35.3a2.58,2.58,0,0,0,.82,1c.35.25.68.48,1,.67a5.71,5.71,0,0,0,.68.6,1.62,1.62,0,0,1,.52.75l4.95,8.55c.5.8,1,1.63,1.5,2.47a26.08,26.08,0,0,1,1.35,2.63,6.82,6.82,0,0,1,1,1.65c.25.6.53,1.25.83,2a22.07,22.07,0,0,0,2.55,4.79l.6.9a3.79,3.79,0,0,1,.45.9,39.22,39.22,0,0,0,1.72,3.6c.65,1.2,1.28,2.45,1.88,3.75.09.2.22.45.37.75s.27.55.38.75a28.1,28.1,0,0,0,1.79,3.82c.7,1.25,1.4,2.47,2.1,3.67a3.82,3.82,0,0,0,.75.9q.3,0,.3-.15a3,3,0,0,0,.45-.75c.3-.9.6-1.77.9-2.62a11.72,11.72,0,0,0,.6-2.62,15.57,15.57,0,0,1,.6-1.95c.5-1.6,1-3.17,1.35-4.73s.8-3.12,1.2-4.72c.2-.6.4-1.22.6-1.87s.4-1.28.6-1.88c.6-2.09,1.2-4.17,1.8-6.22s1.15-4.12,1.65-6.22l1.8-7.5a2.77,2.77,0,0,0,0-1.8,1,1,0,0,1,.15-1.19,5.31,5.31,0,0,0,.9-1.65q.3-.9.6-1.65a31.78,31.78,0,0,1,1.2-3.3,3.16,3.16,0,0,1,.45-.9,4.2,4.2,0,0,0,.45-.9,2.16,2.16,0,0,1,1.34-1,8.32,8.32,0,0,1,.9-.52,6.91,6.91,0,0,1,.9-.38.52.52,0,0,1,.38-.15.5.5,0,0,0,.37-.15,5.6,5.6,0,0,1,1.58-.37,2.72,2.72,0,0,0,1.42-.53,1.83,1.83,0,0,1,2.1.15,18.4,18.4,0,0,1,2,1.65,4.85,4.85,0,0,1,1.2,2.7,2.83,2.83,0,0,1,.15.9v.9a28.29,28.29,0,0,1-1.35,6.44c-.2.6-.4,1.23-.6,1.88s-.4,1.27-.6,1.87a1.23,1.23,0,0,1-.07.38,1.39,1.39,0,0,0-.08.52,26.6,26.6,0,0,1-.75,4.8q-.6,2.4-1.35,4.65-.6,1.95-1,3.9c-.3,1.3-.65,2.6-1,3.89a2.9,2.9,0,0,0-.22.83,1.4,1.4,0,0,1-.38.82,6.35,6.35,0,0,0-.6,1.88,16.47,16.47,0,0,1-.45,2,11.17,11.17,0,0,0-.22,1.13,3.71,3.71,0,0,1-.38,1.12c-.3,1.1-.6,2.23-.9,3.37s-.55,2.28-.75,3.38l-1.34,5.09c-.1.41-.18.78-.23,1.13s-.13.73-.22,1.12a5.47,5.47,0,0,1-.08.9c0,.3-.13.65-.22,1.05-.1.6-.23,1.23-.38,1.88s-.28,1.32-.37,2-.21,1.38-.3,2-.21,1.38-.3,2.18a9.67,9.67,0,0,1-.08,1.2,11,11,0,0,0-.07,1.35l-.45,3.15a25.65,25.65,0,0,1-.15,2.84q-.15,1.35-.45,2.85a1.67,1.67,0,0,0-.15.75v.75a3.28,3.28,0,0,1-.6,2.1,3.79,3.79,0,0,1-.45.9l-.6.9-.75.75a2.79,2.79,0,0,0-.9.52,10.63,10.63,0,0,1-.9.68A4.3,4.3,0,0,1,1042.29,671.9Z" transform="translate(0 180)"/><path class="cls-24" d="M1135.09,681.34a3.28,3.28,0,0,1-2.39-1.05c-.21-.29-.41-.59-.6-.89s-.4-.6-.6-.9a16.58,16.58,0,0,1-1.35-6.6l-.45-3.6q-.45-2.1-.75-4.2a18.55,18.55,0,0,0-1-4.05l-.9-2.54a2.47,2.47,0,0,0-.08-.6,2.91,2.91,0,0,0-.22-.6l-2.25-7.95a2.66,2.66,0,0,1-.23-.75,1.34,1.34,0,0,0-.37-.75,8.35,8.35,0,0,1-.67-1.87c-.15-.65-.33-1.33-.53-2-.1-.5-.2-1-.3-1.42a9.68,9.68,0,0,0-.45-1.43,2.44,2.44,0,0,0-.6-1.12c-.2-.15-.65-.12-1.35.08a14.84,14.84,0,0,1-1.57.22,5.62,5.62,0,0,0-1.58.38,9.47,9.47,0,0,1-1.42.22c-.55.05-1.08.13-1.57.22l-2.1.45c-.5.11-1,.23-1.58.38a5.94,5.94,0,0,1-1.57.22l-2.7.45c-.8.21-1.65.4-2.55.6s-1.75.4-2.55.6a60.94,60.94,0,0,1-7.19,1.35q-1.21.3-1.35,1.05a.13.13,0,0,0-.15.15c-.6,1.6-1.28,3.18-2,4.72s-1.52,3.13-2.32,4.73c-.2.4-.38.77-.53,1.12s-.32.73-.52,1.13c-.1.2-.2.42-.3.67s-.2.48-.3.68a3.78,3.78,0,0,0-.9,2.54,5.48,5.48,0,0,1-.6,1.73c-.3.55-.6,1.07-.9,1.57a.59.59,0,0,1-.6.45,5.86,5.86,0,0,0-1.2.45q-.6.3-1.35.6a1.39,1.39,0,0,1-.9,0c-.2-.1-.42-.22-.67-.37a1.37,1.37,0,0,0-.68-.23,2.81,2.81,0,0,1-2.4-1.95,18.05,18.05,0,0,1-1.65-4.79,1.48,1.48,0,0,1,.08-1,6.83,6.83,0,0,0,.37-.9,2.2,2.2,0,0,0,1-1.35V655a8.44,8.44,0,0,1,.83-3.68,36.34,36.34,0,0,0,1.42-3.37,13.75,13.75,0,0,1,.75-1.8l.9-1.8a14.85,14.85,0,0,0,1-2c.24-.65.47-1.33.67-2a2.9,2.9,0,0,0,0-2.24,5.48,5.48,0,0,1-.3-1.73,10.44,10.44,0,0,1,.15-1.72,3.89,3.89,0,0,1,1.2-2.85,8.55,8.55,0,0,1,1.27-1.28,12.36,12.36,0,0,0,1.28-1.12,9,9,0,0,0,2.1-3.6,35.36,35.36,0,0,0,1-4c.25-1.35.53-2.67.83-4s.42-2.58.67-3.83.53-2.47.83-3.67a11.31,11.31,0,0,1,.37-1.42c.15-.45.28-.88.38-1.28.3-.8.6-1.57.9-2.32a9.4,9.4,0,0,0,.6-2.33,1,1,0,0,0,0-1,2.43,2.43,0,0,1,.07-1.35,9.84,9.84,0,0,0,.38-1.2,11,11,0,0,0,.67-2.09,11.36,11.36,0,0,1,.67-2.1c.5-1.3.93-2.38,1.28-3.23a24.33,24.33,0,0,0,1-2.92,17.58,17.58,0,0,1,.68-1.72,6.91,6.91,0,0,0,.52-1.73,25.07,25.07,0,0,0,.75-2.77,13.5,13.5,0,0,0,.3-2.78,6.06,6.06,0,0,1,.6-1.65,9,9,0,0,1,1.88-2.54c.75-.7,1.47-1.4,2.17-2.1a6.64,6.64,0,0,1,1.5-.68,1.81,1.81,0,0,1,1.5.23,2.63,2.63,0,0,0,.75.3,2.87,2.87,0,0,1,2.25.6,6.55,6.55,0,0,1,1.5,1.8,1.88,1.88,0,0,1,.45.75,4.66,4.66,0,0,0,.3.75,4.49,4.49,0,0,1,.75,2.39,5.31,5.31,0,0,0,.15,1.28c.09.45.19.92.3,1.42a1.44,1.44,0,0,0,1.34.9.19.19,0,0,1,.3,0,.45.45,0,0,1,.16.3,2,2,0,0,1,.44,2,5.26,5.26,0,0,0-.07,2.33c.15.74.32,1.52.52,2.32l1.2,3,1.2,3,1.5,3.29c.5,1.11,1,2.2,1.35,3.3.5,1.4,1,2.8,1.58,4.2s1.17,2.8,1.87,4.2l.45,1.65a11,11,0,0,0,.37,1.2,11.09,11.09,0,0,1,.38,1.2,8.32,8.32,0,0,1,.52.9,2.87,2.87,0,0,0,.53.75,4.87,4.87,0,0,1,.9,2.25,8.5,8.5,0,0,0,1.35,2.69,1,1,0,0,0,.9.45c1.5-.2,3-.37,4.5-.52a28.52,28.52,0,0,0,4.49-.83,12,12,0,0,1,3.15-.45,8.2,8.2,0,0,1,5.25,2,7.4,7.4,0,0,1,3,5.7,3.9,3.9,0,0,0,.15,1.2,2.23,2.23,0,0,1-.6,1.65,2.83,2.83,0,0,1-.53.9,10.47,10.47,0,0,0-.67.9,3.49,3.49,0,0,1-.6.9l-.9.75a3.92,3.92,0,0,1-.45.67,1.59,1.59,0,0,1-.75.53,11,11,0,0,0-1.2.37,3.82,3.82,0,0,1-1.35.23,15.05,15.05,0,0,1-4.8-.15H1136a2.3,2.3,0,0,0-.9.3c-.4.2-.59.45-.59.75v.6a18.34,18.34,0,0,1,.67,2.77,8.92,8.92,0,0,0,.82,2.62,2.66,2.66,0,0,0,.3,1.2,15.06,15.06,0,0,1,1.2,2.78,27.74,27.74,0,0,1,.75,2.92,4.91,4.91,0,0,0,.3,1.2,15.87,15.87,0,0,1,.75,2.17,17.45,17.45,0,0,1,.45,2.33,3.15,3.15,0,0,0,.45,1.65,14,14,0,0,1,.9,2.7,24.1,24.1,0,0,1,.45,2.84.75.75,0,0,1,.15.53,1.47,1.47,0,0,0,.15.67,13.75,13.75,0,0,1,1.05,3.53c.2,1.25.45,2.47.75,3.67a8.28,8.28,0,0,1,.38,1.87c0,.65.07,1.33.07,2a3.73,3.73,0,0,1-.45,1.65l-.45.45a1.16,1.16,0,0,0-1,1l-.45.9a1.35,1.35,0,0,1-.9.74,1.44,1.44,0,0,0-1,.45,2.23,2.23,0,0,1-1.65.6h-1.42A8.07,8.07,0,0,0,1135.09,681.34ZM1099,626.92l1.88-.3c.65-.1,1.37-.2,2.17-.3q.75-.15,2-.3l2.25-.3a10.29,10.29,0,0,1,2.1-.37c.7-.05,1.4-.13,2.1-.23a7.69,7.69,0,0,1,1.8-.37c.6,0,1.2-.13,1.79-.23q1.35-.3,1-1.5a15.58,15.58,0,0,0-.52-2.47,4.53,4.53,0,0,0-1.42-2.17,1.18,1.18,0,0,1-.3-.9V617c-.21-.8-.43-1.58-.68-2.33s-.52-1.47-.82-2.17a21.74,21.74,0,0,0-.68-2.18c-.25-.64-.52-1.32-.82-2l-1.8-5.4c-.3-.69-.58-1.4-.83-2.1s-.47-1.39-.67-2.09l-.45-.6h-.45l-.3.44q-.75,2.25-1.73,4.5a41.55,41.55,0,0,0-1.72,4.8,2.47,2.47,0,0,1-.15.75l-.3.9c-.4,1-.77,2.1-1.12,3.3a29.21,29.21,0,0,0-.83,3.6c-.1.7-.2,1.37-.3,2a16.07,16.07,0,0,1-.45,2l-1.35,5.85c-.1.1,0,.23.15.38A.89.89,0,0,0,1099,626.92Z" transform="translate(0 180)"/><path class="cls-24" d="M1173.92,671.9a3.12,3.12,0,0,1-1.2-.15,8.23,8.23,0,0,0-1-.45l-.9-.3a5.39,5.39,0,0,1-.82-.68,4.94,4.94,0,0,1-.68-.82.86.86,0,0,0-.6-.3.79.79,0,0,1-.89-.9q-.16-.9-.3-1.8t-.3-1.8c-.11-.9-.18-1.8-.23-2.7a14.38,14.38,0,0,0-.37-2.54v-1.35a6.41,6.41,0,0,0-.08-1.05,6.51,6.51,0,0,1-.07-1,1.21,1.21,0,0,1,0-1.2,25.65,25.65,0,0,0,0-5.4,7.63,7.63,0,0,1-.15-1.5,8.48,8.48,0,0,0-.15-1.5v-3.07a15.69,15.69,0,0,0-.3-3.08v-2.39c0-.8,0-1.55-.08-2.25s-.13-1.4-.22-2.1c-.1-.9-.18-1.8-.23-2.7s-.13-1.8-.22-2.7a2.57,2.57,0,0,1-.15-1,14.8,14.8,0,0,1-.23-1.57c0-.55-.07-1.08-.07-1.58l-.45-7.49c-.1-.8-.18-1.58-.23-2.33s-.07-1.47-.07-2.17l-.3-3.6q-.15-1.8-.3-3.45a2.47,2.47,0,0,0-.08-.6,2,2,0,0,1-.07-.45q0-1.8-.15-3.6c-.1-1.19-.2-2.44-.3-3.74l-.45-4.2a18.15,18.15,0,0,1-.15-5.25,2.84,2.84,0,0,1,1.05-2.25,2.07,2.07,0,0,1,.45-.37,1.2,1.2,0,0,0,.3-.23.92.92,0,0,0,.75-1.05q0-.3.6-.3h.75a.31.31,0,0,0,.22-.07.32.32,0,0,1,.23-.08,2.14,2.14,0,0,0,.52-.37.61.61,0,0,1,.38-.23,2.46,2.46,0,0,1,.59.08,2.91,2.91,0,0,1,.6.22.61.61,0,0,0,.45-.15,3.42,3.42,0,0,1,1.58.08,7.73,7.73,0,0,1,1.42.52,1.79,1.79,0,0,1,1.35,1.2c.3.9.58,1.78.83,2.63a15.19,15.19,0,0,1,.52,2.62v1.2a7.84,7.84,0,0,1,.3,2.17V595c0,.7,0,1.37.08,2s.12,1.28.22,1.87v.9a2.83,2.83,0,0,0,.15.9c0,.6,0,1.2.08,1.8s.12,1.25.22,1.95q.15,1.65.3,3.45t.15,3.6v1.57a8.07,8.07,0,0,0,.15,1.58,2.83,2.83,0,0,1,.15.9v3.89a6.25,6.25,0,0,0,.15,1.5,6,6,0,0,1,.23,2,8.64,8.64,0,0,0,.07,2l.45,6.9c.1,1,.17,2,.22,3.07s.08,2.13.08,3.23v1.27a5.14,5.14,0,0,0,.15,1.27,2.83,2.83,0,0,1,.15.9v.9a.58.58,0,0,1,.07.53,1,1,0,0,0,.08.67,7.61,7.61,0,0,1,.3,2.1v2.25a9.41,9.41,0,0,0,.08,1.27c0,.46.07.93.07,1.43a8.43,8.43,0,0,1,.15,1.65v1.65a8,8,0,0,1,.15,1.57,8.07,8.07,0,0,0,.15,1.58,1.33,1.33,0,0,1,.15.6,18.22,18.22,0,0,0,.3,3.29l.6,3.3a3.1,3.1,0,0,1,.15,1v1a1,1,0,0,1-.3.75,3,3,0,0,0-.9,1.8.88.88,0,0,1-.45.75,5.67,5.67,0,0,0-1.8,1.2A4.19,4.19,0,0,1,1173.92,671.9Z" transform="translate(0 180)"/><path class="cls-24" d="M1224.3,670.25a2.15,2.15,0,0,0-.9-.15q-.3,0-.6-.45c-.2-.3-.4-.57-.6-.82a5.6,5.6,0,0,1-.6-1q-.45-.6-.75,0h-.3a.43.43,0,0,0-.15-.3,16.33,16.33,0,0,0-1.35-3.9c-.3-.8-.58-1.62-.83-2.47a15.19,15.19,0,0,1-.52-2.62l-.9-6.6-.45-5.4v-.3a22.26,22.26,0,0,1-.3-3.67v-3.82a14.39,14.39,0,0,1-.15-2,14.25,14.25,0,0,0-.15-2c-.1-.8-.18-1.6-.22-2.4s-.08-1.55-.08-2.25l.15-11.84V602.18q-.3-.9-.9-.9a3.38,3.38,0,0,0-.67.08,3.49,3.49,0,0,1-.68.07l-6.75,1.8c-.89.3-1.79.58-2.69.83s-1.8.52-2.7.82c-.7.1-1.38.18-2,.23s-1.32.07-2,.07a3,3,0,0,1-1.65-.6,5.67,5.67,0,0,1-1.8-1.2q-.75-.75-1.5-1.65l-.3-.45c-.2-.69-.37-1.37-.52-2a5.46,5.46,0,0,1-.08-2,8.73,8.73,0,0,1,.68-2.55,5.8,5.8,0,0,1,1.57-2.1,3.89,3.89,0,0,0,.83-.75,11.14,11.14,0,0,1,.82-.9,2.63,2.63,0,0,1,.75-.3,3.64,3.64,0,0,0,1.65-.38,6.37,6.37,0,0,1,1.5-.52l1.5-.3,1.5-.3c1.4-.4,2.79-.77,4.19-1.12a41.55,41.55,0,0,1,4.2-.83l8.1-1.35a1.19,1.19,0,0,1,.52-.15.52.52,0,0,0,.38-.15,11.85,11.85,0,0,1,1.8-.45,3.69,3.69,0,0,1,1.8.15.68.68,0,0,0,.52.08,1.29,1.29,0,0,1,.38-.08l5.09-.6q2.55-.3,5-.75l3.9-.6q1.95-.3,3.9-.45c1-.2,2-.35,3-.45l3-.3,2.48-.3c.85-.09,1.67-.2,2.47-.3a13.11,13.11,0,0,1,2.33-.07c.75.05,1.52.07,2.32.07a2.51,2.51,0,0,1,1.42.45,12,12,0,0,0,1.28.75,17.14,17.14,0,0,1,1.65,1.5,3.43,3.43,0,0,1,.6,1.35c.1.3.2.63.3,1s.2.72.3,1.12a3.73,3.73,0,0,1-.3,2.55l-.9,2.1a4.11,4.11,0,0,1-.38.82,3.5,3.5,0,0,1-.52.68l-.3.3c-.4.3-.83.6-1.28.9a4,4,0,0,1-1.57.6l-6.45.45c-.6,0-1.2,0-1.8.07s-1.25.13-2,.23h-.74c-1.61.1-3.15.25-4.65.45l-4.5.6-6,.9a.87.87,0,0,0-.6.15c-.4,0-.7.3-.9.89v3.38c0,.95,0,1.92.15,2.92a9.91,9.91,0,0,1,0,4.2,7.32,7.32,0,0,0-.22.82,3.65,3.65,0,0,0-.08.68,13.35,13.35,0,0,1-.3,3.9v.9a2.83,2.83,0,0,0,.15.9,5.58,5.58,0,0,1,.15,1.35v9.29c0,.4,0,.88-.07,1.42s-.08,1.08-.08,1.58,0,.85.08,1.35.07,1,.07,1.5c0,.7,0,1.4.08,2.1a11.56,11.56,0,0,1-.08,2.25v4.64a.66.66,0,0,1-.07.3.53.53,0,0,0,.07.45,25.21,25.21,0,0,1,.15,2.78,12.71,12.71,0,0,0,.3,2.77,5.47,5.47,0,0,0,.08.9,1.85,1.85,0,0,1-.08.9,13.41,13.41,0,0,0,.3,2.77c.2,1,.35,1.88.45,2.78.2,1.1.43,2.2.68,3.3s.47,2.19.67,3.29l.45,2.1a.88.88,0,0,1-.45.75.43.43,0,0,0-.3.15q-.75.3-.6.9v.75q-.15.3-.3.3a1.43,1.43,0,0,0-1.2.6,4.51,4.51,0,0,1-1,1,6.11,6.11,0,0,1-1.28.67A5.68,5.68,0,0,1,1224.3,670.25Z" transform="translate(0 180)"/><path class="cls-24" d="M1303.45,677.75l-2.55-.45c-1.3-.21-2.62-.4-4-.6s-2.72-.36-4.12-.45a8.4,8.4,0,0,1-4.2-1.2,5.59,5.59,0,0,1-2.7-3.3c-.1-.5-.22-1-.37-1.5s-.28-1-.38-1.5a4.14,4.14,0,0,1,.75-2.7,12.18,12.18,0,0,0,1.28-1.5,10,10,0,0,1,1.12-1.35,2.35,2.35,0,0,1,.6-.45l.6-.3a6.59,6.59,0,0,1,1.5-.67c.5-.15,1-.28,1.5-.38a.71.71,0,0,1,.52-.07,1.23,1.23,0,0,0,.38.07,14.6,14.6,0,0,0,1.65.23,5.69,5.69,0,0,1,1.65.37l6.29.9a5.89,5.89,0,0,0,3.75-.6c.4-.2.77-.39,1.13-.6s.67-.39,1-.6a37.26,37.26,0,0,0,5.7-4c1.2-1.1,2.34-2.2,3.45-3.3a26.7,26.7,0,0,0,3-3.6,6.79,6.79,0,0,0,1.35-2.77,9.55,9.55,0,0,0,.15-2.93l-.45-1.2a2.28,2.28,0,0,0-.6-1.2,8.9,8.9,0,0,1-.9-1,18.85,18.85,0,0,1-1.72-1.64,9.48,9.48,0,0,0-1.72-1.5q-2.25-1.8-4.43-3.45t-4.42-3.3a1.71,1.71,0,0,0-.9-.6,24.46,24.46,0,0,1-2.62-2l-2.48-2.18a30.61,30.61,0,0,0-3.29-2.85,4.61,4.61,0,0,1-1.65-1.5,7.34,7.34,0,0,0-1.8-1.5,10.34,10.34,0,0,1-2-1.42c-.6-.55-1.2-1.07-1.8-1.57l-2-1.8a17.29,17.29,0,0,0-1.27-1.43l-1.43-1.42a3,3,0,0,0-.82-1.2,6.58,6.58,0,0,1-1-1,4.38,4.38,0,0,0-.45-.68,2.52,2.52,0,0,1-.45-.82c-.6-1.2-1.22-2.4-1.87-3.6a32,32,0,0,1-1.73-3.75c-.3-.8-.57-1.57-.82-2.32s-.48-1.47-.67-2.17a9.8,9.8,0,0,0-.53-2.18,20.78,20.78,0,0,1-.67-2c-.21-1.1-.43-2.18-.68-3.23s-.47-2.07-.67-3.07l-.3-1.2a16.57,16.57,0,0,1,0-3.15,18.81,18.81,0,0,1,.9-3.74,5.78,5.78,0,0,1,2-2.85l3-2.4a14.92,14.92,0,0,1,3.15-1.95.61.61,0,0,0,.45-.15,9.68,9.68,0,0,1,3.3-1.73c1.2-.34,2.4-.67,3.6-1a102.83,102.83,0,0,1,14.84-3.15H1312q1.35,0,2.85-.15a17.62,17.62,0,0,1,3.6.38,16.29,16.29,0,0,1,3.44,1.12c.8.4,1.6.83,2.4,1.28a24.68,24.68,0,0,1,2.25,1.42,3.83,3.83,0,0,1,1.5,2l.45,1a6.47,6.47,0,0,1,.83,2.77,12.27,12.27,0,0,1-.23,2.93,8.68,8.68,0,0,1-.07,1,5.67,5.67,0,0,0-.08,1,7,7,0,0,1-3.15,5.1,5.29,5.29,0,0,1-4.35,1.2q-.6-.3-.6.3t-.75.6h-.89a2.59,2.59,0,0,1-1.8-.9,2,2,0,0,1-.75-1.2,1,1,0,0,1,.6-.9c-.21-.5-.4-1-.6-1.35a3.49,3.49,0,0,0-.6-.9,2.44,2.44,0,0,0-1.35-1.05c-.5-.09-1-.2-1.5-.3l-1.5-.3c-.4,0-.85,0-1.35-.07a13,13,0,0,1-1.5-.23,2.38,2.38,0,0,0-1.35.15,6,6,0,0,1-.9.23,2.61,2.61,0,0,1-1-.08h-1a2.55,2.55,0,0,0-1.13.3l-2.85.45A14,14,0,0,0,1296,583l-.9.3a1.39,1.39,0,0,1-.9,0,1.62,1.62,0,0,0-1.5.45.83.83,0,0,1-.68.38,1.39,1.39,0,0,0-.82.37,1.73,1.73,0,0,0-.6,1.2,2.09,2.09,0,0,1,.15.9l3.15,9.15a19.57,19.57,0,0,0,2.32,4.42q1.42,2,3.07,4a35.76,35.76,0,0,0,5.25,5.1l4.8,4a39,39,0,0,0,3.15,2.55q1.65,1.2,3.15,2.4,2.25,1.65,4.49,3.37t4.5,3.52l3.53,2.93a32.2,32.2,0,0,1,3.22,3.07l2.1,2.4a12.71,12.71,0,0,1,1.8,2.7,17.76,17.76,0,0,1,1.8,3.89,15.2,15.2,0,0,1,.75,5.4,2.09,2.09,0,0,0-.15.9,14.58,14.58,0,0,1-.38,3.38,17.93,17.93,0,0,1-1.12,3.22c-.5,1-1,2-1.58,3.07a28.1,28.1,0,0,1-1.87,3.08q-1.5,2-3.07,3.67a38,38,0,0,1-3.53,3.37c-.7.6-1.4,1.23-2.1,1.88a14.9,14.9,0,0,1-2.25,1.72c-.5.4-1,.77-1.49,1.12s-1,.73-1.5,1.13a7,7,0,0,0-1.2.75l-1.2.9a4.81,4.81,0,0,1-1.43,1c-.55.25-1.07.48-1.57.68l-4.35,1.8a13.1,13.1,0,0,1-2.7.6A15.07,15.07,0,0,1,1303.45,677.75Z" transform="translate(0 180)"/><image class="cls-25" width="500" height="375" transform="scale(2.79 2.5)" xlink:href="../../../adrenaline/styletile/img/old-photo-texture-png-3.png"/></g></g></svg>
