<svg xmlns="http://www.w3.org/2000/svg" width="1420" height="465" viewBox="0 0 1420 465"><defs><style>.cls-1,.cls-3{fill:#fd9248;}.cls-1,.cls-2{stroke:#ff6d2d;}.cls-1,.cls-2,.cls-3,.cls-4,.cls-5,.cls-6,.cls-7{stroke-miterlimit:10;}.cls-1,.cls-2,.cls-6{stroke-width:5.96px;}.cls-2{fill:#f6cd66;}.cls-3,.cls-4,.cls-5{stroke:#fff;}.cls-3,.cls-4{stroke-width:4.47px;}.cls-4{fill:#fd6c2d;}.cls-5,.cls-6,.cls-7{fill:none;}.cls-5{stroke-width:10.42px;}.cls-6,.cls-7{stroke:#fd6c2d;}.cls-7{stroke-width:4.55px;}.cls-8{opacity:0.5;}</style></defs><title>adventureicon-1</title><g id="Layer_2" data-name="Layer 2"><ellipse class="cls-1" cx="221.97" cy="35.24" rx="12.48" ry="18.24"/><circle class="cls-2" cx="220.66" cy="235.13" r="181.65"/><polygon class="cls-3" points="200.51 215.94 251.85 255.06 281.19 145.05 200.51 215.94"/><polygon class="cls-4" points="246.22 260.53 196.23 219.71 163.21 328.68 246.22 260.53"/><line class="cls-5" x1="103.03" y1="235.13" x2="55.58" y2="235.34"/><path class="cls-6" d="M439.53,243.32C439.53,359.67,345.2,454,228.85,454"/><path class="cls-6" d="M19.38,151.18A211.32,211.32,0,0,1,97.65,53.73"/><path class="cls-6" d="M34.52,163.32a211.39,211.39,0,0,1,78.27-97.45"/><path class="cls-6" d="M70,398.26A211.32,211.32,0,0,1,6.69,290.52"/><path class="cls-6" d="M82.16,388.36A211.35,211.35,0,0,1,18.81,280.61"/><line class="cls-5" x1="384.36" y1="235.84" x2="336.9" y2="236.05"/><line class="cls-5" x1="215.46" y1="352.86" x2="214.95" y2="400.32"/><line class="cls-5" x1="220.44" y1="71.58" x2="219.93" y2="119.03"/><path class="cls-7" d="M420.17,254.48C420.17,342,332,433.16,241.5,433.16"/><g class="cls-8"><ellipse class="cls-1" cx="682.25" cy="31.75" rx="12.48" ry="18.24"/><circle class="cls-2" cx="680.93" cy="231.64" r="181.65"/><polygon class="cls-3" points="660.78 212.46 712.12 251.57 741.46 141.56 660.78 212.46"/><polygon class="cls-4" points="706.5 257.05 656.5 216.22 623.48 325.19 706.5 257.05"/><line class="cls-5" x1="563.3" y1="231.64" x2="515.85" y2="231.85"/><path class="cls-6" d="M899.8,239.83c0,116.36-94.32,210.68-210.68,210.68"/><path class="cls-6" d="M479.65,147.69a211.39,211.39,0,0,1,78.27-97.45"/><path class="cls-6" d="M494.79,159.83a211.34,211.34,0,0,1,78.28-97.45"/><path class="cls-6" d="M530.32,394.78A211.4,211.4,0,0,1,467,287"/><path class="cls-6" d="M542.43,384.87a211.32,211.32,0,0,1-63.35-107.74"/><line class="cls-5" x1="844.63" y1="232.36" x2="797.18" y2="232.57"/><line class="cls-5" x1="675.73" y1="349.38" x2="675.22" y2="396.83"/><line class="cls-5" x1="680.71" y1="68.09" x2="680.2" y2="115.55"/><path class="cls-7" d="M880.45,251c0,87.52-88.22,178.67-178.68,178.67"/></g><g class="cls-8"><ellipse class="cls-1" cx="1167.25" cy="34.75" rx="12.48" ry="18.24"/><circle class="cls-2" cx="1165.93" cy="234.64" r="181.65"/><polygon class="cls-3" points="1145.78 215.46 1197.12 254.57 1226.46 144.56 1145.78 215.46"/><polygon class="cls-4" points="1191.49 260.05 1141.5 219.22 1108.48 328.19 1191.49 260.05"/><line class="cls-5" x1="1048.3" y1="234.64" x2="1000.85" y2="234.85"/><path class="cls-6" d="M1384.8,242.83c0,116.36-94.32,210.68-210.68,210.68"/><path class="cls-6" d="M964.65,150.69a211.39,211.39,0,0,1,78.27-97.45"/><path class="cls-6" d="M979.79,162.83a211.34,211.34,0,0,1,78.28-97.45"/><path class="cls-6" d="M1015.32,397.78A211.4,211.4,0,0,1,952,290"/><path class="cls-6" d="M1027.43,387.87a211.32,211.32,0,0,1-63.35-107.74"/><line class="cls-5" x1="1329.63" y1="235.36" x2="1282.18" y2="235.57"/><line class="cls-5" x1="1160.73" y1="352.38" x2="1160.22" y2="399.83"/><line class="cls-5" x1="1165.71" y1="71.09" x2="1165.2" y2="118.55"/><path class="cls-7" d="M1365.45,254c0,87.52-88.22,178.67-178.68,178.67"/></g></g></svg>
