<svg xmlns="http://www.w3.org/2000/svg" width="1420" height="468" viewBox="0 0 1420 468"><defs><style>.cls-1,.cls-3{fill:#fd9248;}.cls-1,.cls-2{stroke:#ff6d2d;}.cls-1,.cls-2,.cls-3,.cls-4,.cls-5,.cls-6,.cls-7{stroke-miterlimit:10;}.cls-1,.cls-2,.cls-6{stroke-width:5.96px;}.cls-2{fill:#f6cd66;}.cls-3,.cls-4,.cls-5{stroke:#fff;}.cls-3,.cls-4{stroke-width:4.47px;}.cls-4{fill:#fd6c2d;}.cls-5,.cls-6,.cls-7{fill:none;}.cls-5{stroke-width:10.42px;}.cls-6,.cls-7{stroke:#fd6c2d;}.cls-7{stroke-width:4.55px;}.cls-8{opacity:0.5;}</style></defs><title>adventureicon-2</title><g id="Layer_2" data-name="Layer 2"><ellipse class="cls-1" cx="232.3" cy="28.3" rx="12.48" ry="18.24"/><circle class="cls-2" cx="230.99" cy="228.19" r="181.65"/><polygon class="cls-3" points="210.84 209.01 262.18 248.13 291.52 138.11 210.84 209.01"/><polygon class="cls-4" points="256.55 253.6 206.56 212.78 173.54 321.74 256.55 253.6"/><line class="cls-5" x1="113.36" y1="228.19" x2="65.91" y2="228.4"/><path class="cls-6" d="M449.86,236.38c0,116.36-94.33,210.68-210.68,210.68"/><path class="cls-6" d="M29.71,144.24A211.32,211.32,0,0,1,108,46.79"/><path class="cls-6" d="M44.85,156.38a211.39,211.39,0,0,1,78.27-97.45"/><path class="cls-6" d="M80.37,391.33A211.39,211.39,0,0,1,17,283.58"/><path class="cls-6" d="M92.49,381.42A211.32,211.32,0,0,1,29.14,273.68"/><line class="cls-5" x1="394.69" y1="228.91" x2="347.23" y2="229.12"/><line class="cls-5" x1="225.79" y1="345.93" x2="225.28" y2="393.38"/><line class="cls-5" x1="230.77" y1="64.64" x2="230.26" y2="112.1"/><path class="cls-7" d="M430.5,247.55c0,87.52-88.21,178.67-178.67,178.67"/><ellipse class="cls-1" cx="692.58" cy="24.82" rx="12.48" ry="18.24"/><circle class="cls-2" cx="691.26" cy="224.7" r="181.65"/><polygon class="cls-3" points="671.11 205.52 722.45 244.64 751.79 134.62 671.11 205.52"/><polygon class="cls-4" points="716.83 250.11 666.83 209.29 633.81 318.25 716.83 250.11"/><line class="cls-5" x1="573.63" y1="224.7" x2="526.18" y2="224.91"/><path class="cls-6" d="M910.13,232.89c0,116.36-94.32,210.69-210.68,210.69"/><path class="cls-6" d="M490,140.75A211.39,211.39,0,0,1,568.25,43.3"/><path class="cls-6" d="M505.12,152.89A211.45,211.45,0,0,1,583.4,55.44"/><path class="cls-6" d="M540.65,387.84a211.47,211.47,0,0,1-63.36-107.75"/><path class="cls-6" d="M552.76,377.94a211.39,211.39,0,0,1-63.35-107.75"/><line class="cls-5" x1="854.96" y1="225.42" x2="807.51" y2="225.63"/><line class="cls-5" x1="686.06" y1="342.44" x2="685.55" y2="389.89"/><line class="cls-5" x1="691.04" y1="61.16" x2="690.53" y2="108.61"/><path class="cls-7" d="M890.78,244.06c0,87.53-88.22,178.67-178.67,178.67"/><g class="cls-8"><ellipse class="cls-1" cx="1177.58" cy="27.82" rx="12.48" ry="18.24"/><circle class="cls-2" cx="1176.26" cy="227.7" r="181.65"/><polygon class="cls-3" points="1156.11 208.52 1207.45 247.64 1236.79 137.62 1156.11 208.52"/><polygon class="cls-4" points="1201.83 253.11 1151.83 212.29 1118.81 321.25 1201.83 253.11"/><line class="cls-5" x1="1058.63" y1="227.7" x2="1011.18" y2="227.91"/><path class="cls-6" d="M1395.13,235.89c0,116.36-94.32,210.69-210.68,210.69"/><path class="cls-6" d="M975,143.75a211.39,211.39,0,0,1,78.27-97.45"/><path class="cls-6" d="M990.12,155.89a211.45,211.45,0,0,1,78.28-97.45"/><path class="cls-6" d="M1025.65,390.84a211.47,211.47,0,0,1-63.36-107.75"/><path class="cls-6" d="M1037.76,380.94a211.39,211.39,0,0,1-63.35-107.75"/><line class="cls-5" x1="1339.96" y1="228.42" x2="1292.51" y2="228.63"/><line class="cls-5" x1="1171.06" y1="345.44" x2="1170.55" y2="392.89"/><line class="cls-5" x1="1176.04" y1="64.16" x2="1175.53" y2="111.61"/><path class="cls-7" d="M1375.78,247.06c0,87.53-88.22,178.67-178.67,178.67"/></g></g></svg>
