<svg xmlns="http://www.w3.org/2000/svg" width="1413" height="465" viewBox="0 0 1413 465"><defs><style>.cls-1,.cls-3{fill:#fd9248;}.cls-1,.cls-2{stroke:#ff6d2d;}.cls-1,.cls-2,.cls-3,.cls-4,.cls-5,.cls-6,.cls-7{stroke-miterlimit:10;}.cls-1,.cls-2,.cls-6{stroke-width:5.96px;}.cls-2{fill:#f6cd66;}.cls-3,.cls-4,.cls-5{stroke:#fff;}.cls-3,.cls-4{stroke-width:4.47px;}.cls-4{fill:#fd6c2d;}.cls-5,.cls-6,.cls-7{fill:none;}.cls-5{stroke-width:10.42px;}.cls-6,.cls-7{stroke:#fd6c2d;}.cls-7{stroke-width:4.55px;}</style></defs><title>adventureicon-3</title><g id="Layer_2" data-name="Layer 2"><ellipse class="cls-1" cx="232.98" cy="37.42" rx="12.48" ry="18.24"/><circle class="cls-2" cx="231.66" cy="237.31" r="181.65"/><polygon class="cls-3" points="211.51 218.12 262.85 257.24 292.19 147.23 211.51 218.12"/><polygon class="cls-4" points="257.23 262.71 207.23 221.89 174.21 330.86 257.23 262.71"/><line class="cls-5" x1="114.03" y1="237.31" x2="66.58" y2="237.52"/><path class="cls-6" d="M450.53,245.5c0,116.35-94.32,210.68-210.68,210.68"/><path class="cls-6" d="M30.38,153.35A211.49,211.49,0,0,1,108.65,55.9"/><path class="cls-6" d="M45.52,165.5A211.34,211.34,0,0,1,123.8,68.05"/><path class="cls-6" d="M81.05,400.44A211.36,211.36,0,0,1,17.69,292.69"/><path class="cls-6" d="M93.16,390.54A211.39,211.39,0,0,1,29.81,282.79"/><line class="cls-5" x1="395.36" y1="238.02" x2="347.91" y2="238.23"/><line class="cls-5" x1="226.46" y1="355.04" x2="225.95" y2="402.5"/><line class="cls-5" x1="231.44" y1="73.76" x2="230.93" y2="121.21"/><path class="cls-7" d="M431.18,256.66c0,87.53-88.22,178.67-178.68,178.67"/><ellipse class="cls-1" cx="693.25" cy="33.93" rx="12.48" ry="18.24"/><circle class="cls-2" cx="691.93" cy="233.82" r="181.65"/><polygon class="cls-3" points="671.78 214.64 723.12 253.75 752.46 143.74 671.78 214.64"/><polygon class="cls-4" points="717.5 259.22 667.5 218.4 634.48 327.37 717.5 259.22"/><line class="cls-5" x1="574.31" y1="233.82" x2="526.85" y2="234.03"/><path class="cls-6" d="M910.8,242c0,116.35-94.32,210.68-210.68,210.68"/><path class="cls-6" d="M490.65,149.87a211.34,211.34,0,0,1,78.28-97.45"/><path class="cls-6" d="M505.79,162a211.34,211.34,0,0,1,78.28-97.45"/><path class="cls-6" d="M541.32,397A211.41,211.41,0,0,1,478,289.21"/><path class="cls-6" d="M553.44,387.05a211.34,211.34,0,0,1-63.36-107.74"/><line class="cls-5" x1="855.63" y1="234.54" x2="808.18" y2="234.74"/><line class="cls-5" x1="686.73" y1="351.55" x2="686.22" y2="399.01"/><line class="cls-5" x1="691.72" y1="70.27" x2="691.21" y2="117.72"/><path class="cls-7" d="M891.45,253.17c0,87.53-88.22,178.68-178.67,178.68"/><ellipse class="cls-1" cx="1178.25" cy="36.93" rx="12.48" ry="18.24"/><circle class="cls-2" cx="1176.93" cy="236.82" r="181.65"/><polygon class="cls-3" points="1156.78 217.64 1208.12 256.75 1237.46 146.74 1156.78 217.64"/><polygon class="cls-4" points="1202.5 262.22 1152.5 221.4 1119.48 330.37 1202.5 262.22"/><line class="cls-5" x1="1059.31" y1="236.82" x2="1011.85" y2="237.03"/><path class="cls-6" d="M1395.8,245c0,116.35-94.32,210.68-210.68,210.68"/><path class="cls-6" d="M975.65,152.87a211.34,211.34,0,0,1,78.28-97.45"/><path class="cls-6" d="M990.79,165a211.34,211.34,0,0,1,78.28-97.45"/><path class="cls-6" d="M1026.32,400A211.41,211.41,0,0,1,963,292.21"/><path class="cls-6" d="M1038.44,390.05a211.34,211.34,0,0,1-63.36-107.74"/><line class="cls-5" x1="1340.63" y1="237.54" x2="1293.18" y2="237.74"/><line class="cls-5" x1="1171.73" y1="354.55" x2="1171.22" y2="402.01"/><line class="cls-5" x1="1176.72" y1="73.27" x2="1176.21" y2="120.72"/><path class="cls-7" d="M1376.45,256.17c0,87.53-88.22,178.68-178.67,178.68"/></g></svg>
